<svg width="140" height="50" viewBox="0 0 140 50" fill="none" xmlns="http://www.w3.org/2000/svg">
<g clip-path="url(#clip0_20_1538)">
<mask id="mask0_20_1538" style="mask-type:luminance" maskUnits="userSpaceOnUse" x="11" y="11" width="118" height="28">
<path d="M128.324 11.7754H11.6758V38.2157H128.324V11.7754Z" fill="white"/>
</mask>
<g mask="url(#mask0_20_1538)">
<path d="M20.3246 23.3218C21.9171 23.3218 23.208 22.0295 23.208 20.4353C23.208 18.8412 21.9171 17.5488 20.3246 17.5488C18.7322 17.5488 17.4414 18.8412 17.4414 20.4353C17.4414 22.0295 18.7322 23.3218 20.3246 23.3218Z" fill="#626B7F"/>
<path d="M29.438 32.442C31.0304 32.442 32.3213 31.1496 32.3213 29.5554C32.3213 27.9613 31.0304 26.6689 29.438 26.6689C27.8456 26.6689 26.5547 27.9613 26.5547 29.5554C26.5547 31.1496 27.8456 32.442 29.438 32.442Z" fill="#626B7F"/>
<path d="M21.9643 31.01C21.4016 31.1195 21.0281 31.6679 21.204 32.214C21.6721 33.667 22.5178 34.9766 23.6625 36.0039C25.0659 37.2633 26.8418 38.0294 28.7201 38.1857C30.5984 38.342 32.4762 37.8798 34.0681 36.8695C35.6599 35.8591 36.8786 34.356 37.5386 32.5885C38.1986 30.8212 38.264 28.8864 37.7248 27.0784C37.1855 25.2704 36.0711 23.6883 34.5512 22.5726C33.0313 21.4569 31.1888 20.8686 29.3043 20.8975C27.7672 20.921 26.2707 21.3539 24.9653 22.143C24.4745 22.4397 24.397 23.0988 24.75 23.551C25.103 24.0033 25.7524 24.0751 26.254 23.7973C27.1938 23.2768 28.2516 22.9922 29.336 22.9755C30.7683 22.9536 32.1684 23.4007 33.3237 24.2487C34.4788 25.0965 35.3257 26.2989 35.7355 27.6731C36.1453 29.0471 36.0957 30.5175 35.594 31.8608C35.0924 33.204 34.1662 34.3464 32.9565 35.1141C31.7466 35.882 30.3195 36.2333 28.8919 36.1146C27.4645 35.9958 26.1149 35.4136 25.0482 34.4563C24.2407 33.7316 23.6289 32.822 23.2607 31.812C23.0642 31.2728 22.5271 30.9005 21.9643 31.01Z" fill="#626B7F"/>
<path d="M27.7713 18.8505C28.3321 18.7312 28.696 18.1764 28.5105 17.6334C28.0171 16.1888 27.1487 14.8941 25.9864 13.8871C24.5611 12.6523 22.7722 11.9173 20.8915 11.7939C19.0107 11.6705 17.1412 12.1654 15.5672 13.2034C13.9933 14.2414 12.801 15.7657 12.1719 17.5442C11.5428 19.3229 11.5111 21.2586 12.0818 23.0568C12.6525 24.8551 13.7943 26.4175 15.3334 27.5066C16.8726 28.5956 18.725 29.1515 20.6087 29.0897C22.1451 29.0393 23.6339 28.5804 24.9254 27.7686C25.4109 27.4634 25.4768 26.8029 25.1161 26.357C24.7553 25.911 24.1047 25.8505 23.6081 26.1371C22.6775 26.6739 21.6248 26.977 20.5408 27.0126C19.1092 27.0595 17.7014 26.637 16.5316 25.8093C15.3618 24.9817 14.4941 23.7943 14.0604 22.4275C13.6266 21.0609 13.6507 19.5898 14.1288 18.238C14.607 16.8863 15.513 15.7278 16.7093 14.9389C17.9055 14.1501 19.3263 13.7739 20.7557 13.8677C22.185 13.9615 23.5447 14.5201 24.6278 15.4586C25.4479 16.169 26.0754 17.0679 26.461 18.0713C26.667 18.6069 27.2106 18.9698 27.7713 18.8505Z" fill="#626B7F"/>
<path d="M94.8593 15.3741C94.5015 15.4433 94.052 15.9283 93.9712 16.3439C93.8794 16.8173 93.8794 28.5481 93.9712 29.0215C94.1562 29.9104 95.2512 30.2799 95.9433 29.6795L96.2668 29.4024V22.6942V15.986L95.9783 15.7089C95.6781 15.4202 95.2745 15.3048 94.8593 15.3741Z" fill="#626B7F"/>
<path d="M123.818 17.5326C123.449 17.902 123.426 17.9713 123.426 18.7333V19.5416L122.792 19.5878C121.891 19.6686 121.534 19.9572 121.488 20.6269C121.465 21.0541 121.5 21.1927 121.765 21.4467C122.03 21.7122 122.169 21.7584 122.745 21.7584H123.426V24.7835C123.426 26.4576 123.484 28.0048 123.541 28.2357C123.876 29.425 124.683 29.9561 126.136 29.9561C126.874 29.9561 127.151 29.8984 127.52 29.6904C128.293 29.2518 128.455 28.5243 127.912 27.9817C127.716 27.7854 127.601 27.7507 127.301 27.8316C126.759 27.9586 126.228 27.9355 126.032 27.7739C125.871 27.6353 125.848 27.2082 125.848 24.691V21.7584H126.655C127.508 21.7584 128.074 21.5621 128.2 21.2389C128.35 20.8347 128.27 20.269 128.004 19.9572C127.763 19.6801 127.636 19.6339 126.794 19.5878L125.848 19.5301V18.9065C125.848 17.3363 124.753 16.5974 123.818 17.5326Z" fill="#626B7F"/>
<path d="M51.0796 19.3461C49.2573 19.7733 47.7234 21.3666 47.3197 23.2371C47.1467 24.08 47.1582 25.6155 47.3658 26.366C47.7811 27.9247 48.9574 29.3449 50.2721 29.8413C52.498 30.6958 56.1888 29.8183 56.1888 28.4327C56.1888 27.382 55.2315 26.9664 54.2973 27.6129C53.9051 27.8902 53.7091 27.9363 52.8556 27.9709C51.7138 28.0172 51.241 27.867 50.549 27.232C49.8339 26.597 49.5686 25.9273 49.5686 24.7611C49.5572 23.6757 49.8108 22.9253 50.3991 22.2903C51.3679 21.2512 53.3055 21.1126 54.4242 21.9901C55.1162 22.5327 56.0735 22.0825 56.0735 21.2166C56.0735 19.9927 54.5741 19.196 52.3366 19.2306C51.8869 19.2422 51.3217 19.2884 51.0796 19.3461Z" fill="#626B7F"/>
<path d="M61.3901 19.392C60.4906 19.646 59.7063 20.1078 59.0258 20.789C58.2992 21.5164 57.8609 22.29 57.6303 23.2715C56.7653 26.943 59.1988 30.1875 62.8202 30.1875C64.308 30.1759 65.4614 29.7486 66.4763 28.8018C67.6411 27.7397 68.1832 26.435 68.1832 24.6915C68.1832 22.3477 66.8569 20.3618 64.7462 19.5536C63.8813 19.2303 62.2666 19.1495 61.3901 19.392ZM64.1581 21.7242C66.4877 22.9135 66.3724 26.8275 63.962 27.832C62.9471 28.2593 61.3324 27.8782 60.6404 27.0585C59.8677 26.1464 59.6255 24.6684 60.0407 23.4215C60.6059 21.7011 62.5319 20.9044 64.1581 21.7242Z" fill="#626B7F"/>
<path d="M84.4339 19.3694C82.7611 19.8428 81.3544 21.413 80.9733 23.2373C80.7773 24.2188 80.8932 26.1585 81.2043 26.9783C81.9998 29.0565 83.8335 30.2919 85.9332 30.1649C86.8672 30.1072 87.9629 29.6684 88.4124 29.1604C88.6659 28.8833 88.8276 28.8487 88.8276 29.0796C88.8276 29.172 88.9661 29.4028 89.1278 29.5991C89.3813 29.911 89.4964 29.9571 89.9809 29.9571C90.4654 29.9571 90.5805 29.911 90.8348 29.5991L91.1342 29.2412V24.5651V19.889L90.7998 19.5541C90.2927 19.0461 89.5197 19.1154 89.0353 19.7273C88.9202 19.8543 88.8276 20.0622 88.8276 20.1661C88.8276 20.4432 88.7701 20.4316 88.3206 20.0853C87.3516 19.3463 85.6447 19.0231 84.4339 19.3694ZM87.1557 21.6324C88.2397 22.1405 88.8626 23.2489 88.8743 24.7036C88.8852 26.6665 87.7319 27.9942 86.025 27.9942C83.7534 27.9942 82.3809 25.4888 83.4074 23.1796C83.9144 22.025 84.8141 21.413 86.0024 21.413C86.4286 21.413 86.8672 21.4938 87.1557 21.6324Z" fill="#626B7F"/>
<path d="M102.068 19.4386C100.107 20.0736 98.7811 21.7131 98.4926 23.8607C98.0082 27.4976 100.28 30.1879 103.821 30.1879C105.285 30.1879 106.727 29.6799 107.465 28.9063C107.904 28.4444 107.915 27.8325 107.465 27.463C107.039 27.082 106.566 27.1166 105.805 27.5554C105.263 27.867 105.009 27.9248 104.213 27.9711C102.991 28.0402 102.298 27.8209 101.665 27.1513C101.41 26.8857 101.111 26.5047 101.007 26.2969C100.627 25.5463 100.476 25.5809 104.271 25.5463C107.558 25.5117 107.742 25.5002 108.042 25.2693C108.492 24.9344 108.584 24.461 108.388 23.5143C107.754 20.4315 104.824 18.561 102.068 19.4386ZM104.917 21.817C105.309 22.0595 105.562 22.3366 105.758 22.706C106.232 23.6182 106.254 23.6066 103.36 23.6066C100.5 23.6066 100.615 23.6528 101.053 22.7407C101.526 21.7593 102.229 21.3898 103.544 21.4476C104.225 21.4706 104.456 21.5283 104.917 21.817Z" fill="#626B7F"/>
<path d="M115.054 19.4267C114.443 19.6461 113.335 20.4081 113.232 20.6852C113.117 20.9624 112.932 20.8354 112.932 20.4774C112.932 19.9348 112.39 19.4498 111.778 19.4498C111.398 19.4498 111.225 19.5191 110.959 19.7847L110.625 20.1195V24.6802V29.2408L110.925 29.5988C111.179 29.9105 111.294 29.9567 111.778 29.9567C112.263 29.9567 112.378 29.9105 112.632 29.5988L112.932 29.2408V26.3311C112.932 24.4492 112.978 23.2716 113.058 23.0175C113.416 21.9784 114.223 21.4242 115.411 21.4126C116.265 21.4126 116.818 21.6667 117.142 22.2208C117.349 22.5903 117.372 22.879 117.429 25.9156C117.487 29.3331 117.522 29.5872 118.007 29.8412C118.122 29.8989 118.433 29.9567 118.699 29.9567C119.275 29.9567 119.69 29.5988 119.794 28.9868C119.944 28.2131 119.783 22.3363 119.598 21.7013C119.263 20.5813 118.687 19.8193 117.891 19.4844C117.245 19.1958 115.758 19.1727 115.054 19.4267Z" fill="#626B7F"/>
<path d="M69.9239 19.7503C69.6471 19.9811 69.5664 20.1428 69.5664 20.443C69.5664 20.7086 70.1661 22.1749 71.3656 24.8535C73.6376 29.9106 73.5339 29.7144 73.9952 29.8991C74.445 30.0838 75.0794 29.9684 75.3561 29.6336C75.4483 29.5297 76.4056 27.5091 77.4667 25.1653C79.6002 20.4776 79.6811 20.2236 79.1041 19.7272C78.6662 19.3461 78.0091 19.3461 77.6512 19.7272C77.5128 19.8772 76.8093 21.3551 76.0826 23.0062C75.3676 24.6573 74.7332 26.0889 74.6756 26.2044C74.5949 26.3546 74.2489 25.6733 73.1879 23.2371C72.3575 21.3205 71.7001 19.958 71.5155 19.7618C71.0888 19.3346 70.4199 19.323 69.9239 19.7503Z" fill="#626B7F"/>
</g>
</g>
<defs>
<clipPath id="clip0_20_1538">
<rect width="139.978" height="49.77" fill="white" transform="translate(0.0117188 0.110352)"/>
</clipPath>
</defs>
</svg>
