<svg width="96" height="58" viewBox="0 0 96 58" fill="none" xmlns="http://www.w3.org/2000/svg">
<g clip-path="url(#clip0_20_1718)">
<g filter="url(#filter0_d_20_1718)">
<path d="M68 0H28C12.536 0 0 12.536 0 28C0 43.464 12.536 56 28 56H68C83.464 56 96 43.464 96 28C96 12.536 83.464 0 68 0Z" fill="#0E0C35" fill-opacity="0.4"/>
<path d="M68 0H28C12.536 0 0 12.536 0 28C0 43.464 12.536 56 28 56H68C83.464 56 96 43.464 96 28C96 12.536 83.464 0 68 0Z" fill="url(#paint0_linear_20_1718)" fill-opacity="0.12"/>
<path d="M68 0H28C12.536 0 0 12.536 0 28C0 43.464 12.536 56 28 56H68C83.464 56 96 43.464 96 28C96 12.536 83.464 0 68 0Z" fill="url(#paint1_radial_20_1718)" fill-opacity="0.24"/>
<path opacity="0.06" d="M48 52.0001H32M48 52.0001H64M48 52.0001V40.0001M32 52.0001V40.0001M32 52.0001H28C14.7451 52.0001 4 41.2549 4 28.0001M64 52.0001V40.0001M64 52.0001H68C81.2548 52.0001 92 41.2549 92 28.0001M48 40.0001H32M48 40.0001H64M48 40.0001V28.0001M32 40.0001H20M32 40.0001V28.0001M64 40.0001V28.0001M64 40.0001H76M48 28.0001H32M48 28.0001H64M48 28.0001V16M4 28.0001H20M4 28.0001C4 14.7452 14.7451 4 28 4L32 4.00001M20 40.0001H8M20 40.0001V28.0001M20 40.0001H7M20 40.0001V50.5001M32 28.0001V16M32 28.0001H20M20 28.0001V16M64 28.0001V16.0001M64 28.0001H76M48 16H32M48 16L64 16.0001M48 16V4.00005M32 16H20M32 16V4.00001M64 16.0001V4.00005M64 16.0001H76M48 4.00005L32 4.00001M48 4.00005H64M64 4.00005H68C81.2548 4.00005 92 14.7452 92 28.0001M20 16H7M20 16V5.5M92 28.0001H76M76 16.0001H88M76 16.0001V28.0001M76 16.0001H89M76 16.0001V5.50005M76 28.0001V40.0001M76 40.0001H89M76 40.0001V50.5001" stroke="url(#paint2_radial_20_1718)"/>
<path d="M16 28C16 21.3726 21.3726 16 28 16H68C74.6274 16 80 21.3726 80 28C80 34.6274 74.6274 40 68 40H28C21.3726 40 16 34.6274 16 28Z" fill="url(#paint3_linear_20_1718)"/>
<path d="M16.5 28C16.5 21.6487 21.6487 16.5 28 16.5H68C74.3513 16.5 79.5 21.6487 79.5 28C79.5 34.3513 74.3513 39.5 68 39.5H28C21.6487 39.5 16.5 34.3513 16.5 28Z" stroke="white" stroke-opacity="0.2"/>
<g filter="url(#filter1_dii_20_1718)">
<path d="M68 37C72.9706 37 77 32.9706 77 28C77 23.0294 72.9706 19 68 19C63.0294 19 59 23.0294 59 28C59 32.9706 63.0294 37 68 37Z" fill="white" fill-opacity="0.7"/>
<path d="M68 36.5C72.6944 36.5 76.5 32.6944 76.5 28C76.5 23.3056 72.6944 19.5 68 19.5C63.3056 19.5 59.5 23.3056 59.5 28C59.5 32.6944 63.3056 36.5 68 36.5Z" stroke="white" stroke-opacity="0.2"/>
</g>
<path d="M68 0.5H28C12.8122 0.5 0.5 12.8122 0.5 28C0.5 43.1878 12.8122 55.5 28 55.5H68C83.1878 55.5 95.5 43.1878 95.5 28C95.5 12.8122 83.1878 0.5 68 0.5Z" stroke="white" stroke-opacity="0.1"/>
</g>
</g>
<defs>
<filter id="filter0_d_20_1718" x="0" y="0" width="96" height="58" filterUnits="userSpaceOnUse" color-interpolation-filters="sRGB">
<feFlood flood-opacity="0" result="BackgroundImageFix"/>
<feColorMatrix in="SourceAlpha" type="matrix" values="0 0 0 0 0 0 0 0 0 0 0 0 0 0 0 0 0 0 127 0" result="hardAlpha"/>
<feOffset dy="2"/>
<feComposite in2="hardAlpha" operator="out"/>
<feColorMatrix type="matrix" values="0 0 0 0 1 0 0 0 0 1 0 0 0 0 1 0 0 0 0.1 0"/>
<feBlend mode="normal" in2="BackgroundImageFix" result="effect1_dropShadow_20_1718"/>
<feBlend mode="normal" in="SourceGraphic" in2="effect1_dropShadow_20_1718" result="shape"/>
</filter>
<filter id="filter1_dii_20_1718" x="51" y="15" width="34" height="34" filterUnits="userSpaceOnUse" color-interpolation-filters="sRGB">
<feFlood flood-opacity="0" result="BackgroundImageFix"/>
<feColorMatrix in="SourceAlpha" type="matrix" values="0 0 0 0 0 0 0 0 0 0 0 0 0 0 0 0 0 0 127 0" result="hardAlpha"/>
<feOffset dy="4"/>
<feGaussianBlur stdDeviation="4"/>
<feComposite in2="hardAlpha" operator="out"/>
<feColorMatrix type="matrix" values="0 0 0 0 0.298039 0 0 0 0 0.392157 0 0 0 0 0.180392 0 0 0 0.12 0"/>
<feBlend mode="normal" in2="BackgroundImageFix" result="effect1_dropShadow_20_1718"/>
<feBlend mode="normal" in="SourceGraphic" in2="effect1_dropShadow_20_1718" result="shape"/>
<feColorMatrix in="SourceAlpha" type="matrix" values="0 0 0 0 0 0 0 0 0 0 0 0 0 0 0 0 0 0 127 0" result="hardAlpha"/>
<feOffset dy="1"/>
<feGaussianBlur stdDeviation="1"/>
<feComposite in2="hardAlpha" operator="arithmetic" k2="-1" k3="1"/>
<feColorMatrix type="matrix" values="0 0 0 0 0.141176 0 0 0 0 0.309804 0 0 0 0 0.298039 0 0 0 0.12 0"/>
<feBlend mode="normal" in2="shape" result="effect2_innerShadow_20_1718"/>
<feColorMatrix in="SourceAlpha" type="matrix" values="0 0 0 0 0 0 0 0 0 0 0 0 0 0 0 0 0 0 127 0" result="hardAlpha"/>
<feOffset dy="2"/>
<feGaussianBlur stdDeviation="2"/>
<feComposite in2="hardAlpha" operator="arithmetic" k2="-1" k3="1"/>
<feColorMatrix type="matrix" values="0 0 0 0 0.298039 0 0 0 0 0.392157 0 0 0 0 0.180392 0 0 0 0.12 0"/>
<feBlend mode="normal" in2="effect2_innerShadow_20_1718" result="effect3_innerShadow_20_1718"/>
</filter>
<linearGradient id="paint0_linear_20_1718" x1="48" y1="-31.5" x2="48" y2="87" gradientUnits="userSpaceOnUse">
<stop stop-color="#D2FB9C"/>
<stop offset="1" stop-color="#D2FB9C" stop-opacity="0"/>
</linearGradient>
<radialGradient id="paint1_radial_20_1718" cx="0" cy="0" r="1" gradientUnits="userSpaceOnUse" gradientTransform="translate(48 54) rotate(90) scale(39 66.8571)">
<stop stop-color="#D2FB9C"/>
<stop offset="1" stop-color="#D2FB9C" stop-opacity="0"/>
</radialGradient>
<radialGradient id="paint2_radial_20_1718" cx="0" cy="0" r="1" gradientUnits="userSpaceOnUse" gradientTransform="translate(48 28) rotate(-90) scale(41 75.1667)">
<stop offset="0.156794" stop-color="white" stop-opacity="0"/>
<stop offset="0.527439" stop-color="white"/>
<stop offset="1" stop-color="white" stop-opacity="0"/>
</radialGradient>
<linearGradient id="paint3_linear_20_1718" x1="106" y1="28" x2="16" y2="28" gradientUnits="userSpaceOnUse">
<stop stop-color="#D2FB9C"/>
<stop offset="1" stop-color="#D2FB9C" stop-opacity="0"/>
</linearGradient>
<clipPath id="clip0_20_1718">
<rect width="96" height="58" fill="white"/>
</clipPath>
</defs>
</svg>
