<svg width="353" height="76" viewBox="0 0 353 76" fill="none" xmlns="http://www.w3.org/2000/svg">
<g clip-path="url(#clip0_20_1912)">
<g clip-path="url(#clip1_20_1912)">
<mask id="mask0_20_1912" style="mask-type:alpha" maskUnits="userSpaceOnUse" x="0" y="0" width="353" height="76">
<path d="M352.88 0.555664H0V75.3752H352.88V0.555664Z" fill="url(#paint0_linear_20_1912)"/>
</mask>
<g mask="url(#mask0_20_1912)">
<path d="M345.063 5.02246H7.81692C5.9667 5.02246 4.4668 6.52236 4.4668 8.37259V72.025C4.4668 73.8752 5.9667 75.3751 7.81692 75.3751H345.063C346.913 75.3751 348.413 73.8752 348.413 72.025V8.37259C348.413 6.52236 346.913 5.02246 345.063 5.02246Z" fill="white" fill-opacity="0.05"/>
<path d="M345.063 5.30176H7.81704C6.121 5.30176 4.74609 6.67667 4.74609 8.37271V72.0251C4.74609 73.7212 6.121 75.0961 7.81704 75.0961H345.063C346.759 75.0961 348.134 73.7212 348.134 72.0251V8.37271C348.134 6.67667 346.759 5.30176 345.063 5.30176Z" stroke="url(#paint1_linear_20_1912)" stroke-opacity="0.1" stroke-width="0.558354"/>
<path opacity="0.2" d="M15.6338 16.1895C16.8673 16.1895 17.8672 15.1896 17.8672 13.9561C17.8672 12.7226 16.8673 11.7227 15.6338 11.7227C14.4003 11.7227 13.4004 12.7226 13.4004 13.9561C13.4004 15.1896 14.4003 16.1895 15.6338 16.1895Z" fill="white"/>
<path opacity="0.2" d="M24.5674 16.1895C25.8009 16.1895 26.8008 15.1896 26.8008 13.9561C26.8008 12.7226 25.8009 11.7227 24.5674 11.7227C23.3339 11.7227 22.334 12.7226 22.334 13.9561C22.334 15.1896 23.3339 16.1895 24.5674 16.1895Z" fill="white"/>
<path opacity="0.2" d="M33.501 16.1895C34.7345 16.1895 35.7344 15.1896 35.7344 13.9561C35.7344 12.7226 34.7345 11.7227 33.501 11.7227C32.2675 11.7227 31.2676 12.7226 31.2676 13.9561C31.2676 15.1896 32.2675 16.1895 33.501 16.1895Z" fill="white"/>
<path d="M348.413 22.3311H4.4668V23.4478H348.413V22.3311Z" fill="white" fill-opacity="0.12"/>
<path d="M15.6348 31.8233C15.6348 30.5898 14.6349 29.5898 13.4014 29.5898C12.1679 29.5898 11.168 30.5898 11.168 31.8233V37.4068C11.168 38.6403 12.1679 39.6402 13.4014 39.6402C14.6349 39.6402 15.6348 38.6403 15.6348 37.4068V31.8233Z" fill="white" fill-opacity="0.05"/>
<path d="M15.3538 31.8234C15.3538 30.7441 14.4789 29.8691 13.3996 29.8691C12.3203 29.8691 11.4453 30.7441 11.4453 31.8234V37.4069C11.4453 38.4862 12.3203 39.3612 13.3996 39.3612C14.4789 39.3612 15.3538 38.4862 15.3538 37.4069V31.8234Z" stroke="url(#paint2_linear_20_1912)" stroke-opacity="0.1" stroke-width="0.558354"/>
<path d="M135.68 29.5898H27.3592C24.5838 29.5898 22.334 31.8397 22.334 34.615C22.334 37.3904 24.5838 39.6402 27.3592 39.6402H135.68C138.455 39.6402 140.705 37.3904 140.705 34.615C140.705 31.8397 138.455 29.5898 135.68 29.5898Z" fill="white" fill-opacity="0.05"/>
<path d="M135.68 29.8691H27.3593C24.7381 29.8691 22.6133 31.994 22.6133 34.6152C22.6133 37.2363 24.7381 39.3612 27.3593 39.3612H135.68C138.301 39.3612 140.426 37.2363 140.426 34.6152C140.426 31.994 138.301 29.8691 135.68 29.8691Z" stroke="url(#paint3_linear_20_1912)" stroke-opacity="0.1" stroke-width="0.558354"/>
<path d="M57.5103 44.1074H27.3592C24.5838 44.1074 22.334 46.3573 22.334 49.1326C22.334 51.9079 24.5838 54.1578 27.3592 54.1578H57.5103C60.2856 54.1578 62.5355 51.9079 62.5355 49.1326C62.5355 46.3573 60.2856 44.1074 57.5103 44.1074Z" fill="white" fill-opacity="0.05"/>
<path d="M57.5104 44.3867H27.3593C24.7381 44.3867 22.6133 46.5116 22.6133 49.1327C22.6133 51.7539 24.7381 53.8787 27.3593 53.8787H57.5104C60.1316 53.8787 62.2564 51.7539 62.2564 49.1327C62.2564 46.5116 60.1316 44.3867 57.5104 44.3867Z" stroke="url(#paint4_linear_20_1912)" stroke-opacity="0.1" stroke-width="0.558354"/>
<path d="M115.579 44.1074H72.0271C69.2518 44.1074 67.002 46.3573 67.002 49.1326C67.002 51.9079 69.2518 54.1578 72.0271 54.1578H115.579C118.354 54.1578 120.604 51.9079 120.604 49.1326C120.604 46.3573 118.354 44.1074 115.579 44.1074Z" fill="white" fill-opacity="0.05"/>
<path d="M115.579 44.3867H72.0273C69.4061 44.3867 67.2812 46.5116 67.2812 49.1327C67.2812 51.7539 69.4061 53.8787 72.0273 53.8787H115.579C118.2 53.8787 120.325 51.7539 120.325 49.1327C120.325 46.5116 118.2 44.3867 115.579 44.3867Z" stroke="url(#paint5_linear_20_1912)" stroke-opacity="0.1" stroke-width="0.558354"/>
<path d="M173.649 44.1074H130.097C127.322 44.1074 125.072 46.3573 125.072 49.1326C125.072 51.9079 127.322 54.1578 130.097 54.1578H173.649C176.424 54.1578 178.674 51.9079 178.674 49.1326C178.674 46.3573 176.424 44.1074 173.649 44.1074Z" fill="#FFB1B1" fill-opacity="0.24"/>
<path d="M173.647 44.3867H130.096C127.474 44.3867 125.35 46.5116 125.35 49.1327C125.35 51.7539 127.474 53.8787 130.096 53.8787H173.647C176.268 53.8787 178.393 51.7539 178.393 49.1327C178.393 46.5116 176.268 44.3867 173.647 44.3867Z" stroke="url(#paint6_linear_20_1912)" stroke-opacity="0.1" stroke-width="0.558354"/>
<path d="M153.547 29.5898H150.197C147.422 29.5898 145.172 31.8397 145.172 34.615C145.172 37.3904 147.422 39.6402 150.197 39.6402H153.547C156.323 39.6402 158.572 37.3904 158.572 34.615C158.572 31.8397 156.323 29.5898 153.547 29.5898Z" fill="#8CD6F4" fill-opacity="0.24"/>
<path d="M153.547 29.8691H150.197C147.576 29.8691 145.451 31.994 145.451 34.6152C145.451 37.2363 147.576 39.3612 150.197 39.3612H153.547C156.168 39.3612 158.293 37.2363 158.293 34.6152C158.293 31.994 156.168 29.8691 153.547 29.8691Z" stroke="url(#paint7_linear_20_1912)" stroke-opacity="0.1" stroke-width="0.558354"/>
<path d="M264.101 34.615C264.101 31.8397 261.851 29.5898 259.076 29.5898C256.301 29.5898 254.051 31.8397 254.051 34.615C254.051 37.3904 256.301 39.6402 259.076 39.6402C261.851 39.6402 264.101 37.3904 264.101 34.615Z" fill="#8CD6F4" fill-opacity="0.24"/>
<path d="M263.822 34.6152C263.822 31.994 261.697 29.8691 259.076 29.8691C256.455 29.8691 254.33 31.994 254.33 34.6152C254.33 37.2363 256.455 39.3612 259.076 39.3612C261.697 39.3612 263.822 37.2363 263.822 34.6152Z" stroke="url(#paint8_linear_20_1912)" stroke-opacity="0.1" stroke-width="0.558354"/>
<path d="M244.56 29.5898H174.765C171.99 29.5898 169.74 31.8397 169.74 34.615C169.74 37.3904 171.99 39.6402 174.765 39.6402H244.56C247.335 39.6402 249.585 37.3904 249.585 34.615C249.585 31.8397 247.335 29.5898 244.56 29.5898Z" fill="#D2FB9C" fill-opacity="0.24"/>
<path d="M244.56 29.8691H174.766C172.144 29.8691 170.02 31.994 170.02 34.6152C170.02 37.2363 172.144 39.3612 174.766 39.3612H244.56C247.181 39.3612 249.306 37.2363 249.306 34.6152C249.306 31.994 247.181 29.8691 244.56 29.8691Z" stroke="url(#paint9_linear_20_1912)" stroke-opacity="0.1" stroke-width="0.558354"/>
<path d="M228.366 44.1074H194.865C192.09 44.1074 189.84 46.3573 189.84 49.1326C189.84 51.9079 192.09 54.1578 194.865 54.1578H228.366C231.142 54.1578 233.391 51.9079 233.391 49.1326C233.391 46.3573 231.142 44.1074 228.366 44.1074Z" fill="#FCE1AA" fill-opacity="0.24"/>
<path d="M228.366 44.3867H194.865C192.244 44.3867 190.119 46.5116 190.119 49.1327C190.119 51.7539 192.244 53.8787 194.865 53.8787H228.366C230.988 53.8787 233.112 51.7539 233.112 49.1327C233.112 46.5116 230.988 44.3867 228.366 44.3867Z" stroke="url(#paint10_linear_20_1912)" stroke-opacity="0.1" stroke-width="0.558354"/>
<path d="M165.272 30.7066C165.272 30.0898 164.773 29.5898 164.156 29.5898C163.539 29.5898 163.039 30.0898 163.039 30.7066V38.5235C163.039 39.1403 163.539 39.6402 164.156 39.6402C164.773 39.6402 165.272 39.1403 165.272 38.5235V30.7066Z" fill="#B6A3FF" fill-opacity="0.24"/>
<path d="M164.993 30.7067C164.993 30.2441 164.618 29.8691 164.156 29.8691C163.693 29.8691 163.318 30.2441 163.318 30.7067V38.5236C163.318 38.9862 163.693 39.3612 164.156 39.3612C164.618 39.3612 164.993 38.9862 164.993 38.5236V30.7067Z" stroke="url(#paint11_linear_20_1912)" stroke-opacity="0.1" stroke-width="0.558354"/>
<path d="M185.374 45.2241C185.374 44.6074 184.874 44.1074 184.257 44.1074C183.641 44.1074 183.141 44.6074 183.141 45.2241V53.0411C183.141 53.6578 183.641 54.1578 184.257 54.1578C184.874 54.1578 185.374 53.6578 185.374 53.0411V45.2241Z" fill="#B6A3FF" fill-opacity="0.24"/>
<path d="M185.095 45.2243C185.095 44.7617 184.72 44.3867 184.257 44.3867C183.795 44.3867 183.42 44.7617 183.42 45.2243V53.0412C183.42 53.5038 183.795 53.8787 184.257 53.8787C184.72 53.8787 185.095 53.5038 185.095 53.0412V45.2243Z" stroke="url(#paint12_linear_20_1912)" stroke-opacity="0.1" stroke-width="0.558354"/>
<path d="M15.6348 46.3408C15.6348 45.1074 14.6349 44.1074 13.4014 44.1074C12.1679 44.1074 11.168 45.1074 11.168 46.3408V51.9244C11.168 53.1579 12.1679 54.1578 13.4014 54.1578C14.6349 54.1578 15.6348 53.1579 15.6348 51.9244V46.3408Z" fill="white" fill-opacity="0.05"/>
<path d="M15.3538 46.341C15.3538 45.2617 14.4789 44.3867 13.3996 44.3867C12.3203 44.3867 11.4453 45.2617 11.4453 46.341V51.9245C11.4453 53.0038 12.3203 53.8787 13.3996 53.8787C14.4789 53.8787 15.3538 53.0038 15.3538 51.9245V46.341Z" stroke="url(#paint13_linear_20_1912)" stroke-opacity="0.1" stroke-width="0.558354"/>
<path d="M15.6348 60.8574C15.6348 59.624 14.6349 58.624 13.4014 58.624C12.1679 58.624 11.168 59.624 11.168 60.8574V66.441C11.168 67.6745 12.1679 68.6744 13.4014 68.6744C14.6349 68.6744 15.6348 67.6745 15.6348 66.441V60.8574Z" fill="white" fill-opacity="0.05"/>
<path d="M15.3538 60.8576C15.3538 59.7783 14.4789 58.9033 13.3996 58.9033C12.3203 58.9033 11.4453 59.7783 11.4453 60.8576V66.4411C11.4453 67.5204 12.3203 68.3953 13.3996 68.3953C14.4789 68.3953 15.3538 67.5204 15.3538 66.4411V60.8576Z" stroke="url(#paint14_linear_20_1912)" stroke-opacity="0.1" stroke-width="0.558354"/>
</g>
</g>
</g>
<defs>
<linearGradient id="paint0_linear_20_1912" x1="176.44" y1="21.7731" x2="176.44" y2="75.3752" gradientUnits="userSpaceOnUse">
<stop stop-color="white"/>
<stop offset="1" stop-color="white" stop-opacity="0"/>
</linearGradient>
<linearGradient id="paint1_linear_20_1912" x1="176.44" y1="5.02258" x2="176.44" y2="75.3752" gradientUnits="userSpaceOnUse">
<stop stop-color="white"/>
<stop offset="1" stop-color="white" stop-opacity="0"/>
</linearGradient>
<linearGradient id="paint2_linear_20_1912" x1="13.3996" y1="29.59" x2="13.3996" y2="39.6403" gradientUnits="userSpaceOnUse">
<stop stop-color="white"/>
<stop offset="1" stop-color="white" stop-opacity="0"/>
</linearGradient>
<linearGradient id="paint3_linear_20_1912" x1="81.5197" y1="29.59" x2="81.5197" y2="39.6403" gradientUnits="userSpaceOnUse">
<stop stop-color="white"/>
<stop offset="1" stop-color="white" stop-opacity="0"/>
</linearGradient>
<linearGradient id="paint4_linear_20_1912" x1="42.4349" y1="44.1075" x2="42.4349" y2="54.1579" gradientUnits="userSpaceOnUse">
<stop stop-color="white"/>
<stop offset="1" stop-color="white" stop-opacity="0"/>
</linearGradient>
<linearGradient id="paint5_linear_20_1912" x1="93.8031" y1="44.1075" x2="93.8031" y2="54.1579" gradientUnits="userSpaceOnUse">
<stop stop-color="white"/>
<stop offset="1" stop-color="white" stop-opacity="0"/>
</linearGradient>
<linearGradient id="paint6_linear_20_1912" x1="151.871" y1="44.1075" x2="151.871" y2="54.1579" gradientUnits="userSpaceOnUse">
<stop stop-color="white"/>
<stop offset="1" stop-color="white" stop-opacity="0"/>
</linearGradient>
<linearGradient id="paint7_linear_20_1912" x1="151.872" y1="29.59" x2="151.872" y2="39.6403" gradientUnits="userSpaceOnUse">
<stop stop-color="white"/>
<stop offset="1" stop-color="white" stop-opacity="0"/>
</linearGradient>
<linearGradient id="paint8_linear_20_1912" x1="259.076" y1="29.59" x2="259.076" y2="39.6403" gradientUnits="userSpaceOnUse">
<stop stop-color="white"/>
<stop offset="1" stop-color="white" stop-opacity="0"/>
</linearGradient>
<linearGradient id="paint9_linear_20_1912" x1="209.663" y1="29.59" x2="209.663" y2="39.6403" gradientUnits="userSpaceOnUse">
<stop stop-color="white"/>
<stop offset="1" stop-color="white" stop-opacity="0"/>
</linearGradient>
<linearGradient id="paint10_linear_20_1912" x1="211.616" y1="44.1075" x2="211.616" y2="54.1579" gradientUnits="userSpaceOnUse">
<stop stop-color="white"/>
<stop offset="1" stop-color="white" stop-opacity="0"/>
</linearGradient>
<linearGradient id="paint11_linear_20_1912" x1="164.156" y1="29.59" x2="164.156" y2="39.6403" gradientUnits="userSpaceOnUse">
<stop stop-color="white"/>
<stop offset="1" stop-color="white" stop-opacity="0"/>
</linearGradient>
<linearGradient id="paint12_linear_20_1912" x1="184.257" y1="44.1075" x2="184.257" y2="54.1579" gradientUnits="userSpaceOnUse">
<stop stop-color="white"/>
<stop offset="1" stop-color="white" stop-opacity="0"/>
</linearGradient>
<linearGradient id="paint13_linear_20_1912" x1="13.3996" y1="44.1075" x2="13.3996" y2="54.1579" gradientUnits="userSpaceOnUse">
<stop stop-color="white"/>
<stop offset="1" stop-color="white" stop-opacity="0"/>
</linearGradient>
<linearGradient id="paint14_linear_20_1912" x1="13.3996" y1="58.6241" x2="13.3996" y2="68.6745" gradientUnits="userSpaceOnUse">
<stop stop-color="white"/>
<stop offset="1" stop-color="white" stop-opacity="0"/>
</linearGradient>
<clipPath id="clip0_20_1912">
<rect width="352.88" height="74.81" fill="white" transform="translate(0 0.560547)"/>
</clipPath>
<clipPath id="clip1_20_1912">
<rect width="352.88" height="74.8195" fill="white" transform="translate(0 0.555664)"/>
</clipPath>
</defs>
</svg>
