<svg width="80" height="81" viewBox="0 0 80 81" fill="none" xmlns="http://www.w3.org/2000/svg">
<g clip-path="url(#clip0_20_2301)">
<mask id="mask0_20_2301" style="mask-type:luminance" maskUnits="userSpaceOnUse" x="0" y="0" width="80" height="81">
<path d="M80 0.379883H0V80.3799H80V0.379883Z" fill="white"/>
</mask>
<g mask="url(#mask0_20_2301)">
<mask id="mask1_20_2301" style="mask-type:alpha" maskUnits="userSpaceOnUse" x="0" y="0" width="80" height="81">
<path d="M56 0.379883H24C10.7452 0.379883 0 11.1251 0 24.3799V56.3799C0 69.6347 10.7452 80.3799 24 80.3799H56C69.2548 80.3799 80 69.6347 80 56.3799V24.3799C80 11.1251 69.2548 0.379883 56 0.379883Z" fill="#D9D9D9"/>
</mask>
<g mask="url(#mask1_20_2301)">
<g filter="url(#filter0_ii_20_2301)">
<path d="M68 0.379883H12C5.37258 0.379883 0 5.75246 0 12.3799V68.3799C0 75.0073 5.37258 80.3799 12 80.3799H68C74.6274 80.3799 80 75.0073 80 68.3799V12.3799C80 5.75246 74.6274 0.379883 68 0.379883Z" fill="url(#paint0_radial_20_2301)"/>
</g>
<g style="mix-blend-mode:soft-light" opacity="0.5">
<path d="M68 0.379883H12C5.37258 0.379883 0 5.75246 0 12.3799V68.3799C0 75.0073 5.37258 80.3799 12 80.3799H68C74.6274 80.3799 80 75.0073 80 68.3799V12.3799C80 5.75246 74.6274 0.379883 68 0.379883Z" fill="url(#paint1_radial_20_2301)"/>
</g>
<g filter="url(#filter1_f_20_2301)">
<path d="M69.7635 47.2135C81.1845 47.2135 90.443 37.955 90.443 26.534C90.443 15.113 81.1845 5.85449 69.7635 5.85449C58.3425 5.85449 49.084 15.113 49.084 26.534C49.084 37.955 58.3425 47.2135 69.7635 47.2135Z" fill="#17142E"/>
</g>
<g filter="url(#filter2_f_20_2301)">
<path d="M69.7635 47.2135C81.1845 47.2135 90.443 37.955 90.443 26.534C90.443 15.113 81.1845 5.85449 69.7635 5.85449C58.3425 5.85449 49.084 15.113 49.084 26.534C49.084 37.955 58.3425 47.2135 69.7635 47.2135Z" fill="#5BC5EF"/>
</g>
<g opacity="0.5" filter="url(#filter3_f_20_2301)">
<path d="M50.8243 21.7397C72.728 21.7397 90.4845 18.1754 90.4845 13.7786C90.4845 9.38172 72.728 5.81738 50.8243 5.81738C28.9205 5.81738 11.1641 9.38172 11.1641 13.7786C11.1641 18.1754 28.9205 21.7397 50.8243 21.7397Z" fill="#6C47FF"/>
</g>
<g style="mix-blend-mode:screen" opacity="0.5" filter="url(#filter4_f_20_2301)">
<path d="M4.9217 42.0118C-15.6526 47.5246 -30.1433 60.1597 -27.4441 70.2331C-24.745 80.3064 -5.87814 84.0034 14.6962 78.4905C35.2705 72.9777 49.7611 60.3426 47.062 50.2692C44.3628 40.1959 25.496 36.4989 4.9217 42.0118Z" fill="#17142E"/>
</g>
<g style="mix-blend-mode:screen" opacity="0.75" filter="url(#filter5_f_20_2301)">
<path d="M62.0096 42.1094C41.4353 47.6223 26.9446 60.2574 29.6438 70.3307C32.3429 80.4041 51.2098 84.1011 71.7841 78.5882C92.3583 73.0753 106.849 60.4402 104.15 50.3669C101.451 40.2935 82.5839 36.5966 62.0096 42.1094Z" fill="#17142E"/>
</g>
<g style="mix-blend-mode:screen" opacity="0.5" filter="url(#filter6_f_20_2301)">
<path d="M35.119 36.4786C14.5447 41.9914 0.0539985 54.6265 2.75314 64.6999C5.45228 74.7732 24.3191 78.4702 44.8934 72.9573C65.4677 67.4445 79.9584 54.8094 77.2593 44.736C74.5601 34.6627 55.6933 30.9657 35.119 36.4786Z" fill="#17142E"/>
</g>
<g style="mix-blend-mode:soft-light">
<path d="M68 0.379883H12C5.37258 0.379883 0 5.75246 0 12.3799V68.3799C0 75.0073 5.37258 80.3799 12 80.3799H68C74.6274 80.3799 80 75.0073 80 68.3799V12.3799C80 5.75246 74.6274 0.379883 68 0.379883Z" fill="url(#paint2_linear_20_2301)"/>
</g>
<path d="M56.0002 0.540039H24.0002C10.8337 0.540039 0.160156 11.2136 0.160156 24.3801V56.3801C0.160156 69.5465 10.8337 80.22 24.0002 80.22H56.0002C69.1666 80.22 79.8401 69.5465 79.8401 56.3801V24.3801C79.8401 11.2136 69.1666 0.540039 56.0002 0.540039Z" stroke="#08021B" stroke-opacity="0.24" stroke-width="0.32"/>
<g filter="url(#filter7_ddddddd_20_2301)">
<path d="M55.0494 24.0873L49.7358 29.4009C49.5689 29.5666 49.3514 29.6716 49.1179 29.6992C48.8844 29.7269 48.6483 29.6757 48.4473 29.5536C46.3564 28.295 43.9463 27.6676 41.5071 27.747C39.0679 27.8264 36.7036 28.6093 34.6991 30.0013C33.4669 30.859 32.397 31.9288 31.5393 33.161C30.1473 35.1656 29.3645 37.5298 29.2851 39.969C29.2057 42.4082 29.8331 44.8184 31.0917 46.9093C31.2137 47.1103 31.265 47.3463 31.2373 47.5798C31.2096 47.8133 31.1046 48.0308 30.939 48.1977L25.6254 53.5113C25.5182 53.6188 25.389 53.7018 25.2468 53.7547C25.1045 53.8076 24.9524 53.8292 24.801 53.8178C24.6497 53.8065 24.5025 53.7626 24.3697 53.6891C24.2369 53.6156 24.1215 53.5142 24.0315 53.3919C21.1577 49.4419 19.6723 44.6515 19.8073 39.7685C19.9422 34.8855 21.6899 30.1845 24.7776 26.3992C25.7204 25.2411 26.7791 24.1823 27.9373 23.2395C31.7226 20.1518 36.4236 18.4042 41.3066 18.2692C46.1896 18.1342 50.9799 19.6196 54.93 22.4934C55.0523 22.5834 55.1536 22.6988 55.2271 22.8316C55.3006 22.9644 55.3446 23.1116 55.3559 23.263C55.3672 23.4144 55.3457 23.5664 55.2928 23.7087C55.2399 23.851 55.1569 23.9801 55.0494 24.0873Z" fill="white"/>
<path d="M55.0491 56.6778L49.7361 51.367C49.5693 51.2015 49.3518 51.0965 49.1183 51.0689C48.8848 51.0412 48.6488 51.0924 48.4478 51.2144C46.4765 52.4001 44.2192 53.0267 41.9185 53.0267C39.6178 53.0267 37.3605 52.4001 35.3892 51.2144C35.1882 51.0924 34.9522 51.0412 34.7188 51.0689C34.4853 51.0965 34.2678 51.2015 34.1009 51.367L28.7879 56.6778C28.6805 56.7849 28.5974 56.914 28.5445 57.0562C28.4916 57.1985 28.4701 57.3504 28.4815 57.5017C28.4928 57.653 28.5367 57.8001 28.6102 57.9328C28.6837 58.0656 28.7851 58.1809 28.9073 58.2708C32.6879 61.0204 37.2431 62.5016 41.9185 62.5016C46.594 62.5016 51.1491 61.0204 54.9298 58.2708C55.052 58.1809 55.1533 58.0656 55.2268 57.9328C55.3003 57.8001 55.3443 57.653 55.3556 57.5017C55.3669 57.3504 55.3454 57.1985 55.2925 57.0562C55.2396 56.914 55.1566 56.7849 55.0491 56.6778Z" fill="white"/>
<path d="M41.9196 46.7015C45.4101 46.7015 48.2396 43.8719 48.2396 40.3815C48.2396 36.891 45.4101 34.0615 41.9196 34.0615C38.4292 34.0615 35.5996 36.891 35.5996 40.3815C35.5996 43.8719 38.4292 46.7015 41.9196 46.7015Z" fill="white"/>
<path d="M55.0494 24.0873L49.7358 29.4009C49.5689 29.5666 49.3514 29.6716 49.1179 29.6992C48.8844 29.7269 48.6483 29.6757 48.4473 29.5536C46.3564 28.295 43.9463 27.6676 41.5071 27.747C39.0679 27.8264 36.7036 28.6093 34.6991 30.0013C33.4669 30.859 32.397 31.9288 31.5393 33.161C30.1473 35.1656 29.3645 37.5298 29.2851 39.969C29.2057 42.4082 29.8331 44.8184 31.0917 46.9093C31.2137 47.1103 31.265 47.3463 31.2373 47.5798C31.2096 47.8133 31.1046 48.0308 30.939 48.1977L25.6254 53.5113C25.5182 53.6188 25.389 53.7018 25.2468 53.7547C25.1045 53.8076 24.9524 53.8292 24.801 53.8178C24.6497 53.8065 24.5025 53.7626 24.3697 53.6891C24.2369 53.6156 24.1215 53.5142 24.0315 53.3919C21.1577 49.4419 19.6723 44.6515 19.8073 39.7685C19.9422 34.8855 21.6899 30.1845 24.7776 26.3992C25.7204 25.2411 26.7791 24.1823 27.9373 23.2395C31.7226 20.1518 36.4236 18.4042 41.3066 18.2692C46.1896 18.1342 50.9799 19.6196 54.93 22.4934C55.0523 22.5834 55.1536 22.6988 55.2271 22.8316C55.3006 22.9644 55.3446 23.1116 55.3559 23.263C55.3672 23.4144 55.3457 23.5664 55.2928 23.7087C55.2399 23.851 55.1569 23.9801 55.0494 24.0873Z" stroke="url(#paint3_linear_20_2301)" stroke-opacity="0.08" stroke-width="2.25"/>
<path d="M55.0491 56.6778L49.7361 51.367C49.5693 51.2015 49.3518 51.0965 49.1183 51.0689C48.8848 51.0412 48.6488 51.0924 48.4478 51.2144C46.4765 52.4001 44.2192 53.0267 41.9185 53.0267C39.6178 53.0267 37.3605 52.4001 35.3892 51.2144C35.1882 51.0924 34.9522 51.0412 34.7188 51.0689C34.4853 51.0965 34.2678 51.2015 34.1009 51.367L28.7879 56.6778C28.6805 56.7849 28.5974 56.914 28.5445 57.0562C28.4916 57.1985 28.4701 57.3504 28.4815 57.5017C28.4928 57.653 28.5367 57.8001 28.6102 57.9328C28.6837 58.0656 28.7851 58.1809 28.9073 58.2708C32.6879 61.0204 37.2431 62.5016 41.9185 62.5016C46.594 62.5016 51.1491 61.0204 54.9298 58.2708C55.052 58.1809 55.1533 58.0656 55.2268 57.9328C55.3003 57.8001 55.3443 57.653 55.3556 57.5017C55.3669 57.3504 55.3454 57.1985 55.2925 57.0562C55.2396 56.914 55.1566 56.7849 55.0491 56.6778Z" stroke="url(#paint4_linear_20_2301)" stroke-opacity="0.08" stroke-width="2.25"/>
<path d="M41.9196 46.7015C45.4101 46.7015 48.2396 43.8719 48.2396 40.3815C48.2396 36.891 45.4101 34.0615 41.9196 34.0615C38.4292 34.0615 35.5996 36.891 35.5996 40.3815C35.5996 43.8719 38.4292 46.7015 41.9196 46.7015Z" stroke="url(#paint5_linear_20_2301)" stroke-opacity="0.08" stroke-width="2.25"/>
</g>
<g filter="url(#filter8_iii_20_2301)">
<path d="M55.0494 24.0873L49.7358 29.4009C49.5689 29.5666 49.3514 29.6716 49.1179 29.6992C48.8844 29.7269 48.6483 29.6757 48.4473 29.5536C46.3564 28.295 43.9463 27.6676 41.5071 27.747C39.0679 27.8264 36.7036 28.6093 34.6991 30.0013C33.4669 30.859 32.397 31.9288 31.5393 33.161C30.1473 35.1656 29.3645 37.5298 29.2851 39.969C29.2057 42.4082 29.8331 44.8184 31.0917 46.9093C31.2137 47.1103 31.265 47.3463 31.2373 47.5798C31.2096 47.8133 31.1046 48.0308 30.939 48.1977L25.6254 53.5113C25.5182 53.6188 25.389 53.7018 25.2468 53.7547C25.1045 53.8076 24.9524 53.8292 24.801 53.8178C24.6497 53.8065 24.5025 53.7626 24.3697 53.6891C24.2369 53.6156 24.1215 53.5142 24.0315 53.3919C21.1577 49.4419 19.6723 44.6515 19.8073 39.7685C19.9422 34.8855 21.6899 30.1845 24.7776 26.3992C25.7204 25.2411 26.7791 24.1823 27.9373 23.2395C31.7226 20.1518 36.4236 18.4042 41.3066 18.2692C46.1896 18.1342 50.9799 19.6196 54.93 22.4934C55.0523 22.5834 55.1536 22.6988 55.2271 22.8316C55.3006 22.9644 55.3446 23.1116 55.3559 23.263C55.3672 23.4144 55.3457 23.5664 55.2928 23.7087C55.2399 23.851 55.1569 23.9801 55.0494 24.0873Z" fill="white" fill-opacity="0.01"/>
<path d="M55.0491 56.6778L49.7361 51.367C49.5693 51.2015 49.3518 51.0965 49.1183 51.0689C48.8848 51.0412 48.6488 51.0924 48.4478 51.2144C46.4765 52.4001 44.2192 53.0267 41.9185 53.0267C39.6178 53.0267 37.3605 52.4001 35.3892 51.2144C35.1882 51.0924 34.9522 51.0412 34.7188 51.0689C34.4853 51.0965 34.2678 51.2015 34.1009 51.367L28.7879 56.6778C28.6805 56.7849 28.5974 56.914 28.5445 57.0562C28.4916 57.1985 28.4701 57.3504 28.4815 57.5017C28.4928 57.653 28.5367 57.8001 28.6102 57.9328C28.6837 58.0656 28.7851 58.1809 28.9073 58.2708C32.6879 61.0204 37.2431 62.5016 41.9185 62.5016C46.594 62.5016 51.1491 61.0204 54.9298 58.2708C55.052 58.1809 55.1533 58.0656 55.2268 57.9328C55.3003 57.8001 55.3443 57.653 55.3556 57.5017C55.3669 57.3504 55.3454 57.1985 55.2925 57.0562C55.2396 56.914 55.1566 56.7849 55.0491 56.6778Z" fill="white" fill-opacity="0.01"/>
<path d="M41.9196 46.7015C45.4101 46.7015 48.2396 43.8719 48.2396 40.3815C48.2396 36.891 45.4101 34.0615 41.9196 34.0615C38.4292 34.0615 35.5996 36.891 35.5996 40.3815C35.5996 43.8719 38.4292 46.7015 41.9196 46.7015Z" fill="white" fill-opacity="0.01"/>
</g>
<g filter="url(#filter9_iii_20_2301)">
<path d="M55.0494 24.0873L49.7358 29.4009C49.5689 29.5666 49.3514 29.6716 49.1179 29.6992C48.8844 29.7269 48.6483 29.6757 48.4473 29.5536C46.3564 28.295 43.9463 27.6676 41.5071 27.747C39.0679 27.8264 36.7036 28.6093 34.6991 30.0013C33.4669 30.859 32.397 31.9288 31.5393 33.161C30.1473 35.1656 29.3645 37.5298 29.2851 39.969C29.2057 42.4082 29.8331 44.8184 31.0917 46.9093C31.2137 47.1103 31.265 47.3463 31.2373 47.5798C31.2096 47.8133 31.1046 48.0308 30.939 48.1977L25.6254 53.5113C25.5182 53.6188 25.389 53.7018 25.2468 53.7547C25.1045 53.8076 24.9524 53.8292 24.801 53.8178C24.6497 53.8065 24.5025 53.7626 24.3697 53.6891C24.2369 53.6156 24.1215 53.5142 24.0315 53.3919C21.1577 49.4419 19.6723 44.6515 19.8073 39.7685C19.9422 34.8855 21.6899 30.1845 24.7776 26.3992C25.7204 25.2411 26.7791 24.1823 27.9373 23.2395C31.7226 20.1518 36.4236 18.4042 41.3066 18.2692C46.1896 18.1342 50.9799 19.6196 54.93 22.4934C55.0523 22.5834 55.1536 22.6988 55.2271 22.8316C55.3006 22.9644 55.3446 23.1116 55.3559 23.263C55.3672 23.4144 55.3457 23.5664 55.2928 23.7087C55.2399 23.851 55.1569 23.9801 55.0494 24.0873Z" fill="white" fill-opacity="0.01"/>
<path d="M55.0491 56.6778L49.7361 51.367C49.5693 51.2015 49.3518 51.0965 49.1183 51.0689C48.8848 51.0412 48.6488 51.0924 48.4478 51.2144C46.4765 52.4001 44.2192 53.0267 41.9185 53.0267C39.6178 53.0267 37.3605 52.4001 35.3892 51.2144C35.1882 51.0924 34.9522 51.0412 34.7188 51.0689C34.4853 51.0965 34.2678 51.2015 34.1009 51.367L28.7879 56.6778C28.6805 56.7849 28.5974 56.914 28.5445 57.0562C28.4916 57.1985 28.4701 57.3504 28.4815 57.5017C28.4928 57.653 28.5367 57.8001 28.6102 57.9328C28.6837 58.0656 28.7851 58.1809 28.9073 58.2708C32.6879 61.0204 37.2431 62.5016 41.9185 62.5016C46.594 62.5016 51.1491 61.0204 54.9298 58.2708C55.052 58.1809 55.1533 58.0656 55.2268 57.9328C55.3003 57.8001 55.3443 57.653 55.3556 57.5017C55.3669 57.3504 55.3454 57.1985 55.2925 57.0562C55.2396 56.914 55.1566 56.7849 55.0491 56.6778Z" fill="white" fill-opacity="0.01"/>
<path d="M41.9196 46.7015C45.4101 46.7015 48.2396 43.8719 48.2396 40.3815C48.2396 36.891 45.4101 34.0615 41.9196 34.0615C38.4292 34.0615 35.5996 36.891 35.5996 40.3815C35.5996 43.8719 38.4292 46.7015 41.9196 46.7015Z" fill="white" fill-opacity="0.01"/>
</g>
<g filter="url(#filter10_f_20_2301)">
<path d="M55.0494 24.0873C55.1569 23.9801 55.2399 23.851 55.2928 23.7087C55.3457 23.5664 55.3672 23.4144 55.3559 23.263C55.3446 23.1116 55.3006 22.9644 55.2271 22.8316C55.1536 22.6988 55.0523 22.5834 54.93 22.4934C50.9799 19.6196 46.1896 18.1342 41.3066 18.2692C36.4236 18.4042 31.7226 20.1518 27.9373 23.2395C26.7791 24.1823 25.7204 25.2411 24.7776 26.3992C21.6899 30.1845 19.9422 34.8855 19.8073 39.7685C19.6723 44.6515 21.1577 49.4419 24.0315 53.3919C24.1215 53.5142 24.2369 53.6155 24.3697 53.6891C24.5025 53.7626 24.6497 53.8065 24.801 53.8178C24.9524 53.8292 25.1045 53.8076 25.2468 53.7547C25.389 53.7018 25.5182 53.6188 25.6254 53.5113M49.7364 51.3662C49.5696 51.2007 49.3521 51.0957 49.1186 51.0681C48.8851 51.0404 48.6491 51.0916 48.4481 51.2136C46.4768 52.3993 44.2195 53.0259 41.9188 53.0259C39.6181 53.0259 37.3608 52.3993 35.3895 51.2136C35.1885 51.0916 34.9525 51.0404 34.7191 51.0681C34.4856 51.0957 34.2681 51.2007 34.1012 51.3662M48.2388 40.3808C48.2388 36.8903 45.4093 34.0608 41.9188 34.0608C38.4284 34.0608 35.5988 36.8903 35.5988 40.3808" stroke="white" stroke-width="1.6"/>
</g>
<path opacity="0.3" d="M56.0009 2.34082H24.0009C11.8286 2.34082 1.96094 12.2085 1.96094 24.3808V56.3808C1.96094 68.5532 11.8286 78.4208 24.0009 78.4208H56.0009C68.1733 78.4208 78.0409 68.5532 78.0409 56.3808V24.3808C78.0409 12.2085 68.1733 2.34082 56.0009 2.34082Z" stroke="white" stroke-width="3.92"/>
<g style="mix-blend-mode:soft-light">
<path d="M68 0.379883H12C5.37258 0.379883 0 5.75246 0 12.3799V68.3799C0 75.0073 5.37258 80.3799 12 80.3799H68C74.6274 80.3799 80 75.0073 80 68.3799V12.3799C80 5.75246 74.6274 0.379883 68 0.379883Z" fill="#BAB4F9"/>
</g>
<g style="mix-blend-mode:soft-light" opacity="0.5">
<path d="M68 0.379883H12C5.37258 0.379883 0 5.75246 0 12.3799V68.3799C0 75.0073 5.37258 80.3799 12 80.3799H68C74.6274 80.3799 80 75.0073 80 68.3799V12.3799C80 5.75246 74.6274 0.379883 68 0.379883Z" fill="url(#paint6_linear_20_2301)"/>
</g>
</g>
</g>
</g>
<defs>
<filter id="filter0_ii_20_2301" x="0" y="-1.70012" width="80" height="84.16" filterUnits="userSpaceOnUse" color-interpolation-filters="sRGB">
<feFlood flood-opacity="0" result="BackgroundImageFix"/>
<feBlend mode="normal" in="SourceGraphic" in2="BackgroundImageFix" result="shape"/>
<feColorMatrix in="SourceAlpha" type="matrix" values="0 0 0 0 0 0 0 0 0 0 0 0 0 0 0 0 0 0 127 0" result="hardAlpha"/>
<feOffset dy="-2.08"/>
<feGaussianBlur stdDeviation="2.16"/>
<feComposite in2="hardAlpha" operator="arithmetic" k2="-1" k3="1"/>
<feColorMatrix type="matrix" values="0 0 0 0 0.00888888 0 0 0 0 0.00694444 0 0 0 0 0.104167 0 0 0 0.24 0"/>
<feBlend mode="normal" in2="shape" result="effect1_innerShadow_20_2301"/>
<feColorMatrix in="SourceAlpha" type="matrix" values="0 0 0 0 0 0 0 0 0 0 0 0 0 0 0 0 0 0 127 0" result="hardAlpha"/>
<feOffset dy="2.08"/>
<feGaussianBlur stdDeviation="2.16"/>
<feComposite in2="hardAlpha" operator="arithmetic" k2="-1" k3="1"/>
<feColorMatrix type="matrix" values="0 0 0 0 1 0 0 0 0 1 0 0 0 0 1 0 0 0 0.24 0"/>
<feBlend mode="normal" in2="effect1_innerShadow_20_2301" result="effect2_innerShadow_20_2301"/>
</filter>
<filter id="filter1_f_20_2301" x="-9.16842" y="-52.3979" width="157.864" height="157.864" filterUnits="userSpaceOnUse" color-interpolation-filters="sRGB">
<feFlood flood-opacity="0" result="BackgroundImageFix"/>
<feBlend mode="normal" in="SourceGraphic" in2="BackgroundImageFix" result="shape"/>
<feGaussianBlur stdDeviation="29.1262" result="effect1_foregroundBlur_20_2301"/>
</filter>
<filter id="filter2_f_20_2301" x="-9.16842" y="-52.3979" width="157.864" height="157.864" filterUnits="userSpaceOnUse" color-interpolation-filters="sRGB">
<feFlood flood-opacity="0" result="BackgroundImageFix"/>
<feBlend mode="normal" in="SourceGraphic" in2="BackgroundImageFix" result="shape"/>
<feGaussianBlur stdDeviation="29.1262" result="effect1_foregroundBlur_20_2301"/>
</filter>
<filter id="filter3_f_20_2301" x="-8.25342" y="-13.6001" width="118.155" height="54.7568" filterUnits="userSpaceOnUse" color-interpolation-filters="sRGB">
<feFlood flood-opacity="0" result="BackgroundImageFix"/>
<feBlend mode="normal" in="SourceGraphic" in2="BackgroundImageFix" result="shape"/>
<feGaussianBlur stdDeviation="9.70874" result="effect1_foregroundBlur_20_2301"/>
</filter>
<filter id="filter4_f_20_2301" x="-66.6026" y="0.620079" width="152.822" height="119.262" filterUnits="userSpaceOnUse" color-interpolation-filters="sRGB">
<feFlood flood-opacity="0" result="BackgroundImageFix"/>
<feBlend mode="normal" in="SourceGraphic" in2="BackgroundImageFix" result="shape"/>
<feGaussianBlur stdDeviation="19.4175" result="effect1_foregroundBlur_20_2301"/>
</filter>
<filter id="filter5_f_20_2301" x="-9.51469" y="0.717735" width="152.822" height="119.262" filterUnits="userSpaceOnUse" color-interpolation-filters="sRGB">
<feFlood flood-opacity="0" result="BackgroundImageFix"/>
<feBlend mode="normal" in="SourceGraphic" in2="BackgroundImageFix" result="shape"/>
<feGaussianBlur stdDeviation="19.4175" result="effect1_foregroundBlur_20_2301"/>
</filter>
<filter id="filter6_f_20_2301" x="-36.4053" y="-4.91312" width="152.822" height="119.262" filterUnits="userSpaceOnUse" color-interpolation-filters="sRGB">
<feFlood flood-opacity="0" result="BackgroundImageFix"/>
<feBlend mode="normal" in="SourceGraphic" in2="BackgroundImageFix" result="shape"/>
<feGaussianBlur stdDeviation="19.4175" result="effect1_foregroundBlur_20_2301"/>
</filter>
<filter id="filter7_ddddddd_20_2301" x="11.8713" y="16.3358" width="51.4155" height="60.2255" filterUnits="userSpaceOnUse" color-interpolation-filters="sRGB">
<feFlood flood-opacity="0" result="BackgroundImageFix"/>
<feColorMatrix in="SourceAlpha" type="matrix" values="0 0 0 0 0 0 0 0 0 0 0 0 0 0 0 0 0 0 127 0" result="hardAlpha"/>
<feOffset dy="0.435442"/>
<feGaussianBlur stdDeviation="0.147929"/>
<feColorMatrix type="matrix" values="0 0 0 0 0.0576 0 0 0 0 0.2592 0 0 0 0 0.6624 0 0 0 0.04 0"/>
<feBlend mode="normal" in2="BackgroundImageFix" result="effect1_dropShadow_20_2301"/>
<feColorMatrix in="SourceAlpha" type="matrix" values="0 0 0 0 0 0 0 0 0 0 0 0 0 0 0 0 0 0 127 0" result="hardAlpha"/>
<feOffset dy="0.850362"/>
<feGaussianBlur stdDeviation="0.302628"/>
<feColorMatrix type="matrix" values="0 0 0 0 0.0588235 0 0 0 0 0.260131 0 0 0 0 0.662745 0 0 0 0.04 0"/>
<feBlend mode="normal" in2="effect1_dropShadow_20_2301" result="effect2_dropShadow_20_2301"/>
<feColorMatrix in="SourceAlpha" type="matrix" values="0 0 0 0 0 0 0 0 0 0 0 0 0 0 0 0 0 0 127 0" result="hardAlpha"/>
<feOffset dy="1.25668"/>
<feGaussianBlur stdDeviation="0.482688"/>
<feColorMatrix type="matrix" values="0 0 0 0 0.0588235 0 0 0 0 0.260131 0 0 0 0 0.662745 0 0 0 0.04 0"/>
<feBlend mode="normal" in2="effect2_dropShadow_20_2301" result="effect3_dropShadow_20_2301"/>
<feColorMatrix in="SourceAlpha" type="matrix" values="0 0 0 0 0 0 0 0 0 0 0 0 0 0 0 0 0 0 127 0" result="hardAlpha"/>
<feOffset dy="1.68422"/>
<feGaussianBlur stdDeviation="0.730936"/>
<feColorMatrix type="matrix" values="0 0 0 0 0.0588235 0 0 0 0 0.260131 0 0 0 0 0.662745 0 0 0 0.08 0"/>
<feBlend mode="normal" in2="effect3_dropShadow_20_2301" result="effect4_dropShadow_20_2301"/>
<feColorMatrix in="SourceAlpha" type="matrix" values="0 0 0 0 0 0 0 0 0 0 0 0 0 0 0 0 0 0 127 0" result="hardAlpha"/>
<feOffset dy="2.2154"/>
<feGaussianBlur stdDeviation="1.15126"/>
<feColorMatrix type="matrix" values="0 0 0 0 0.0588235 0 0 0 0 0.260131 0 0 0 0 0.662745 0 0 0 0.08 0"/>
<feBlend mode="normal" in2="effect4_dropShadow_20_2301" result="effect5_dropShadow_20_2301"/>
<feColorMatrix in="SourceAlpha" type="matrix" values="0 0 0 0 0 0 0 0 0 0 0 0 0 0 0 0 0 0 127 0" result="hardAlpha"/>
<feOffset dy="3.13928"/>
<feGaussianBlur stdDeviation="1.96963"/>
<feColorMatrix type="matrix" values="0 0 0 0 0.258824 0 0 0 0 0.0588235 0 0 0 0 0.662745 0 0 0 0.12 0"/>
<feBlend mode="normal" in2="effect5_dropShadow_20_2301" result="effect6_dropShadow_20_2301"/>
<feColorMatrix in="SourceAlpha" type="matrix" values="0 0 0 0 0 0 0 0 0 0 0 0 0 0 0 0 0 0 127 0" result="hardAlpha"/>
<feOffset dy="6.13183"/>
<feGaussianBlur stdDeviation="3.40125"/>
<feColorMatrix type="matrix" values="0 0 0 0 0.258824 0 0 0 0 0.0588235 0 0 0 0 0.662745 0 0 0 0.24 0"/>
<feBlend mode="normal" in2="effect6_dropShadow_20_2301" result="effect7_dropShadow_20_2301"/>
<feBlend mode="normal" in="SourceGraphic" in2="effect7_dropShadow_20_2301" result="shape"/>
</filter>
<filter id="filter8_iii_20_2301" x="17.4994" y="16.5362" width="37.86" height="45.9658" filterUnits="userSpaceOnUse" color-interpolation-filters="sRGB">
<feFlood flood-opacity="0" result="BackgroundImageFix"/>
<feBlend mode="normal" in="SourceGraphic" in2="BackgroundImageFix" result="shape"/>
<feColorMatrix in="SourceAlpha" type="matrix" values="0 0 0 0 0 0 0 0 0 0 0 0 0 0 0 0 0 0 127 0" result="hardAlpha"/>
<feOffset dx="-0.19162" dy="-0.114686"/>
<feGaussianBlur stdDeviation="0.127429"/>
<feComposite in2="hardAlpha" operator="arithmetic" k2="-1" k3="1"/>
<feColorMatrix type="matrix" values="0 0 0 0 0.044 0 0 0 0 0.148 0 0 0 0 0.356 0 0 0 0.06 0"/>
<feBlend mode="normal" in2="shape" result="effect1_innerShadow_20_2301"/>
<feColorMatrix in="SourceAlpha" type="matrix" values="0 0 0 0 0 0 0 0 0 0 0 0 0 0 0 0 0 0 127 0" result="hardAlpha"/>
<feOffset dx="-0.574859" dy="-0.385207"/>
<feGaussianBlur stdDeviation="0.428008"/>
<feComposite in2="hardAlpha" operator="arithmetic" k2="-1" k3="1"/>
<feColorMatrix type="matrix" values="0 0 0 0 0.0431373 0 0 0 0 0.147712 0 0 0 0 0.356863 0 0 0 0.0953772 0"/>
<feBlend mode="normal" in2="effect1_innerShadow_20_2301" result="effect2_innerShadow_20_2301"/>
<feColorMatrix in="SourceAlpha" type="matrix" values="0 0 0 0 0 0 0 0 0 0 0 0 0 0 0 0 0 0 127 0" result="hardAlpha"/>
<feOffset dx="-2.29944" dy="-1.72458"/>
<feGaussianBlur stdDeviation="1.9162"/>
<feComposite in2="hardAlpha" operator="arithmetic" k2="-1" k3="1"/>
<feColorMatrix type="matrix" values="0 0 0 0 0.0431373 0 0 0 0 0.147712 0 0 0 0 0.356863 0 0 0 0.16 0"/>
<feBlend mode="normal" in2="effect2_innerShadow_20_2301" result="effect3_innerShadow_20_2301"/>
</filter>
<filter id="filter9_iii_20_2301" x="17.4994" y="16.5362" width="37.86" height="45.9658" filterUnits="userSpaceOnUse" color-interpolation-filters="sRGB">
<feFlood flood-opacity="0" result="BackgroundImageFix"/>
<feBlend mode="normal" in="SourceGraphic" in2="BackgroundImageFix" result="shape"/>
<feColorMatrix in="SourceAlpha" type="matrix" values="0 0 0 0 0 0 0 0 0 0 0 0 0 0 0 0 0 0 127 0" result="hardAlpha"/>
<feOffset dx="-0.19162" dy="-0.114686"/>
<feGaussianBlur stdDeviation="0.127429"/>
<feComposite in2="hardAlpha" operator="arithmetic" k2="-1" k3="1"/>
<feColorMatrix type="matrix" values="0 0 0 0 0.044 0 0 0 0 0.148 0 0 0 0 0.356 0 0 0 0.06 0"/>
<feBlend mode="normal" in2="shape" result="effect1_innerShadow_20_2301"/>
<feColorMatrix in="SourceAlpha" type="matrix" values="0 0 0 0 0 0 0 0 0 0 0 0 0 0 0 0 0 0 127 0" result="hardAlpha"/>
<feOffset dx="-0.574859" dy="-0.385207"/>
<feGaussianBlur stdDeviation="0.428008"/>
<feComposite in2="hardAlpha" operator="arithmetic" k2="-1" k3="1"/>
<feColorMatrix type="matrix" values="0 0 0 0 0.0431373 0 0 0 0 0.147712 0 0 0 0 0.356863 0 0 0 0.0953772 0"/>
<feBlend mode="normal" in2="effect1_innerShadow_20_2301" result="effect2_innerShadow_20_2301"/>
<feColorMatrix in="SourceAlpha" type="matrix" values="0 0 0 0 0 0 0 0 0 0 0 0 0 0 0 0 0 0 127 0" result="hardAlpha"/>
<feOffset dx="-2.29944" dy="-1.72458"/>
<feGaussianBlur stdDeviation="1.9162"/>
<feComposite in2="hardAlpha" operator="arithmetic" k2="-1" k3="1"/>
<feColorMatrix type="matrix" values="0 0 0 0 0.0431373 0 0 0 0 0.147712 0 0 0 0 0.356863 0 0 0 0.16 0"/>
<feBlend mode="normal" in2="effect2_innerShadow_20_2301" result="effect3_innerShadow_20_2301"/>
</filter>
<filter id="filter10_f_20_2301" x="10.998" y="9.46094" width="53.1602" height="53.1602" filterUnits="userSpaceOnUse" color-interpolation-filters="sRGB">
<feFlood flood-opacity="0" result="BackgroundImageFix"/>
<feBlend mode="normal" in="SourceGraphic" in2="BackgroundImageFix" result="shape"/>
<feGaussianBlur stdDeviation="4" result="effect1_foregroundBlur_20_2301"/>
</filter>
<radialGradient id="paint0_radial_20_2301" cx="0" cy="0" r="1" gradientUnits="userSpaceOnUse" gradientTransform="translate(64.54 2.49987) rotate(120.701) scale(140.003)">
<stop stop-color="#17CCFC"/>
<stop offset="0.5" stop-color="#5D31FF"/>
<stop offset="1" stop-color="#F35AFF"/>
</radialGradient>
<radialGradient id="paint1_radial_20_2301" cx="0" cy="0" r="1" gradientUnits="userSpaceOnUse" gradientTransform="translate(21.38 10.0599) rotate(52.5889) scale(46.5821)">
<stop stop-color="white"/>
<stop offset="1" stop-color="white" stop-opacity="0"/>
</radialGradient>
<linearGradient id="paint2_linear_20_2301" x1="47.3" y1="82.6199" x2="68.32" y2="8.95989" gradientUnits="userSpaceOnUse">
<stop stop-color="#A39DFF"/>
<stop offset="1" stop-color="#6C47FF"/>
</linearGradient>
<linearGradient id="paint3_linear_20_2301" x1="37.5788" y1="18.2608" x2="37.5788" y2="62.5008" gradientUnits="userSpaceOnUse">
<stop stop-color="white"/>
<stop offset="1" stop-color="white" stop-opacity="0"/>
</linearGradient>
<linearGradient id="paint4_linear_20_2301" x1="37.5785" y1="18.2616" x2="37.5785" y2="62.5016" gradientUnits="userSpaceOnUse">
<stop stop-color="white"/>
<stop offset="1" stop-color="white" stop-opacity="0"/>
</linearGradient>
<linearGradient id="paint5_linear_20_2301" x1="37.5796" y1="18.2615" x2="37.5796" y2="62.5015" gradientUnits="userSpaceOnUse">
<stop stop-color="white"/>
<stop offset="1" stop-color="white" stop-opacity="0"/>
</linearGradient>
<linearGradient id="paint6_linear_20_2301" x1="7.81553" y1="-14.0861" x2="69.8058" y2="80.3799" gradientUnits="userSpaceOnUse">
<stop stop-color="white"/>
<stop offset="1"/>
</linearGradient>
<clipPath id="clip0_20_2301">
<rect width="80" height="80" fill="white" transform="translate(0 0.379883)"/>
</clipPath>
</defs>
</svg>
