<svg width="144" height="52" viewBox="0 0 144 52" fill="none" xmlns="http://www.w3.org/2000/svg">
<path d="M34.4062 26.1521C34.4062 22.4565 37.4034 19.4717 41.1141 19.4717C42.6841 19.4717 44.1398 20.0117 45.2816 20.9215L43.4833 23.5936C42.8553 22.9967 42.0276 22.6555 41.1141 22.6555C39.1732 22.6555 37.6317 24.219 37.6317 26.1237C37.6317 28.0283 39.1732 29.5918 41.1141 29.5918C42.0276 29.5918 42.8839 29.2507 43.4833 28.6537L45.4243 31.2122C44.254 32.2071 42.7412 32.8041 41.0856 32.8041C37.4034 32.8041 34.4062 29.8192 34.4062 26.1521Z" fill="#626B7F"/>
<path d="M58.4418 19.8976V32.3772H55.4446L55.3019 31.0127C54.3314 32.1782 52.9613 32.8036 51.3057 32.8036C47.4523 32.8036 45.1973 29.4207 45.1973 26.1516C45.1973 22.4844 47.7948 19.4712 51.3343 19.4712C52.9328 19.4712 54.3314 20.0681 55.3019 21.2336L55.4446 19.8692H58.4418V19.8976ZM55.2448 26.1231C55.2448 23.9911 53.6463 22.6834 51.8766 22.6834C49.9356 22.6834 48.4514 24.2753 48.4514 26.0947C48.4514 27.9141 49.7929 29.5913 51.8766 29.5913C53.7606 29.5913 55.2448 28.1699 55.2448 26.1231ZM71.7719 25.6399V32.4056H68.5464V25.6399C68.5464 23.4509 67.7186 22.6834 66.1201 22.6834C64.5217 22.6834 63.5798 23.7637 63.5798 25.6399V32.4056H60.3828V19.8976H63.38L63.4941 21.1484C64.4075 20.1818 65.6634 19.5848 67.1763 19.5848C69.6026 19.5848 71.7719 20.7503 71.7719 25.6399ZM86.1299 15.207V32.3772H83.1897L83.0465 31.0127C82.0763 32.1782 80.7062 32.8036 79.0507 32.8036C75.1687 32.8036 72.9422 29.4207 72.9422 26.1516C72.9422 22.4844 75.5397 19.4712 79.0792 19.4712C80.6494 19.4712 82.0195 20.0397 82.9897 21.1484V15.207H86.1299ZM82.9897 26.1231C82.9897 23.9911 81.3916 22.6834 79.6216 22.6834C77.6805 22.6834 76.1962 24.2753 76.1962 26.0947C76.1962 27.9141 77.5378 29.5913 79.6216 29.5913C81.534 29.5913 82.9897 28.1699 82.9897 26.1231ZM87.3281 26.1516C87.3281 22.4844 90.3259 19.4996 94.0364 19.4996C97.7468 19.4996 100.716 22.4844 100.716 26.1516C100.716 29.8187 97.7188 32.8036 94.0364 32.8036C90.3539 32.8036 87.3281 29.8187 87.3281 26.1516ZM97.4901 26.1516C97.4901 24.2469 95.9488 22.6834 94.0364 22.6834C92.1239 22.6834 90.5538 24.2469 90.5538 26.1516C90.5538 28.0562 92.0951 29.6197 94.0364 29.6197C95.9488 29.5913 97.4901 28.0562 97.4901 26.1516ZM109.593 19.3574L109.079 22.8824H108.651C107.252 22.8824 105.169 23.4225 105.169 27.2034V32.4056H101.943V19.8976H104.94L105.112 21.5747C106.339 19.9828 108.08 19.3859 109.593 19.3574Z" fill="#626B7F"/>
</svg>
