<svg width="56" height="57" viewBox="0 0 56 57" fill="none" xmlns="http://www.w3.org/2000/svg">
<g clip-path="url(#clip0_20_1890)">
<path d="M55.0338 28.5609C55.0338 13.6301 42.9301 1.52637 27.9993 1.52637C13.0686 1.52637 0.964844 13.6301 0.964844 28.5609C0.964844 43.4916 13.0686 55.5953 27.9993 55.5953C42.9301 55.5953 55.0338 43.4916 55.0338 28.5609Z" fill="#0E0C35" fill-opacity="0.4"/>
<path d="M55.0338 28.5609C55.0338 13.6301 42.9301 1.52637 27.9993 1.52637C13.0686 1.52637 0.964844 13.6301 0.964844 28.5609C0.964844 43.4916 13.0686 55.5953 27.9993 55.5953C42.9301 55.5953 55.0338 43.4916 55.0338 28.5609Z" fill="url(#paint0_linear_20_1890)" fill-opacity="0.1"/>
<path d="M55.0338 28.5609C55.0338 13.6301 42.9301 1.52637 27.9993 1.52637C13.0686 1.52637 0.964844 13.6301 0.964844 28.5609C0.964844 43.4916 13.0686 55.5953 27.9993 55.5953C42.9301 55.5953 55.0338 43.4916 55.0338 28.5609Z" fill="url(#paint1_radial_20_1890)" fill-opacity="0.24"/>
<path opacity="0.06" d="M20.2764 40.1464H8.69019M20.2764 40.1464V28.5602M20.2764 40.1464H7.72468M20.2764 40.1464V50.2843M20.2764 40.1464H35.7247M20.2764 28.5602V16.9739M20.2764 28.5602H4.82812M20.2764 28.5602L35.7247 28.5601M35.7247 40.1464V28.5601M35.7247 40.1464H48.0729M35.7247 40.1464V50.2843M20.2764 16.9739H7.72468M20.2764 16.9739V6.83597M20.2764 16.9739H35.7247M4.82812 28.5602C4.82812 15.7624 15.2028 5.3877 28.0005 5.3877C36.5776 5.3877 44.0663 10.0476 48.0729 16.9739M4.82812 28.5602C4.82812 41.3579 15.2028 51.7326 28.0005 51.7326C36.5776 51.7326 44.0663 47.0726 48.0729 40.1464M35.7247 28.5601V16.9739M35.7247 28.5601H51.173M35.7247 16.9739H47.3109H48.0729M35.7247 16.9739V6.83597M48.0729 16.9739H48.2764M48.0729 16.9739C50.0446 20.3822 51.173 24.3394 51.173 28.5601M48.0729 40.1464C50.0446 36.738 51.173 32.7808 51.173 28.5601M48.0729 40.1464H48.2764" stroke="url(#paint2_radial_20_1890)" stroke-width="0.965517"/>
<path d="M37.1599 17.1814L33.4516 20.8897C33.335 21.0061 33.1828 21.08 33.0192 21.0996C32.8557 21.1191 32.6903 21.0832 32.5496 20.9975C31.0909 20.1176 29.4086 19.6786 27.7059 19.734C26.0031 19.7892 24.3527 20.3361 22.9541 21.3088C22.0939 21.9076 21.347 22.6544 20.7482 23.5147C19.7767 24.9141 19.2303 26.5646 19.1746 28.2674C19.1189 29.9702 19.5564 31.6527 20.4346 33.1126C20.5195 33.2531 20.5551 33.4179 20.5355 33.581C20.516 33.744 20.4425 33.8958 20.3267 34.0121L16.6183 37.7205C16.5437 37.7956 16.4536 37.8538 16.3545 37.8909C16.2552 37.9281 16.1491 37.9433 16.0435 37.9356C15.9378 37.928 15.835 37.8975 15.7421 37.8464C15.6494 37.7953 15.5686 37.7247 15.5057 37.6396C13.4992 34.8817 12.4623 31.5371 12.5567 28.128C12.6512 24.7187 13.8716 21.4367 16.0277 18.7941C16.6859 17.9856 17.425 17.2465 18.2336 16.5883C20.8759 14.4329 24.1575 13.2127 27.5662 13.1182C30.9748 13.0238 34.3189 14.0604 37.0766 16.0662C37.1623 16.129 37.2334 16.2097 37.285 16.3026C37.3365 16.3956 37.3674 16.4986 37.3753 16.6046C37.3832 16.7106 37.3681 16.817 37.3309 16.9167C37.2936 17.0162 37.2353 17.1066 37.1599 17.1814Z" fill="url(#paint3_linear_20_1890)"/>
<path d="M37.161 39.9263L33.4526 36.218C33.3361 36.1016 33.1838 36.0277 33.0202 36.0081C32.8568 35.9886 32.6914 36.0245 32.5507 36.1102C31.1752 36.9398 29.5994 37.3784 27.9931 37.3784C26.3869 37.3784 24.8109 36.9398 23.4356 36.1102C23.2949 36.0245 23.1295 35.9886 22.9659 36.0081C22.8024 36.0277 22.6501 36.1016 22.5336 36.218L18.8253 39.9263C18.7475 40.0011 18.6871 40.092 18.6485 40.1927C18.6098 40.2934 18.5938 40.4014 18.6015 40.509C18.6092 40.6165 18.6405 40.7212 18.6931 40.8153C18.7458 40.9095 18.8185 40.9909 18.9062 41.0537C21.5458 42.9743 24.7263 44.0089 27.9907 44.0089C31.2551 44.0089 34.4355 42.9743 37.0751 41.0537C37.1631 40.9912 37.2363 40.9101 37.2894 40.8162C37.3425 40.7222 37.3742 40.6178 37.3825 40.5101C37.3907 40.4026 37.375 40.2944 37.3367 40.1935C37.2985 40.0926 37.2384 40.0014 37.161 39.9263Z" fill="url(#paint4_linear_20_1890)"/>
<path d="M27.9938 32.9661C30.4303 32.9661 32.4055 30.9909 32.4055 28.5543C32.4055 26.1178 30.4303 24.1426 27.9938 24.1426C25.5572 24.1426 23.582 26.1178 23.582 28.5543C23.582 30.9909 25.5572 32.9661 27.9938 32.9661Z" fill="url(#paint5_linear_20_1890)"/>
<path d="M37.1599 17.1814L33.4516 20.8897C33.335 21.0061 33.1828 21.08 33.0192 21.0996C32.8557 21.1191 32.6903 21.0832 32.5496 20.9975C31.0909 20.1176 29.4086 19.6786 27.7059 19.734C26.0031 19.7892 24.3527 20.3361 22.9541 21.3088C22.0939 21.9076 21.347 22.6544 20.7482 23.5147C19.7767 24.9141 19.2303 26.5646 19.1746 28.2674C19.1189 29.9702 19.5564 31.6527 20.4346 33.1126C20.5195 33.2531 20.5551 33.4179 20.5355 33.581C20.516 33.744 20.4425 33.8958 20.3267 34.0121L16.6183 37.7205C16.5437 37.7956 16.4536 37.8538 16.3545 37.8909C16.2552 37.9281 16.1491 37.9433 16.0435 37.9356C15.9378 37.928 15.835 37.8975 15.7421 37.8464C15.6494 37.7953 15.5686 37.7247 15.5057 37.6396C13.4992 34.8817 12.4623 31.5371 12.5567 28.128C12.6512 24.7187 13.8716 21.4367 16.0277 18.7941C16.6859 17.9856 17.425 17.2465 18.2336 16.5883C20.8759 14.4329 24.1575 13.2127 27.5662 13.1182C30.9748 13.0238 34.3189 14.0604 37.0766 16.0662C37.1623 16.129 37.2334 16.2097 37.285 16.3026C37.3365 16.3956 37.3674 16.4986 37.3753 16.6046C37.3832 16.7106 37.3681 16.817 37.3309 16.9167C37.2936 17.0162 37.2353 17.1066 37.1599 17.1814Z" stroke="#938ABF" stroke-width="0.965517"/>
<path d="M37.161 39.9263L33.4526 36.218C33.3361 36.1016 33.1838 36.0277 33.0202 36.0081C32.8568 35.9886 32.6914 36.0245 32.5507 36.1102C31.1752 36.9398 29.5994 37.3784 27.9931 37.3784C26.3869 37.3784 24.8109 36.9398 23.4356 36.1102C23.2949 36.0245 23.1295 35.9886 22.9659 36.0081C22.8024 36.0277 22.6501 36.1016 22.5336 36.218L18.8253 39.9263C18.7475 40.0011 18.6871 40.092 18.6485 40.1927C18.6098 40.2934 18.5938 40.4014 18.6015 40.509C18.6092 40.6165 18.6405 40.7212 18.6931 40.8153C18.7458 40.9095 18.8185 40.9909 18.9062 41.0537C21.5458 42.9743 24.7263 44.0089 27.9907 44.0089C31.2551 44.0089 34.4355 42.9743 37.0751 41.0537C37.1631 40.9912 37.2363 40.9101 37.2894 40.8162C37.3425 40.7222 37.3742 40.6178 37.3825 40.5101C37.3907 40.4026 37.375 40.2944 37.3367 40.1935C37.2985 40.0926 37.2384 40.0014 37.161 39.9263Z" stroke="#938ABF" stroke-width="0.965517"/>
<path d="M27.9938 32.9661C30.4303 32.9661 32.4055 30.9909 32.4055 28.5543C32.4055 26.1178 30.4303 24.1426 27.9938 24.1426C25.5572 24.1426 23.582 26.1178 23.582 28.5543C23.582 30.9909 25.5572 32.9661 27.9938 32.9661Z" stroke="#938ABF" stroke-width="0.965517"/>
<path d="M55.0338 28.5609C55.0338 13.6301 42.9301 1.52637 27.9993 1.52637C13.0686 1.52637 0.964844 13.6301 0.964844 28.5609C0.964844 43.4916 13.0686 55.5953 27.9993 55.5953C42.9301 55.5953 55.0338 43.4916 55.0338 28.5609Z" stroke="white" stroke-opacity="0.1" stroke-width="0.965517"/>
</g>
<defs>
<linearGradient id="paint0_linear_20_1890" x1="27.9993" y1="-28.8874" x2="27.9993" y2="85.5264" gradientUnits="userSpaceOnUse">
<stop stop-color="#B6A3FF"/>
<stop offset="1" stop-color="#B6A3FF" stop-opacity="0"/>
</linearGradient>
<radialGradient id="paint1_radial_20_1890" cx="0" cy="0" r="1" gradientUnits="userSpaceOnUse" gradientTransform="translate(27.9993 53.6643) rotate(90) scale(33.7931)">
<stop stop-color="#B6A3FF"/>
<stop offset="1" stop-color="#B6A3FF" stop-opacity="0"/>
</radialGradient>
<radialGradient id="paint2_radial_20_1890" cx="0" cy="0" r="1" gradientUnits="userSpaceOnUse" gradientTransform="translate(28.0005 28.5602) rotate(-90) scale(40.5517)">
<stop offset="0.156794" stop-color="white" stop-opacity="0"/>
<stop offset="0.527439" stop-color="white"/>
<stop offset="1" stop-color="white" stop-opacity="0"/>
</radialGradient>
<linearGradient id="paint3_linear_20_1890" x1="35.7232" y1="13.1123" x2="15.9301" y2="50.7675" gradientUnits="userSpaceOnUse">
<stop stop-color="#B6A3FF"/>
<stop offset="1" stop-color="#B6A3FF" stop-opacity="0"/>
</linearGradient>
<linearGradient id="paint4_linear_20_1890" x1="35.7249" y1="13.1121" x2="15.9318" y2="50.7673" gradientUnits="userSpaceOnUse">
<stop stop-color="#B6A3FF"/>
<stop offset="1" stop-color="#B6A3FF" stop-opacity="0"/>
</linearGradient>
<linearGradient id="paint5_linear_20_1890" x1="35.7239" y1="13.1127" x2="15.9308" y2="50.7679" gradientUnits="userSpaceOnUse">
<stop stop-color="#B6A3FF"/>
<stop offset="1" stop-color="#B6A3FF" stop-opacity="0"/>
</linearGradient>
<clipPath id="clip0_20_1890">
<rect width="56" height="56" fill="white" transform="translate(0 0.560547)"/>
</clipPath>
</defs>
</svg>
