<svg width="56" height="167" viewBox="0 0 56 167" fill="none" xmlns="http://www.w3.org/2000/svg">
<g clip-path="url(#clip0_20_1460)">
<path d="M28.001 0.853516C43.1897 0.853516 55.5097 13.1735 55.5097 28.3623C55.5097 43.5511 43.1897 55.8711 28.001 55.8711C12.8122 55.8711 0.492188 43.5511 0.492188 28.3623C0.492188 13.1735 12.8122 0.853516 28.001 0.853516Z" fill="white" stroke="#F0F4F9" stroke-width="0.982456"/>
<path d="M28.0003 20.5029C32.3427 20.5029 35.8599 24.0201 35.8599 28.3626C35.8599 32.705 32.3427 36.2222 28.0003 36.2222C23.6578 36.2222 20.1406 32.705 20.1406 28.3626C20.1406 24.0201 23.6578 20.5029 28.0003 20.5029Z" fill="white" stroke="#6C47FF" stroke-width="0.982456"/>
<path d="M43.7203 110.889H12.2817C5.77051 110.889 0.492188 116.167 0.492188 122.678V154.117C0.492188 160.628 5.77051 165.906 12.2817 165.906H43.7203C50.2314 165.906 55.5097 160.628 55.5097 154.117V122.678C55.5097 116.167 50.2314 110.889 43.7203 110.889Z" fill="white" stroke="#F0F4F9" stroke-width="0.982456"/>
<mask id="mask0_20_1460" style="mask-type:luminance" maskUnits="userSpaceOnUse" x="12" y="122" width="32" height="33">
<path d="M43.7198 122.678H12.2812V154.116H43.7198V122.678Z" fill="white"/>
</mask>
<g mask="url(#mask0_20_1460)">
<path d="M28.0004 126.607C28.0004 126.607 28.0004 138.397 39.7899 138.397C39.7899 138.397 28.0004 138.397 28.0004 150.186C28.0004 150.186 28.0004 138.397 16.2109 138.397C16.2109 138.397 28.0004 138.397 28.0004 126.607Z" stroke="#6C47FF" stroke-width="0.982456" stroke-miterlimit="10"/>
<path d="M28 122.678V126.608" stroke="#6C47FF" stroke-width="0.982456" stroke-miterlimit="10"/>
<path d="M43.7189 138.397H39.7891" stroke="#6C47FF" stroke-width="0.982456" stroke-miterlimit="10"/>
<path d="M28 154.116V150.187" stroke="#6C47FF" stroke-width="0.982456" stroke-miterlimit="10"/>
<path d="M12.2812 138.397H16.2111" stroke="#6C47FF" stroke-width="0.982456" stroke-miterlimit="10"/>
</g>
<path d="M28.001 55.8711C43.1897 55.8711 55.5097 68.1911 55.5097 83.3799C55.5097 98.5686 43.1897 110.889 28.001 110.889C12.8122 110.889 0.492188 98.5686 0.492188 83.3799C0.492188 68.1911 12.8122 55.8711 28.001 55.8711Z" stroke="#F0F4F9" stroke-width="0.982456"/>
</g>
<defs>
<clipPath id="clip0_20_1460">
<rect width="56" height="166.035" fill="white" transform="translate(0 0.362305)"/>
</clipPath>
</defs>
</svg>
