<svg width="130" height="48" viewBox="0 0 130 48" fill="none" xmlns="http://www.w3.org/2000/svg">
<g clip-path="url(#clip0_20_1558)">
<path fill-rule="evenodd" clip-rule="evenodd" d="M45.3537 27.9599C45.7713 26.7303 45.9978 25.4116 45.9978 24.0397C45.9978 17.344 40.6005 11.916 33.9426 11.916C33.0377 11.916 32.1561 12.0163 31.3082 12.2063C31.2792 12.2128 31.2503 12.2194 31.2214 12.2261C25.8748 13.4673 21.8887 18.2853 21.8887 24.0394C21.8887 25.5691 22.1704 27.0326 22.6845 28.3803L25.6339 23.8691L26.3043 22.8436L26.9813 23.8648L28.5861 26.2857L33.2716 19.2173L33.9386 18.2113L34.6129 19.2123L39.3802 26.2897L41.1059 23.6652L41.771 22.6538L42.4483 23.657L45.3537 27.9599ZM44.5926 29.7255L41.7888 25.573L40.3602 27.7456L43.1389 31.8791C43.6964 31.2184 44.1847 30.4967 44.5926 29.7255ZM41.988 33.0687L38.7193 28.2063L38.719 28.2056L33.9493 21.1248L29.5632 27.7414L35.3199 36.0851C35.7493 36.036 36.1717 35.9643 36.5862 35.871C36.6715 35.8519 36.7563 35.8318 36.8409 35.8108C38.7853 35.3283 40.5438 34.3711 41.988 33.0687ZM27.9223 28.2138L33.3985 36.151C29.1629 35.9613 25.4957 33.5736 23.4976 30.0946L26.3137 25.7874L27.9138 28.2013L27.9179 28.2076L27.9223 28.2138Z" fill="#626B7F"/>
<path d="M52.7949 35.4122V17.4088H55.2699V19.5314H55.4818C55.6288 19.2586 55.8407 18.9431 56.1176 18.5851C56.3944 18.2271 56.7787 17.9145 57.2703 17.6475C57.7619 17.3746 58.4117 17.2383 59.2199 17.2383C60.2709 17.2383 61.2088 17.5054 62.0339 18.0396C62.859 18.5738 63.5061 19.3438 63.975 20.3497C64.4494 21.3555 64.687 22.566 64.687 23.9811C64.687 25.3961 64.4524 26.6094 63.9835 27.621C63.5145 28.6268 62.8701 29.4025 62.0508 29.9481C61.2316 30.488 60.2963 30.7579 59.2453 30.7579C58.4543 30.7579 57.8071 30.6243 57.3042 30.3573C56.807 30.0902 56.4171 29.7776 56.1345 29.4196C55.8519 29.0616 55.6344 28.7433 55.4818 28.4648H55.3292V35.4122H52.7949ZM55.2784 23.9554C55.2784 24.8761 55.4112 25.683 55.6768 26.3763C55.9424 27.0697 56.3266 27.6124 56.8296 28.0045C57.3325 28.391 57.9484 28.5842 58.6772 28.5842C59.4344 28.5842 60.0675 28.3824 60.5761 27.9789C61.0847 27.5698 61.4688 27.0157 61.7287 26.3167C61.9943 25.6177 62.1272 24.8306 62.1272 23.9554C62.1272 23.0917 61.9972 22.3159 61.7372 21.6283C61.4831 20.9407 61.0986 20.398 60.5845 20.0001C60.0759 19.6024 59.4403 19.4035 58.6772 19.4035C57.9427 19.4035 57.3212 19.5938 56.8126 19.9746C56.3097 20.3554 55.9283 20.8867 55.6683 21.5687C55.4084 22.2506 55.2784 23.0462 55.2784 23.9554ZM71.3153 30.792C70.4905 30.792 69.7443 30.6385 69.0774 30.3317C68.4109 30.0191 67.8825 29.5673 67.4925 28.9763C67.1085 28.3852 66.916 27.6607 66.916 26.8026C66.916 26.0638 67.0574 25.4558 67.3401 24.9784C67.6226 24.501 68.0041 24.1231 68.4844 23.8446C68.9647 23.5662 69.5016 23.3559 70.0946 23.2139C70.6881 23.0718 71.2929 22.9638 71.9087 22.8899C72.6885 22.799 73.3212 22.7251 73.8072 22.6683C74.2932 22.6058 74.6464 22.5063 74.8666 22.3699C75.0876 22.2336 75.1974 22.0119 75.1974 21.705V21.6454C75.1974 20.9009 74.9887 20.3241 74.5705 19.9149C74.1574 19.5057 73.5414 19.3012 72.7225 19.3012C71.869 19.3012 71.1966 19.4916 70.705 19.8723C70.2191 20.2473 69.8827 20.6651 69.6962 21.1254L67.3144 20.5798C67.5972 19.7842 68.0096 19.142 68.552 18.6533C69.1003 18.1589 69.7304 17.8009 70.4424 17.5792C71.1544 17.352 71.9031 17.2383 72.6885 17.2383C73.2085 17.2383 73.7595 17.3008 74.3416 17.4258C74.9287 17.5451 75.4776 17.7668 75.986 18.0908C76.5002 18.4147 76.9205 18.8778 77.2484 19.4802C77.5763 20.0769 77.7402 20.8526 77.7402 21.8073V30.5021H75.2653V28.712H75.1635C74.9995 29.0416 74.754 29.3656 74.4261 29.6838C74.0982 30.0021 73.6772 30.2663 73.163 30.4766C72.6488 30.6869 72.0331 30.792 71.3153 30.792ZM71.8664 28.7461C72.5672 28.7461 73.1659 28.6069 73.6635 28.3284C74.1661 28.05 74.5474 27.6862 74.8074 27.2373C75.0732 26.7827 75.2061 26.2968 75.2061 25.7797V24.0918C75.1158 24.1828 74.9403 24.2681 74.6803 24.3476C74.4261 24.4214 74.1351 24.4868 73.8072 24.5436C73.4793 24.5948 73.1601 24.6431 72.8496 24.6885C72.539 24.7284 72.279 24.7625 72.0699 24.7908C71.5781 24.8534 71.1287 24.9585 70.7219 25.1062C70.3208 25.254 69.9988 25.4671 69.7557 25.7456C69.5185 26.0183 69.3999 26.382 69.3999 26.8367C69.3999 27.4675 69.6316 27.9449 70.0946 28.2688C70.5581 28.587 71.1485 28.7461 71.8664 28.7461ZM83.6506 22.728V30.5021H81.1157V17.4088H83.5488V19.5399H83.7098C84.0088 18.8465 84.4782 18.2896 85.1166 17.8691C85.7608 17.4486 86.5718 17.2383 87.5497 17.2383C88.4365 17.2383 89.2136 17.4258 89.8802 17.8009C90.5468 18.1703 91.0639 18.7215 91.4314 19.4546C91.799 20.1877 91.9825 21.0941 91.9825 22.1739V30.5021H89.4476V22.4808C89.4476 21.5318 89.2021 20.7901 88.7102 20.2559C88.2192 19.716 87.5432 19.4461 86.6845 19.4461C86.0974 19.4461 85.5745 19.574 85.1166 19.8297C84.6645 20.0854 84.3056 20.4605 84.0406 20.9549C83.7806 21.4436 83.6506 22.0346 83.6506 22.728ZM100.865 30.7664C99.6449 30.7664 98.5797 30.4852 97.6697 29.9225C96.7605 29.3599 96.0534 28.5728 95.5508 27.5612C95.0482 26.5497 94.7961 25.3677 94.7961 24.0151C94.7961 22.6569 95.0482 21.4692 95.5508 20.4519C96.0534 19.4347 96.7605 18.6448 97.6697 18.0822C98.5797 17.5196 99.6449 17.2383 100.865 17.2383C102.086 17.2383 103.151 17.5196 104.061 18.0822C104.971 18.6448 105.677 19.4347 106.18 20.4519C106.683 21.4692 106.934 22.6569 106.934 24.0151C106.934 25.3677 106.683 26.5497 106.18 27.5612C105.677 28.5728 104.971 29.3599 104.061 29.9225C103.151 30.4852 102.086 30.7664 100.865 30.7664ZM100.874 28.6268C101.665 28.6268 102.321 28.4165 102.841 27.996C103.361 27.5755 103.744 27.0157 103.993 26.3167C104.247 25.6177 104.374 24.8477 104.374 24.0066C104.374 23.1713 104.247 22.404 103.993 21.705C103.744 21.0004 103.361 20.4349 102.841 20.0087C102.321 19.5825 101.665 19.3694 100.874 19.3694C100.077 19.3694 99.416 19.5825 98.8902 20.0087C98.3702 20.4349 97.9831 21.0004 97.7296 21.705C97.4805 22.404 97.3563 23.1713 97.3563 24.0066C97.3563 24.8477 97.4805 25.6177 97.7296 26.3167C97.9831 27.0157 98.3702 27.5755 98.8902 27.996C99.416 28.4165 100.077 28.6268 100.874 28.6268Z" fill="#626B7F"/>
</g>
<defs>
<clipPath id="clip0_20_1558">
<rect width="129.994" height="46.22" fill="white" transform="translate(0.00390625 0.889648)"/>
</clipPath>
</defs>
</svg>
