<svg width="120" height="127" viewBox="0 0 120 127" fill="none" xmlns="http://www.w3.org/2000/svg">
<g clip-path="url(#clip0_20_1419)">
<path d="M33.1681 84.25H9.31715C4.37746 84.25 0.373047 88.2544 0.373047 93.1941V117.045C0.373047 121.985 4.37746 125.989 9.31715 125.989H33.1681C38.1078 125.989 42.1122 121.985 42.1122 117.045V93.1941C42.1122 88.2544 38.1078 84.25 33.1681 84.25Z" fill="white" stroke="#F0F4F9" stroke-width="0.745342"/>
<path d="M21.2426 0.771484C32.7656 0.771484 42.1122 10.1181 42.1122 21.6411C42.1122 33.164 32.7656 42.5106 21.2426 42.5106C9.71963 42.5106 0.373047 33.164 0.373047 21.6411C0.373047 10.1181 9.71963 0.771484 21.2426 0.771484Z" stroke="#F0F4F9" stroke-width="0.745342"/>
<path d="M26.5485 15.0527L24.4019 17.1993C24.3348 17.2663 24.2454 17.3111 24.1485 17.3185C24.0516 17.3334 23.9547 17.3111 23.8802 17.2589C23.0379 16.752 22.0615 16.4986 21.0777 16.5284C20.0938 16.5583 19.1398 16.8788 18.3274 17.4378C17.828 17.7881 17.3957 18.2204 17.0528 18.7123C16.4938 19.5247 16.1733 20.4788 16.1435 21.4626C16.1137 22.4465 16.3671 23.4229 16.874 24.2651C16.9261 24.3471 16.941 24.444 16.9336 24.5334C16.9187 24.6303 16.8814 24.7123 16.8143 24.7794L14.6677 26.926C14.623 26.9707 14.5708 27.0005 14.5187 27.0229C14.459 27.0452 14.3994 27.0527 14.3398 27.0452C14.2802 27.0452 14.2205 27.0229 14.1684 26.993C14.1162 26.9632 14.0715 26.926 14.0342 26.8738C12.8715 25.2788 12.2752 23.3409 12.3274 21.3657C12.3795 19.3906 13.0876 17.4899 14.3398 15.962C14.7199 15.4924 15.1522 15.0676 15.6143 14.6875C17.1423 13.4427 19.0429 12.7347 21.0181 12.675C22.9932 12.6229 24.9311 13.2191 26.5261 14.3819C26.5783 14.4191 26.6156 14.4638 26.6454 14.516C26.6752 14.5682 26.6901 14.6278 26.6976 14.6875C26.6976 14.7471 26.6976 14.8142 26.6752 14.8663C26.6528 14.926 26.623 14.9781 26.5783 15.0229L26.5485 15.0527Z" fill="#6C47FF"/>
<path d="M26.5486 28.2225L24.402 26.0759C24.3349 26.0089 24.2455 25.9641 24.1486 25.9567C24.0517 25.9418 23.9548 25.9641 23.8803 26.0163C23.0828 26.4933 22.1735 26.7542 21.2418 26.7542C20.3101 26.7542 19.4008 26.5008 18.6033 26.0163C18.5213 25.9641 18.4244 25.9492 18.3349 25.9567C18.238 25.9716 18.1486 26.0089 18.0815 26.0759L15.9349 28.2225C15.8902 28.2672 15.853 28.3194 15.8306 28.379C15.8082 28.4387 15.8008 28.4983 15.8008 28.5654C15.8008 28.625 15.8231 28.6846 15.853 28.7443C15.8828 28.7964 15.9275 28.8486 15.9797 28.8859C17.5076 29.9964 19.3486 30.6002 21.2418 30.6002C23.1349 30.6002 24.9759 30.0039 26.5039 28.8859C26.5561 28.8486 26.6008 28.8039 26.6306 28.7517C26.6604 28.6995 26.6828 28.6399 26.6828 28.5728C26.6828 28.5132 26.6828 28.4461 26.653 28.3865C26.6306 28.3269 26.5933 28.2747 26.5486 28.23V28.2225Z" fill="#6C47FF"/>
<path d="M21.2421 24.1902C22.6508 24.1902 23.7986 23.0498 23.7986 21.6337C23.7986 20.2175 22.6582 19.0771 21.2421 19.0771C19.8259 19.0771 18.6855 20.2175 18.6855 21.6337C18.6855 23.0498 19.8259 24.1902 21.2421 24.1902Z" fill="#6C47FF"/>
<path d="M110.684 42.5107H86.8328C81.8931 42.5107 77.8887 46.5152 77.8887 51.4548V75.3058C77.8887 80.2455 81.8931 84.2499 86.8328 84.2499H110.684C115.623 84.2499 119.628 80.2455 119.628 75.3058V51.4548C119.628 46.5152 115.623 42.5107 110.684 42.5107Z" fill="white" stroke="#F0F4F9" stroke-width="0.745342"/>
<mask id="mask0_20_1419" style="mask-type:luminance" maskUnits="userSpaceOnUse" x="81" y="46" width="35" height="34">
<path d="M98.4823 46.2384L81.6172 63.1035L98.4823 79.9687L115.348 63.1035L98.4823 46.2384Z" fill="white"/>
</mask>
<g mask="url(#mask0_20_1419)">
<path d="M104.803 56.7764C104.803 56.7764 98.4748 63.1043 104.803 69.4248C104.803 69.4248 98.4748 63.0969 92.1543 69.4248C92.1543 69.4248 98.4822 63.0969 92.1543 56.7764C92.1543 56.7764 98.4822 63.1043 104.803 56.7764Z" stroke="#6C47FF" stroke-width="0.745342" stroke-miterlimit="10"/>
<path d="M106.912 54.667L104.803 56.7763" stroke="#6C47FF" stroke-width="0.745342" stroke-miterlimit="10"/>
<path d="M106.912 71.5341L104.803 69.4248" stroke="#6C47FF" stroke-width="0.745342" stroke-miterlimit="10"/>
<path d="M90.0449 71.5341L92.1542 69.4248" stroke="#6C47FF" stroke-width="0.745342" stroke-miterlimit="10"/>
<path d="M90.0449 54.667L92.1542 56.7763" stroke="#6C47FF" stroke-width="0.745342" stroke-miterlimit="10"/>
</g>
</g>
<defs>
<clipPath id="clip0_20_1419">
<rect width="120" height="125.963" fill="white" transform="translate(0 0.398438)"/>
</clipPath>
</defs>
</svg>
