<svg width="1219" height="1220" viewBox="0 0 1219 1220" fill="none" xmlns="http://www.w3.org/2000/svg">
<g clip-path="url(#clip0_20_2181)">
<g opacity="0.8" filter="url(#filter0_f_20_2181)">
<path d="M868.443 432.719L789.707 511.461C787.234 513.93 783.999 515.499 780.527 515.915C777.054 516.33 773.543 515.569 770.559 513.748C739.585 495.063 703.867 485.744 667.712 486.916C631.561 488.088 596.518 499.703 566.823 520.356C548.558 533.073 532.701 548.93 519.988 567.196C499.361 596.912 487.755 631.955 486.574 668.11C485.394 704.265 494.682 739.992 513.328 770.992C515.132 773.976 515.888 777.474 515.473 780.938C515.058 784.397 513.497 787.623 511.037 790.092L432.301 868.832C430.715 870.428 428.804 871.665 426.697 872.452C424.59 873.239 422.337 873.563 420.094 873.399C417.85 873.239 415.668 872.59 413.697 871.505C411.726 870.424 410.013 868.923 408.675 867.115C366.074 808.557 344.058 737.54 346.063 665.152C348.068 592.76 373.982 523.071 419.759 466.964C433.737 449.793 449.429 434.1 466.596 420.124C522.699 374.357 592.375 348.449 664.746 346.444C737.12 344.439 808.124 366.448 866.674 409.039C868.495 410.373 870.004 412.086 871.102 414.059C872.196 416.033 872.849 418.22 873.018 420.471C873.186 422.722 872.862 424.982 872.075 427.097C871.284 429.211 870.047 431.129 868.443 432.719Z" fill="url(#paint0_linear_20_2181)"/>
</g>
</g>
<defs>
<filter id="filter0_f_20_2181" x="-0.000762939" y="0.380096" width="1219" height="1219" filterUnits="userSpaceOnUse" color-interpolation-filters="sRGB">
<feFlood flood-opacity="0" result="BackgroundImageFix"/>
<feBlend mode="normal" in="SourceGraphic" in2="BackgroundImageFix" result="shape"/>
<feGaussianBlur stdDeviation="172.969" result="effect1_foregroundBlur_20_2181"/>
</filter>
<linearGradient id="paint0_linear_20_2181" x1="794.442" y1="298.241" x2="130.385" y2="962.318" gradientUnits="userSpaceOnUse">
<stop stop-color="#17CCFC"/>
<stop offset="0.5" stop-color="#5D31FF"/>
<stop offset="1" stop-color="#F35AFF"/>
</linearGradient>
<clipPath id="clip0_20_2181">
<rect width="1219" height="1219" fill="white" transform="translate(0 0.379883)"/>
</clipPath>
</defs>
</svg>
