<svg width="144" height="52" viewBox="0 0 144 52" fill="none" xmlns="http://www.w3.org/2000/svg">
<path d="M41.8456 30.5577C41.7056 30.742 41.7108 31.0025 41.877 31.163C43.2297 32.4706 45.7215 33.1777 47.9428 33.1777C51.409 33.1777 54.151 31.4238 54.151 28.4135C54.151 25.2985 51.409 24.6964 48.9517 24.199C47.2961 23.8849 46.4942 23.7802 46.4942 23.0211C46.4942 22.3928 47.141 22.0002 48.1497 22.0002C49.3245 22.0002 50.4992 22.4594 51.4672 23.3081C51.6914 23.5046 52.0383 23.4884 52.2203 23.2514L53.6929 21.3327C53.8379 21.1438 53.8289 20.8748 53.6545 20.7131C52.4599 19.6056 50.4384 18.8066 48.1757 18.8066C44.8129 18.8066 42.3555 20.6652 42.3555 23.4661C42.3555 26.4503 44.7611 27.0523 47.0116 27.4973C49.1844 27.89 50.0898 27.9947 50.0898 28.9108C50.0898 29.6438 49.1844 30.0103 48.0981 30.0103C46.7951 30.0103 45.2701 29.4379 44.1653 28.4559C43.9388 28.2544 43.5838 28.2689 43.4001 28.5108L41.8456 30.5577Z" fill="#626B7F"/>
<path d="M61.1292 33.1777C63.677 33.1777 66.0198 31.957 67.133 29.6236C67.2544 29.3695 67.1137 29.0738 66.848 28.9875L64.3308 28.1701C64.0767 28.0875 63.8088 28.2318 63.6841 28.4708C63.2098 29.381 62.3023 29.8532 61.181 29.8532C59.603 29.8532 58.4908 28.78 58.2062 26.8952H67.4409V25.7958C67.4409 21.8955 65.1904 18.8066 61.0516 18.8066C57.1198 18.8066 54.2227 21.8955 54.2227 25.9791C54.2227 30.272 57.0164 33.1777 61.1292 33.1777ZM60.9999 22.0526C62.5054 22.0526 63.306 23.0712 63.3524 24.2797C63.3535 24.3072 63.3315 24.33 63.3043 24.33H58.3993C58.3673 24.33 58.3442 24.2986 58.3531 24.2675C58.7766 22.7909 59.7499 22.0526 60.9999 22.0526Z" fill="#626B7F"/>
<path d="M72.2918 33.1514C74.0477 33.1514 75.3781 32.6194 76.2828 31.7048C76.3052 31.682 76.3431 31.6865 76.3603 31.7137C77.0331 32.7836 78.4809 33.2234 80.601 32.9499C80.8362 32.9194 81.009 32.713 81.009 32.4725V30.3591C81.009 30.0631 80.7482 29.8581 80.4595 29.8113C80.0827 29.7503 79.9485 29.4993 79.9485 28.9894V23.6755C79.9485 20.4558 77.7498 18.8066 74.1801 18.8066C70.9624 18.8066 68.8815 20.5209 68.1238 22.7142C68.0295 22.9871 68.2159 23.2676 68.4985 23.3106L71.4865 23.7652C71.7368 23.8033 71.9683 23.6376 72.0589 23.3985C72.3715 22.5717 72.9742 22.1834 73.9991 22.1834C75.3441 22.1834 75.8873 22.8379 75.8873 23.8588V24.0529C75.8873 24.0768 75.8702 24.0973 75.8469 24.1013L72.835 24.6179C69.9638 25.0367 67.584 26.1885 67.584 29.0418C67.584 31.4762 69.5498 33.1514 72.2918 33.1514ZM75.8873 27.9423C75.8873 29.3559 74.6199 30.0888 73.2489 30.0888C72.266 30.0888 71.6193 29.6176 71.6193 28.7538C71.6193 27.7853 72.4211 27.4188 73.5075 27.2356L75.83 26.8012C75.8599 26.7956 75.8873 26.8188 75.8873 26.8495V27.9423Z" fill="#626B7F"/>
<path d="M85.9411 25.0105C85.9411 23.3876 87.0017 22.5761 88.0887 22.5761C89.4332 22.5761 89.9507 23.597 89.9507 24.9843V32.3989C89.9507 32.6699 90.1683 32.8897 90.4355 32.8897H93.6044C93.8724 32.8897 94.0899 32.6699 94.0899 32.3989V25.0105C94.0899 23.3876 95.1505 22.5761 96.2367 22.5761C97.5557 22.5761 98.0988 23.597 98.0988 24.9843V32.3989C98.0988 32.6699 98.3163 32.8897 98.5843 32.8897H101.752C102.02 32.8897 102.238 32.6699 102.238 32.3989V23.7802C102.238 20.7699 100.402 18.8066 97.6332 18.8066C95.5752 18.8066 94.2411 19.7916 93.4589 20.6453C93.4373 20.6688 93.3997 20.6656 93.3821 20.6393C92.6014 19.4926 91.2721 18.8066 89.666 18.8066C87.9983 18.8066 86.7858 19.5339 86.0283 20.3819C85.9979 20.4158 85.9411 20.3944 85.9411 20.3487V19.5854C85.9411 19.3143 85.7244 19.0946 85.4564 19.0946H82.2874C82.0195 19.0946 81.8027 19.3143 81.8027 19.5854V32.3989C81.8027 32.6699 82.0195 32.8897 82.2874 32.8897H85.4564C85.7244 32.8897 85.9411 32.6699 85.9411 32.3989V25.0105Z" fill="#626B7F"/>
</svg>
