<svg width="81" height="81" viewBox="0 0 81 81" fill="none" xmlns="http://www.w3.org/2000/svg">
<g clip-path="url(#clip0_20_2257)">
<mask id="mask0_20_2257" style="mask-type:luminance" maskUnits="userSpaceOnUse" x="0" y="0" width="81" height="81">
<path d="M69.3398 0.379883H11.8398C5.62664 0.379883 0.589844 5.41668 0.589844 11.6299V69.1299C0.589844 75.3431 5.62664 80.3799 11.8398 80.3799H69.3398C75.553 80.3799 80.5898 75.3431 80.5898 69.1299V11.6299C80.5898 5.41668 75.553 0.379883 69.3398 0.379883Z" fill="white"/>
</mask>
<g mask="url(#mask0_20_2257)">
<path d="M69.3398 0.379883H11.8398C5.62664 0.379883 0.589844 5.41668 0.589844 11.6299V69.1299C0.589844 75.3431 5.62664 80.3799 11.8398 80.3799H69.3398C75.553 80.3799 80.5898 75.3431 80.5898 69.1299V11.6299C80.5898 5.41668 75.553 0.379883 69.3398 0.379883Z" fill="white"/>
<path d="M69.9648 4.12988H11.2148C7.41789 4.12988 4.33984 7.20793 4.33984 11.0049V69.7549C4.33984 73.5518 7.41789 76.6299 11.2148 76.6299H69.9648C73.7618 76.6299 76.8398 73.5518 76.8398 69.7549V11.0049C76.8398 7.20793 73.7618 4.12988 69.9648 4.12988Z" fill="#F2F0FF"/>
<g filter="url(#filter0_di_20_2257)">
<path d="M25.5898 25.3799H40.5898V40.3799H25.5898V25.3799Z" fill="white"/>
<path d="M25.5898 55.3799H40.5898V70.3799H25.5898V55.3799Z" fill="white"/>
<path d="M55.5898 25.3799H70.5898V40.3799H55.5898V25.3799Z" fill="white"/>
<path d="M55.5898 55.3799H70.5898V67.8799C70.5898 69.2606 69.4706 70.3799 68.0898 70.3799H55.5898V55.3799Z" fill="white"/>
<path d="M10.5898 25.3799H25.5898V40.3799H10.5898V25.3799Z" fill="white"/>
<path d="M10.5898 55.3799H25.5898V70.3799H13.0898C11.7091 70.3799 10.5898 69.2606 10.5898 67.8799V55.3799Z" fill="white"/>
<path d="M40.5898 25.3799H55.5898V40.3799H40.5898V25.3799Z" fill="white"/>
<path d="M40.5898 55.3799H55.5898V70.3799H40.5898V55.3799Z" fill="white"/>
<path d="M25.5898 10.3799H40.5898V25.3799H25.5898V10.3799Z" fill="white"/>
<path d="M25.5898 40.3799H40.5898V55.3799H25.5898V40.3799Z" fill="white"/>
<path d="M55.5898 10.3799H68.0898C69.4706 10.3799 70.5898 11.4992 70.5898 12.8799V25.3799H55.5898V10.3799Z" fill="white"/>
<path d="M55.5898 40.3799H70.5898V55.3799H55.5898V40.3799Z" fill="white"/>
<path d="M10.5898 12.8799C10.5898 11.4992 11.7091 10.3799 13.0898 10.3799H25.5898V25.3799H10.5898V12.8799Z" fill="white"/>
<path d="M10.5898 40.3799H25.5898V55.3799H10.5898V40.3799Z" fill="white"/>
<path d="M40.5898 10.3799H55.5898V25.3799H40.5898V10.3799Z" fill="white"/>
<path d="M40.5898 40.3799H55.5898V55.3799H40.5898V40.3799Z" fill="white"/>
</g>
<path opacity="0.4" d="M12.4648 19.9893H68.7148" stroke="url(#paint0_linear_20_2257)" stroke-width="1.40625"/>
<path opacity="0.4" d="M58.793 12.2549V68.5049" stroke="url(#paint1_linear_20_2257)" stroke-width="1.40625"/>
<path opacity="0.4" d="M12.4648 59.3643H68.7148" stroke="url(#paint2_linear_20_2257)" stroke-width="1.40625"/>
<path opacity="0.4" d="M22.543 12.8799V69.1299" stroke="url(#paint3_linear_20_2257)" stroke-width="1.40625"/>
<path opacity="0.5" d="M39.19 27.7744L51.7929 29.5759L53.5932 42.1802L41.8904 53.8829C41.6517 54.1215 41.3279 54.2557 40.9903 54.2557C40.6527 54.2557 40.3289 54.1215 40.0902 53.8829L27.486 41.2787C27.2473 41.0399 27.1133 40.7162 27.1133 40.3787C27.1133 40.041 27.2473 39.7173 27.486 39.4785L39.19 27.7744ZM42.7905 38.5784C43.027 38.8148 43.3078 39.0023 43.6167 39.1302C43.9257 39.2582 44.2568 39.3239 44.5912 39.3239C44.9255 39.3238 45.2567 39.2579 45.5655 39.1299C45.8745 39.0018 46.1552 38.8143 46.3915 38.5778C46.628 38.3413 46.8155 38.0605 46.9434 37.7515C47.0713 37.4425 47.1372 37.1114 47.137 36.777C47.137 36.4427 47.0712 36.1115 46.943 35.8027C46.815 35.4937 46.6274 35.213 46.3909 34.9767C46.1544 34.7402 45.8738 34.5527 45.5648 34.4248C45.2558 34.2969 44.9247 34.231 44.5903 34.2312C43.9149 34.2313 43.2673 34.4997 42.7899 34.9773C42.3124 35.4549 42.0443 36.1027 42.0444 36.7779C42.0445 37.4533 42.3129 38.1009 42.7905 38.5784Z" stroke="#6C47FF" stroke-width="2.5"/>
</g>
</g>
<defs>
<filter id="filter0_di_20_2257" x="2.15234" y="6.16113" width="76.875" height="76.875" filterUnits="userSpaceOnUse" color-interpolation-filters="sRGB">
<feFlood flood-opacity="0" result="BackgroundImageFix"/>
<feColorMatrix in="SourceAlpha" type="matrix" values="0 0 0 0 0 0 0 0 0 0 0 0 0 0 0 0 0 0 127 0" result="hardAlpha"/>
<feOffset dy="4.21875"/>
<feGaussianBlur stdDeviation="4.21875"/>
<feComposite in2="hardAlpha" operator="out"/>
<feColorMatrix type="matrix" values="0 0 0 0 0.712558 0 0 0 0 0.64 0 0 0 0 1 0 0 0 0.12 0"/>
<feBlend mode="normal" in2="BackgroundImageFix" result="effect1_dropShadow_20_2257"/>
<feBlend mode="normal" in="SourceGraphic" in2="effect1_dropShadow_20_2257" result="shape"/>
<feColorMatrix in="SourceAlpha" type="matrix" values="0 0 0 0 0 0 0 0 0 0 0 0 0 0 0 0 0 0 127 0" result="hardAlpha"/>
<feOffset dy="1.40625"/>
<feGaussianBlur stdDeviation="1.40625"/>
<feComposite in2="hardAlpha" operator="arithmetic" k2="-1" k3="1"/>
<feColorMatrix type="matrix" values="0 0 0 0 0.712558 0 0 0 0 0.64 0 0 0 0 1 0 0 0 0.24 0"/>
<feBlend mode="normal" in2="shape" result="effect2_innerShadow_20_2257"/>
</filter>
<linearGradient id="paint0_linear_20_2257" x1="-nan" y1="-nan" x2="-nan" y2="-nan" gradientUnits="userSpaceOnUse">
<stop stop-color="#6C47FF" stop-opacity="0"/>
<stop offset="0.333333" stop-color="#6C47FF"/>
<stop offset="0.666667" stop-color="#6C47FF"/>
<stop offset="1" stop-color="#6C47FF" stop-opacity="0"/>
</linearGradient>
<linearGradient id="paint1_linear_20_2257" x1="-nan" y1="-nan" x2="-nan" y2="-nan" gradientUnits="userSpaceOnUse">
<stop stop-color="#6C47FF" stop-opacity="0"/>
<stop offset="0.333333" stop-color="#6C47FF"/>
<stop offset="0.666667" stop-color="#6C47FF"/>
<stop offset="1" stop-color="#6C47FF" stop-opacity="0"/>
</linearGradient>
<linearGradient id="paint2_linear_20_2257" x1="-nan" y1="-nan" x2="-nan" y2="-nan" gradientUnits="userSpaceOnUse">
<stop stop-color="#6C47FF" stop-opacity="0"/>
<stop offset="0.333333" stop-color="#6C47FF"/>
<stop offset="0.666667" stop-color="#6C47FF"/>
<stop offset="1" stop-color="#6C47FF" stop-opacity="0"/>
</linearGradient>
<linearGradient id="paint3_linear_20_2257" x1="-nan" y1="-nan" x2="-nan" y2="-nan" gradientUnits="userSpaceOnUse">
<stop stop-color="#6C47FF" stop-opacity="0"/>
<stop offset="0.333333" stop-color="#6C47FF"/>
<stop offset="0.666667" stop-color="#6C47FF"/>
<stop offset="1" stop-color="#6C47FF" stop-opacity="0"/>
</linearGradient>
<clipPath id="clip0_20_2257">
<rect width="80" height="80" fill="white" transform="translate(0.589844 0.379883)"/>
</clipPath>
</defs>
</svg>
