<svg width="32" height="33" viewBox="0 0 32 33" fill="none" xmlns="http://www.w3.org/2000/svg">
<g clip-path="url(#clip0_20_2374)">
<path d="M25.488 4.59428L21.6472 8.43502C21.5265 8.55558 21.3688 8.63212 21.1994 8.65237C21.0301 8.67263 20.8588 8.63542 20.713 8.54671C19.2022 7.63528 17.4598 7.18073 15.6963 7.23793C13.9327 7.29514 12.2234 7.86167 10.7748 8.8691C9.88393 9.48924 9.11035 10.2628 8.4902 11.1538C7.48396 12.6032 6.91797 14.3126 6.86032 16.0762C6.80268 17.8398 7.25583 19.5824 8.16527 21.0945C8.25333 21.24 8.29019 21.4107 8.26994 21.5796C8.2497 21.7484 8.17353 21.9056 8.05357 22.0261L4.21283 25.8669C4.13549 25.9447 4.04224 26.005 3.93946 26.0434C3.83668 26.0819 3.72681 26.0977 3.61736 26.0897C3.50791 26.0818 3.40147 26.0502 3.30533 25.9973C3.20919 25.9444 3.12563 25.8713 3.06036 25.7831C0.982273 22.9267 -0.0916784 19.4627 0.00613613 15.9318C0.103951 12.4008 1.36803 9.00155 3.60106 6.2646C4.28277 5.4272 5.0483 4.66167 5.8857 3.97996C8.62244 1.74754 12.0212 0.483833 15.5516 0.386021C19.082 0.288209 22.5455 1.36179 25.4017 3.43925C25.4905 3.50431 25.5641 3.58785 25.6175 3.68412C25.6709 3.78038 25.7029 3.88708 25.7111 3.99687C25.7193 4.10665 25.7036 4.21692 25.6651 4.32005C25.6265 4.42318 25.5661 4.51674 25.488 4.59428Z" fill="url(#paint0_linear_20_2374)"/>
<path d="M25.4879 28.1514L21.6472 24.3107C21.5265 24.1901 21.3688 24.1135 21.1994 24.0933C21.03 24.073 20.8587 24.1103 20.713 24.199C19.2885 25.0583 17.6563 25.5124 15.9927 25.5124C14.329 25.5124 12.6969 25.0583 11.2723 24.199C11.1266 24.1103 10.9553 24.073 10.7859 24.0933C10.6166 24.1135 10.4589 24.1901 10.3382 24.3107L6.49743 28.1514C6.41689 28.2288 6.35437 28.323 6.31431 28.4273C6.27425 28.5316 6.25763 28.6434 6.26562 28.7549C6.27362 28.8663 6.30603 28.9746 6.36057 29.0721C6.41511 29.1697 6.49043 29.254 6.5812 29.3191C9.31513 31.3083 12.6091 32.3798 15.9901 32.3798C19.3711 32.3798 22.6651 31.3083 25.3991 29.3191C25.4902 29.2544 25.5659 29.1704 25.6209 29.0731C25.6759 28.9758 25.7088 28.8675 25.7173 28.7561C25.7258 28.6446 25.7096 28.5327 25.67 28.4282C25.6303 28.3237 25.5682 28.2292 25.4879 28.1514Z" fill="#1F0256"/>
<path d="M15.9931 20.9423C18.5167 20.9423 20.5624 18.8966 20.5624 16.373C20.5624 13.8495 18.5167 11.8037 15.9931 11.8037C13.4696 11.8037 11.4238 13.8495 11.4238 16.373C11.4238 18.8966 13.4696 20.9423 15.9931 20.9423Z" fill="#1F0256"/>
</g>
<defs>
<linearGradient id="paint0_linear_20_2374" x1="21.8782" y1="-1.9652" x2="-10.513" y2="30.4286" gradientUnits="userSpaceOnUse">
<stop stop-color="#17CCFC"/>
<stop offset="0.5" stop-color="#5D31FF"/>
<stop offset="1" stop-color="#F35AFF"/>
</linearGradient>
<clipPath id="clip0_20_2374">
<rect width="32" height="32" fill="white" transform="translate(0 0.379883)"/>
</clipPath>
</defs>
</svg>
