<svg width="325" height="70" viewBox="0 0 325 70" fill="none" xmlns="http://www.w3.org/2000/svg">
<g clip-path="url(#clip0_20_1955)">
<g clip-path="url(#clip1_20_1955)">
<mask id="mask0_20_1955" style="mask-type:alpha" maskUnits="userSpaceOnUse" x="0" y="0" width="325" height="70">
<path d="M324.771 0.55957H0.880859V69.2325H324.771V0.55957Z" fill="url(#paint0_linear_20_1955)"/>
</mask>
<g mask="url(#mask0_20_1955)">
<path d="M45.4668 39.9636L54.5388 38.3566M90.8216 38.3566L99.9454 39.9636M135.92 39.8729L144.889 38.2842M180.452 38.2842L189.731 39.9093M225.809 39.9093L234.83 38.3022M271.216 38.4099L279.928 39.9271" stroke="white" stroke-opacity="0.1" stroke-width="1.02497"/>
<g opacity="0.5">
<path d="M162.826 55.3952C174.147 55.3952 183.325 46.2173 183.325 34.8959C183.325 23.5744 174.147 14.3965 162.826 14.3965C151.504 14.3965 142.326 23.5744 142.326 34.8959C142.326 46.2173 151.504 55.3952 162.826 55.3952Z" fill="white" fill-opacity="0.05"/>
<path d="M162.826 55.3952C174.147 55.3952 183.325 46.2173 183.325 34.8959C183.325 23.5744 174.147 14.3965 162.826 14.3965C151.504 14.3965 142.326 23.5744 142.326 34.8959C142.326 46.2173 151.504 55.3952 162.826 55.3952Z" fill="url(#paint1_radial_20_1955)" fill-opacity="0.05"/>
<path d="M162.825 55.1386C174.005 55.1386 183.068 46.0754 183.068 34.8955C183.068 23.7155 174.005 14.6523 162.825 14.6523C151.645 14.6523 142.582 23.7155 142.582 34.8955C142.582 46.0754 151.645 55.1386 162.825 55.1386Z" stroke="url(#paint2_linear_20_1955)" stroke-opacity="0.1" stroke-width="0.512484"/>
</g>
<path d="M162.825 51.2951C171.882 51.2951 179.225 43.9528 179.225 34.8956C179.225 25.8384 171.882 18.4961 162.825 18.4961C153.768 18.4961 146.426 25.8384 146.426 34.8956C146.426 43.9528 153.768 51.2951 162.825 51.2951Z" fill="white" fill-opacity="0.05"/>
<path d="M162.825 51.2951C171.882 51.2951 179.225 43.9528 179.225 34.8956C179.225 25.8384 171.882 18.4961 162.825 18.4961C153.768 18.4961 146.426 25.8384 146.426 34.8956C146.426 43.9528 153.768 51.2951 162.825 51.2951Z" fill="url(#paint3_radial_20_1955)" fill-opacity="0.05"/>
<path d="M162.825 51.0394C171.741 51.0394 178.968 43.8119 178.968 34.8962C178.968 25.9805 171.741 18.7529 162.825 18.7529C153.909 18.7529 146.682 25.9805 146.682 34.8962C146.682 43.8119 153.909 51.0394 162.825 51.0394Z" stroke="url(#paint4_linear_20_1955)" stroke-opacity="0.1" stroke-width="0.512484"/>
<path d="M117.728 59.4953C126.785 59.4953 134.127 52.153 134.127 43.0958C134.127 34.0386 126.785 26.6963 117.728 26.6963C108.67 26.6963 101.328 34.0386 101.328 43.0958C101.328 52.153 108.67 59.4953 117.728 59.4953Z" fill="#D2FB9C" fill-opacity="0.1"/>
<path d="M117.728 59.4953C126.785 59.4953 134.127 52.153 134.127 43.0958C134.127 34.0386 126.785 26.6963 117.728 26.6963C108.67 26.6963 101.328 34.0386 101.328 43.0958C101.328 52.153 108.67 59.4953 117.728 59.4953Z" fill="url(#paint5_radial_20_1955)" fill-opacity="0.05"/>
<path d="M117.727 59.2387C126.643 59.2387 133.87 52.0111 133.87 43.0954C133.87 34.1797 126.643 26.9521 117.727 26.9521C108.812 26.9521 101.584 34.1797 101.584 43.0954C101.584 52.0111 108.812 59.2387 117.727 59.2387Z" stroke="url(#paint6_linear_20_1955)" stroke-opacity="0.1" stroke-width="0.512484"/>
<g opacity="0.5">
<path d="M253.023 55.3952C264.344 55.3952 273.522 46.2173 273.522 34.8959C273.522 23.5744 264.344 14.3965 253.023 14.3965C241.701 14.3965 232.523 23.5744 232.523 34.8959C232.523 46.2173 241.701 55.3952 253.023 55.3952Z" fill="white" fill-opacity="0.05"/>
<path d="M253.023 55.3952C264.344 55.3952 273.522 46.2173 273.522 34.8959C273.522 23.5744 264.344 14.3965 253.023 14.3965C241.701 14.3965 232.523 23.5744 232.523 34.8959C232.523 46.2173 241.701 55.3952 253.023 55.3952Z" fill="url(#paint7_radial_20_1955)" fill-opacity="0.05"/>
<path d="M253.022 55.1386C264.202 55.1386 273.266 46.0754 273.266 34.8955C273.266 23.7155 264.202 14.6523 253.022 14.6523C241.842 14.6523 232.779 23.7155 232.779 34.8955C232.779 46.0754 241.842 55.1386 253.022 55.1386Z" stroke="url(#paint8_linear_20_1955)" stroke-opacity="0.1" stroke-width="0.512484"/>
</g>
<path d="M253.023 51.2951C262.08 51.2951 269.422 43.9528 269.422 34.8956C269.422 25.8384 262.08 18.4961 253.023 18.4961C243.965 18.4961 236.623 25.8384 236.623 34.8956C236.623 43.9528 243.965 51.2951 253.023 51.2951Z" fill="white" fill-opacity="0.05"/>
<path d="M253.023 51.2951C262.08 51.2951 269.422 43.9528 269.422 34.8956C269.422 25.8384 262.08 18.4961 253.023 18.4961C243.965 18.4961 236.623 25.8384 236.623 34.8956C236.623 43.9528 243.965 51.2951 253.023 51.2951Z" fill="url(#paint9_radial_20_1955)" fill-opacity="0.05"/>
<path d="M253.022 51.0394C261.938 51.0394 269.165 43.8119 269.165 34.8962C269.165 25.9805 261.938 18.7529 253.022 18.7529C244.106 18.7529 236.879 25.9805 236.879 34.8962C236.879 43.8119 244.106 51.0394 253.022 51.0394Z" stroke="url(#paint10_linear_20_1955)" stroke-opacity="0.1" stroke-width="0.512484"/>
<g filter="url(#filter0_d_20_1955)">
<path d="M207.925 59.4953C216.982 59.4953 224.324 52.153 224.324 43.0958C224.324 34.0386 216.982 26.6963 207.925 26.6963C198.868 26.6963 191.525 34.0386 191.525 43.0958C191.525 52.153 198.868 59.4953 207.925 59.4953Z" fill="#8CD6F4" fill-opacity="0.1"/>
<path d="M207.925 59.4953C216.982 59.4953 224.324 52.153 224.324 43.0958C224.324 34.0386 216.982 26.6963 207.925 26.6963C198.868 26.6963 191.525 34.0386 191.525 43.0958C191.525 52.153 198.868 59.4953 207.925 59.4953Z" fill="url(#paint11_radial_20_1955)" fill-opacity="0.05"/>
<path d="M207.925 59.2387C216.84 59.2387 224.068 52.0111 224.068 43.0954C224.068 34.1797 216.84 26.9521 207.925 26.9521C199.009 26.9521 191.781 34.1797 191.781 43.0954C191.781 52.0111 199.009 59.2387 207.925 59.2387Z" stroke="url(#paint12_linear_20_1955)" stroke-opacity="0.1" stroke-width="0.512484"/>
</g>
<path d="M298.122 59.4953C307.179 59.4953 314.522 52.153 314.522 43.0958C314.522 34.0386 307.179 26.6963 298.122 26.6963C289.065 26.6963 281.723 34.0386 281.723 43.0958C281.723 52.153 289.065 59.4953 298.122 59.4953Z" fill="#FFB1B1" fill-opacity="0.1"/>
<path d="M298.122 59.4953C307.179 59.4953 314.522 52.153 314.522 43.0958C314.522 34.0386 307.179 26.6963 298.122 26.6963C289.065 26.6963 281.723 34.0386 281.723 43.0958C281.723 52.153 289.065 59.4953 298.122 59.4953Z" fill="url(#paint13_radial_20_1955)" fill-opacity="0.05"/>
<path d="M298.122 59.2387C307.037 59.2387 314.265 52.0111 314.265 43.0954C314.265 34.1797 307.037 26.9521 298.122 26.9521C289.206 26.9521 281.979 34.1797 281.979 43.0954C281.979 52.0111 289.206 59.2387 298.122 59.2387Z" stroke="url(#paint14_linear_20_1955)" stroke-opacity="0.1" stroke-width="0.512484"/>
<g opacity="0.5">
<path d="M72.6283 55.3952C83.9498 55.3952 93.1276 46.2173 93.1276 34.8959C93.1276 23.5744 83.9498 14.3965 72.6283 14.3965C61.3068 14.3965 52.1289 23.5744 52.1289 34.8959C52.1289 46.2173 61.3068 55.3952 72.6283 55.3952Z" fill="white" fill-opacity="0.05"/>
<path d="M72.6283 55.3952C83.9498 55.3952 93.1276 46.2173 93.1276 34.8959C93.1276 23.5744 83.9498 14.3965 72.6283 14.3965C61.3068 14.3965 52.1289 23.5744 52.1289 34.8959C52.1289 46.2173 61.3068 55.3952 72.6283 55.3952Z" fill="url(#paint15_radial_20_1955)" fill-opacity="0.05"/>
<path d="M72.6279 55.1386C83.8079 55.1386 92.871 46.0754 92.871 34.8955C92.871 23.7155 83.8079 14.6523 72.6279 14.6523C61.4479 14.6523 52.3848 23.7155 52.3848 34.8955C52.3848 46.0754 61.4479 55.1386 72.6279 55.1386Z" stroke="url(#paint16_linear_20_1955)" stroke-opacity="0.1" stroke-width="0.512484"/>
</g>
<path d="M72.628 51.2951C81.6852 51.2951 89.0275 43.9528 89.0275 34.8956C89.0275 25.8384 81.6852 18.4961 72.628 18.4961C63.5708 18.4961 56.2285 25.8384 56.2285 34.8956C56.2285 43.9528 63.5708 51.2951 72.628 51.2951Z" fill="white" fill-opacity="0.05"/>
<path d="M72.628 51.2951C81.6852 51.2951 89.0275 43.9528 89.0275 34.8956C89.0275 25.8384 81.6852 18.4961 72.628 18.4961C63.5708 18.4961 56.2285 25.8384 56.2285 34.8956C56.2285 43.9528 63.5708 51.2951 72.628 51.2951Z" fill="url(#paint17_radial_20_1955)" fill-opacity="0.05"/>
<path d="M72.6276 51.0394C81.5433 51.0394 88.7709 43.8119 88.7709 34.8962C88.7709 25.9805 81.5433 18.7529 72.6276 18.7529C63.712 18.7529 56.4844 25.9805 56.4844 34.8962C56.4844 43.8119 63.712 51.0394 72.6276 51.0394Z" stroke="url(#paint18_linear_20_1955)" stroke-opacity="0.1" stroke-width="0.512484"/>
</g>
<path d="M67.7489 30.9385L65.7082 28.8988L66.6317 27.9756L79.5499 40.8944L78.6269 41.8171L76.4668 39.6574C75.3193 40.3852 73.9879 40.7707 72.6293 40.7685C69.1111 40.7685 66.1843 38.237 65.5703 34.8963C65.8506 33.3765 66.6153 31.9882 67.7494 30.9385H67.7489ZM74.4281 37.6184L73.4728 36.6632C73.1074 36.838 72.6969 36.8952 72.2977 36.8268C71.8985 36.7585 71.5305 36.568 71.244 36.2816C70.9575 35.9952 70.7669 35.627 70.6987 35.2278C70.6301 34.8286 70.6875 34.418 70.8622 34.0527L69.907 33.0975C69.4918 33.7248 69.3063 34.4763 69.3817 35.2248C69.457 35.9733 69.7891 36.6728 70.321 37.2047C70.8525 37.7366 71.552 38.0683 72.3008 38.1437C73.049 38.2192 73.8008 38.0335 74.4281 37.6184ZM70.0023 29.52C70.8161 29.2003 71.7027 29.0241 72.6293 29.0241C76.1475 29.0241 79.0743 31.5557 79.6882 34.8963C79.4884 35.9832 79.0389 37.0087 78.3752 37.8925L75.8569 35.3739C75.9317 34.87 75.8876 34.3555 75.7277 33.8717C75.5679 33.3879 75.2968 32.9483 74.937 32.588C74.5767 32.2278 74.137 31.9569 73.6532 31.7971C73.1694 31.6373 72.6549 31.5931 72.1511 31.6679L70.0023 29.5206V29.52Z" fill="url(#paint19_linear_20_1955)"/>
<path d="M166.74 32.286H168.045C168.218 32.286 168.384 32.3548 168.507 32.4771C168.629 32.5995 168.698 32.7654 168.698 32.9385V40.7681C168.698 40.9411 168.629 41.1071 168.507 41.2295C168.384 41.3519 168.218 41.4206 168.045 41.4206H157.606C157.433 41.4206 157.267 41.3519 157.144 41.2295C157.022 41.1071 156.953 40.9411 156.953 40.7681V32.9385C156.953 32.7654 157.022 32.5995 157.144 32.4771C157.267 32.3548 157.433 32.286 157.606 32.286H158.91V31.6336C158.91 30.5953 159.323 29.5995 160.057 28.8654C160.791 28.1312 161.787 27.7188 162.825 27.7188C163.863 27.7188 164.859 28.1312 165.594 28.8654C166.327 29.5995 166.74 30.5953 166.74 31.6336V32.286ZM165.435 32.286V31.6336C165.435 30.9414 165.16 30.2775 164.671 29.7881C164.181 29.2986 163.518 29.0237 162.825 29.0237C162.133 29.0237 161.469 29.2986 160.98 29.7881C160.49 30.2775 160.216 30.9414 160.216 31.6336V32.286H165.435ZM162.173 36.2008V37.5058H163.478V36.2008H162.173ZM159.563 36.2008V37.5058H160.868V36.2008H159.563ZM164.783 36.2008V37.5058H166.088V36.2008H164.783Z" fill="url(#paint20_linear_20_1955)"/>
<path d="M247.661 28.9102L253.022 27.7188L258.384 28.9102C258.529 28.9424 258.658 29.023 258.752 29.1388C258.844 29.2546 258.895 29.3985 258.895 29.547V36.0632C258.895 36.7076 258.736 37.3421 258.432 37.9103C258.127 38.4785 257.688 38.9628 257.152 39.3203L253.022 42.0731L248.894 39.3203C248.358 38.9629 247.918 38.4787 247.614 37.9106C247.31 37.3425 247.15 36.7082 247.15 36.0638V29.547C247.15 29.3985 247.201 29.2546 247.294 29.1388C247.387 29.023 247.516 28.9424 247.661 28.9102ZM253.675 33.5909V30.3286L250.413 34.8959H252.37V38.1583L255.633 33.5909H253.675Z" fill="url(#paint21_linear_20_1955)"/>
<path d="M27.5304 59.4953C36.5875 59.4953 43.9298 52.153 43.9298 43.0958C43.9298 34.0386 36.5875 26.6963 27.5304 26.6963C18.4732 26.6963 11.1309 34.0386 11.1309 43.0958C11.1309 52.153 18.4732 59.4953 27.5304 59.4953Z" fill="#C4B5FF" fill-opacity="0.1"/>
<path d="M27.5304 59.4953C36.5875 59.4953 43.9298 52.153 43.9298 43.0958C43.9298 34.0386 36.5875 26.6963 27.5304 26.6963C18.4732 26.6963 11.1309 34.0386 11.1309 43.0958C11.1309 52.153 18.4732 59.4953 27.5304 59.4953Z" fill="url(#paint22_radial_20_1955)" fill-opacity="0.05"/>
<path d="M27.53 59.2387C36.4456 59.2387 43.6732 52.0111 43.6732 43.0954C43.6732 34.1797 36.4456 26.9521 27.53 26.9521C18.6143 26.9521 11.3867 34.1797 11.3867 43.0954C11.3867 52.0111 18.6143 59.2387 27.53 59.2387Z" stroke="url(#paint23_linear_20_1955)" stroke-opacity="0.1" stroke-width="0.512484"/>
<path d="M27.5299 36.9455C24.1334 36.9455 21.3801 39.6989 21.3801 43.0953C21.3801 46.4918 24.1334 49.2451 27.5299 49.2451C30.9263 49.2451 33.6797 46.4918 33.6797 43.0953C33.6797 39.6989 30.9263 36.9455 27.5299 36.9455Z" fill="white" fill-opacity="0.05"/>
<path d="M27.5299 36.9455C24.1334 36.9455 21.3801 39.6989 21.3801 43.0953C21.3801 46.4918 24.1334 49.2451 27.5299 49.2451C30.9263 49.2451 33.6797 46.4918 33.6797 43.0953C33.6797 39.6989 30.9263 36.9455 27.5299 36.9455Z" fill="url(#paint24_radial_20_1955)" fill-opacity="0.05"/>
<path d="M27.5303 37.2021C24.2753 37.2021 21.6367 39.8408 21.6367 43.0957C21.6367 46.3506 24.2753 48.9893 27.5303 48.9893C30.7852 48.9893 33.4238 46.3506 33.4238 43.0957C33.4238 39.8408 30.7852 37.2021 27.5303 37.2021Z" stroke="url(#paint25_linear_20_1955)" stroke-opacity="0.1" stroke-width="0.512484"/>
<path d="M117.727 36.9455C114.331 36.9455 111.577 39.6989 111.577 43.0953C111.577 46.4918 114.331 49.2451 117.727 49.2451C121.124 49.2451 123.877 46.4918 123.877 43.0953C123.877 39.6989 121.124 36.9455 117.727 36.9455Z" fill="white" fill-opacity="0.05"/>
<path d="M117.727 36.9455C114.331 36.9455 111.577 39.6989 111.577 43.0953C111.577 46.4918 114.331 49.2451 117.727 49.2451C121.124 49.2451 123.877 46.4918 123.877 43.0953C123.877 39.6989 121.124 36.9455 117.727 36.9455Z" fill="url(#paint26_radial_20_1955)" fill-opacity="0.05"/>
<path d="M117.728 37.2021C114.473 37.2021 111.834 39.8408 111.834 43.0957C111.834 46.3506 114.473 48.9893 117.728 48.9893C120.982 48.9893 123.621 46.3506 123.621 43.0957C123.621 39.8408 120.982 37.2021 117.728 37.2021Z" stroke="url(#paint27_linear_20_1955)" stroke-opacity="0.1" stroke-width="0.512484"/>
<path d="M207.924 36.9455C204.528 36.9455 201.775 39.6989 201.775 43.0953C201.775 46.4918 204.528 49.2451 207.924 49.2451C211.321 49.2451 214.074 46.4918 214.074 43.0953C214.074 39.6989 211.321 36.9455 207.924 36.9455Z" fill="white" fill-opacity="0.05"/>
<path d="M207.924 36.9455C204.528 36.9455 201.775 39.6989 201.775 43.0953C201.775 46.4918 204.528 49.2451 207.924 49.2451C211.321 49.2451 214.074 46.4918 214.074 43.0953C214.074 39.6989 211.321 36.9455 207.924 36.9455Z" fill="url(#paint28_radial_20_1955)" fill-opacity="0.05"/>
<path d="M207.925 37.2021C204.67 37.2021 202.031 39.8408 202.031 43.0957C202.031 46.3506 204.67 48.9893 207.925 48.9893C211.18 48.9893 213.818 46.3506 213.818 43.0957C213.818 39.8408 211.18 37.2021 207.925 37.2021Z" stroke="url(#paint29_linear_20_1955)" stroke-opacity="0.1" stroke-width="0.512484"/>
<path d="M298.122 36.9455C294.725 36.9455 291.972 39.6989 291.972 43.0953C291.972 46.4918 294.725 49.2451 298.122 49.2451C301.518 49.2451 304.271 46.4918 304.271 43.0953C304.271 39.6989 301.518 36.9455 298.122 36.9455Z" fill="white" fill-opacity="0.05"/>
<path d="M298.122 36.9455C294.725 36.9455 291.972 39.6989 291.972 43.0953C291.972 46.4918 294.725 49.2451 298.122 49.2451C301.518 49.2451 304.271 46.4918 304.271 43.0953C304.271 39.6989 301.518 36.9455 298.122 36.9455Z" fill="url(#paint30_radial_20_1955)" fill-opacity="0.05"/>
<path d="M298.122 37.2021C294.867 37.2021 292.228 39.8408 292.228 43.0957C292.228 46.3506 294.867 48.9893 298.122 48.9893C301.377 48.9893 304.016 46.3506 304.016 43.0957C304.016 39.8408 301.377 37.2021 298.122 37.2021Z" stroke="url(#paint31_linear_20_1955)" stroke-opacity="0.1" stroke-width="0.512484"/>
</g>
</g>
<defs>
<filter id="filter0_d_20_1955" x="183.326" y="22.5964" width="49.1983" height="49.1983" filterUnits="userSpaceOnUse" color-interpolation-filters="sRGB">
<feFlood flood-opacity="0" result="BackgroundImageFix"/>
<feColorMatrix in="SourceAlpha" type="matrix" values="0 0 0 0 0 0 0 0 0 0 0 0 0 0 0 0 0 0 127 0" result="hardAlpha"/>
<feOffset dy="4.09987"/>
<feGaussianBlur stdDeviation="4.09987"/>
<feComposite in2="hardAlpha" operator="out"/>
<feColorMatrix type="matrix" values="0 0 0 0 0.0509804 0 0 0 0 0.0509804 0 0 0 0 0.223529 0 0 0 0.5 0"/>
<feBlend mode="normal" in2="BackgroundImageFix" result="effect1_dropShadow_20_1955"/>
<feBlend mode="normal" in="SourceGraphic" in2="effect1_dropShadow_20_1955" result="shape"/>
</filter>
<linearGradient id="paint0_linear_20_1955" x1="162.826" y1="46.1707" x2="162.826" y2="69.2325" gradientUnits="userSpaceOnUse">
<stop stop-color="white"/>
<stop offset="1" stop-color="white" stop-opacity="0"/>
</linearGradient>
<radialGradient id="paint1_radial_20_1955" cx="0" cy="0" r="1" gradientUnits="userSpaceOnUse" gradientTransform="translate(162.826 48.3486) rotate(90) scale(26.2648)">
<stop stop-color="white"/>
<stop offset="1" stop-color="white" stop-opacity="0"/>
</radialGradient>
<linearGradient id="paint2_linear_20_1955" x1="162.825" y1="14.3961" x2="162.825" y2="55.3948" gradientUnits="userSpaceOnUse">
<stop stop-color="white"/>
<stop offset="1" stop-color="white" stop-opacity="0"/>
</linearGradient>
<radialGradient id="paint3_radial_20_1955" cx="0" cy="0" r="1" gradientUnits="userSpaceOnUse" gradientTransform="translate(162.825 45.6578) rotate(90) scale(21.0119)">
<stop stop-color="white"/>
<stop offset="1" stop-color="white" stop-opacity="0"/>
</radialGradient>
<linearGradient id="paint4_linear_20_1955" x1="162.825" y1="18.4967" x2="162.825" y2="51.2957" gradientUnits="userSpaceOnUse">
<stop stop-color="white"/>
<stop offset="1" stop-color="white" stop-opacity="0"/>
</linearGradient>
<radialGradient id="paint5_radial_20_1955" cx="0" cy="0" r="1" gradientUnits="userSpaceOnUse" gradientTransform="translate(117.728 53.858) rotate(90) scale(21.0119)">
<stop stop-color="white"/>
<stop offset="1" stop-color="white" stop-opacity="0"/>
</radialGradient>
<linearGradient id="paint6_linear_20_1955" x1="117.727" y1="26.6959" x2="117.727" y2="59.4949" gradientUnits="userSpaceOnUse">
<stop stop-color="white"/>
<stop offset="1" stop-color="white" stop-opacity="0"/>
</linearGradient>
<radialGradient id="paint7_radial_20_1955" cx="0" cy="0" r="1" gradientUnits="userSpaceOnUse" gradientTransform="translate(253.023 48.3486) rotate(90) scale(26.2648)">
<stop stop-color="white"/>
<stop offset="1" stop-color="white" stop-opacity="0"/>
</radialGradient>
<linearGradient id="paint8_linear_20_1955" x1="253.022" y1="14.3961" x2="253.022" y2="55.3948" gradientUnits="userSpaceOnUse">
<stop stop-color="white"/>
<stop offset="1" stop-color="white" stop-opacity="0"/>
</linearGradient>
<radialGradient id="paint9_radial_20_1955" cx="0" cy="0" r="1" gradientUnits="userSpaceOnUse" gradientTransform="translate(253.023 45.6578) rotate(90) scale(21.0119)">
<stop stop-color="white"/>
<stop offset="1" stop-color="white" stop-opacity="0"/>
</radialGradient>
<linearGradient id="paint10_linear_20_1955" x1="253.022" y1="18.4967" x2="253.022" y2="51.2957" gradientUnits="userSpaceOnUse">
<stop stop-color="white"/>
<stop offset="1" stop-color="white" stop-opacity="0"/>
</linearGradient>
<radialGradient id="paint11_radial_20_1955" cx="0" cy="0" r="1" gradientUnits="userSpaceOnUse" gradientTransform="translate(207.925 53.858) rotate(90) scale(21.0119)">
<stop stop-color="white"/>
<stop offset="1" stop-color="white" stop-opacity="0"/>
</radialGradient>
<linearGradient id="paint12_linear_20_1955" x1="207.925" y1="26.6959" x2="207.925" y2="59.4949" gradientUnits="userSpaceOnUse">
<stop stop-color="white"/>
<stop offset="1" stop-color="white" stop-opacity="0"/>
</linearGradient>
<radialGradient id="paint13_radial_20_1955" cx="0" cy="0" r="1" gradientUnits="userSpaceOnUse" gradientTransform="translate(298.122 53.858) rotate(90) scale(21.0119)">
<stop stop-color="white"/>
<stop offset="1" stop-color="white" stop-opacity="0"/>
</radialGradient>
<linearGradient id="paint14_linear_20_1955" x1="298.122" y1="26.6959" x2="298.122" y2="59.4949" gradientUnits="userSpaceOnUse">
<stop stop-color="white"/>
<stop offset="1" stop-color="white" stop-opacity="0"/>
</linearGradient>
<radialGradient id="paint15_radial_20_1955" cx="0" cy="0" r="1" gradientUnits="userSpaceOnUse" gradientTransform="translate(72.6283 48.3486) rotate(90) scale(26.2648)">
<stop stop-color="white"/>
<stop offset="1" stop-color="white" stop-opacity="0"/>
</radialGradient>
<linearGradient id="paint16_linear_20_1955" x1="72.6279" y1="14.3961" x2="72.6279" y2="55.3948" gradientUnits="userSpaceOnUse">
<stop stop-color="white"/>
<stop offset="1" stop-color="white" stop-opacity="0"/>
</linearGradient>
<radialGradient id="paint17_radial_20_1955" cx="0" cy="0" r="1" gradientUnits="userSpaceOnUse" gradientTransform="translate(72.628 45.6578) rotate(90) scale(21.0119)">
<stop stop-color="white"/>
<stop offset="1" stop-color="white" stop-opacity="0"/>
</radialGradient>
<linearGradient id="paint18_linear_20_1955" x1="72.6276" y1="18.4967" x2="72.6276" y2="51.2957" gradientUnits="userSpaceOnUse">
<stop stop-color="white"/>
<stop offset="1" stop-color="white" stop-opacity="0"/>
</linearGradient>
<linearGradient id="paint19_linear_20_1955" x1="72.6293" y1="27.9756" x2="72.6293" y2="67.234" gradientUnits="userSpaceOnUse">
<stop stop-color="white"/>
<stop offset="1" stop-color="white" stop-opacity="0"/>
</linearGradient>
<linearGradient id="paint20_linear_20_1955" x1="162.825" y1="27.7188" x2="162.825" y2="66.5813" gradientUnits="userSpaceOnUse">
<stop stop-color="white"/>
<stop offset="1" stop-color="white" stop-opacity="0"/>
</linearGradient>
<linearGradient id="paint21_linear_20_1955" x1="253.022" y1="27.7188" x2="253.022" y2="68.4319" gradientUnits="userSpaceOnUse">
<stop stop-color="white"/>
<stop offset="1" stop-color="white" stop-opacity="0"/>
</linearGradient>
<radialGradient id="paint22_radial_20_1955" cx="0" cy="0" r="1" gradientUnits="userSpaceOnUse" gradientTransform="translate(27.5304 53.858) rotate(90) scale(21.0119)">
<stop stop-color="white"/>
<stop offset="1" stop-color="white" stop-opacity="0"/>
</radialGradient>
<linearGradient id="paint23_linear_20_1955" x1="27.53" y1="26.6959" x2="27.53" y2="59.4949" gradientUnits="userSpaceOnUse">
<stop stop-color="white"/>
<stop offset="1" stop-color="white" stop-opacity="0"/>
</linearGradient>
<radialGradient id="paint24_radial_20_1955" cx="0" cy="0" r="1" gradientUnits="userSpaceOnUse" gradientTransform="translate(27.5299 39.0595) rotate(-90) scale(7.87944)">
<stop stop-color="white"/>
<stop offset="1" stop-color="white" stop-opacity="0"/>
</radialGradient>
<linearGradient id="paint25_linear_20_1955" x1="27.5303" y1="49.2455" x2="27.5303" y2="36.9459" gradientUnits="userSpaceOnUse">
<stop stop-color="white"/>
<stop offset="1" stop-color="white" stop-opacity="0"/>
</linearGradient>
<radialGradient id="paint26_radial_20_1955" cx="0" cy="0" r="1" gradientUnits="userSpaceOnUse" gradientTransform="translate(117.727 39.0595) rotate(-90) scale(7.87944)">
<stop stop-color="white"/>
<stop offset="1" stop-color="white" stop-opacity="0"/>
</radialGradient>
<linearGradient id="paint27_linear_20_1955" x1="117.728" y1="49.2455" x2="117.728" y2="36.9459" gradientUnits="userSpaceOnUse">
<stop stop-color="white"/>
<stop offset="1" stop-color="white" stop-opacity="0"/>
</linearGradient>
<radialGradient id="paint28_radial_20_1955" cx="0" cy="0" r="1" gradientUnits="userSpaceOnUse" gradientTransform="translate(207.924 39.0595) rotate(-90) scale(7.87944)">
<stop stop-color="white"/>
<stop offset="1" stop-color="white" stop-opacity="0"/>
</radialGradient>
<linearGradient id="paint29_linear_20_1955" x1="207.925" y1="49.2455" x2="207.925" y2="36.9459" gradientUnits="userSpaceOnUse">
<stop stop-color="white"/>
<stop offset="1" stop-color="white" stop-opacity="0"/>
</linearGradient>
<radialGradient id="paint30_radial_20_1955" cx="0" cy="0" r="1" gradientUnits="userSpaceOnUse" gradientTransform="translate(298.122 39.0595) rotate(-90) scale(7.87944)">
<stop stop-color="white"/>
<stop offset="1" stop-color="white" stop-opacity="0"/>
</radialGradient>
<linearGradient id="paint31_linear_20_1955" x1="298.122" y1="49.2455" x2="298.122" y2="36.9459" gradientUnits="userSpaceOnUse">
<stop stop-color="white"/>
<stop offset="1" stop-color="white" stop-opacity="0"/>
</linearGradient>
<clipPath id="clip0_20_1955">
<rect width="323.89" height="68.67" fill="white" transform="translate(0.880859 0.560547)"/>
</clipPath>
<clipPath id="clip1_20_1955">
<rect width="323.89" height="68.6729" fill="white" transform="translate(0.880859 0.55957)"/>
</clipPath>
</defs>
</svg>
