<svg width="72" height="72" viewBox="0 0 72 72" fill="none" xmlns="http://www.w3.org/2000/svg">
<g clip-path="url(#clip0_20_1574)">
<g filter="url(#filter0_dii_20_1574)">
<mask id="mask0_20_1574" style="mask-type:luminance" maskUnits="userSpaceOnUse" x="7" y="3" width="58" height="57">
<path d="M57.1305 3.12988H14.8697C10.9796 3.12988 7.82617 6.28336 7.82617 10.1734V52.4342C7.82617 56.3242 10.9796 59.4777 14.8697 59.4777H57.1305C61.0205 59.4777 64.174 56.3242 64.174 52.4342V10.1734C64.174 6.28336 61.0205 3.12988 57.1305 3.12988Z" fill="white"/>
</mask>
<g mask="url(#mask0_20_1574)">
<path d="M57.1305 3.12988H14.8697C10.9796 3.12988 7.82617 6.28336 7.82617 10.1734V52.4342C7.82617 56.3242 10.9796 59.4777 14.8697 59.4777H57.1305C61.0205 59.4777 64.174 56.3242 64.174 52.4342V10.1734C64.174 6.28336 61.0205 3.12988 57.1305 3.12988Z" fill="url(#paint0_linear_20_1574)" fill-opacity="0.12"/>
<path d="M57.1305 3.12988H14.8697C10.9796 3.12988 7.82617 6.28336 7.82617 10.1734V52.4342C7.82617 56.3242 10.9796 59.4777 14.8697 59.4777H57.1305C61.0205 59.4777 64.174 56.3242 64.174 52.4342V10.1734C64.174 6.28336 61.0205 3.12988 57.1305 3.12988Z" fill="url(#paint1_radial_20_1574)" fill-opacity="0.24"/>
<path opacity="0.3" d="M57.1315 7.0918H14.8706C13.1687 7.0918 11.7891 8.47144 11.7891 10.1733V52.4342C11.7891 54.1361 13.1687 55.5157 14.8706 55.5157H57.1315C58.8333 55.5157 60.213 54.1361 60.213 52.4342V10.1733C60.213 8.47144 58.8333 7.0918 57.1315 7.0918Z" stroke="#C4B5FF" stroke-width="0.880435"/>
<g filter="url(#filter1_di_20_1574)">
<path d="M25.4336 20.7393H35.9988V31.3045H25.4336V20.7393Z" fill="white"/>
<path d="M25.4336 41.8691H35.9988V52.4344H25.4336V41.8691Z" fill="white"/>
<path d="M46.5645 20.7393H57.1297V31.3045H46.5645V20.7393Z" fill="white"/>
<path d="M46.5645 41.8691H57.1297V50.6735C57.1297 51.646 56.3413 52.4344 55.3688 52.4344H46.5645V41.8691Z" fill="white"/>
<path d="M14.8691 20.7393H25.4344V31.3045H14.8691V20.7393Z" fill="white"/>
<path d="M14.8691 41.8691H25.4344V52.4344H16.63C15.6575 52.4344 14.8691 51.646 14.8691 50.6735V41.8691Z" fill="white"/>
<path d="M36 20.7393H46.5652V31.3045H36V20.7393Z" fill="white"/>
<path d="M36 41.8691H46.5652V52.4344H36V41.8691Z" fill="white"/>
<path d="M25.4336 10.1738H35.9988V20.739H25.4336V10.1738Z" fill="white"/>
<path d="M25.4336 31.3047H35.9988V41.8699H25.4336V31.3047Z" fill="white"/>
<path d="M46.5645 10.1738H55.3688C56.3413 10.1738 57.1297 10.9622 57.1297 11.9347V20.739H46.5645V10.1738Z" fill="white"/>
<path d="M46.5645 31.3047H57.1297V41.8699H46.5645V31.3047Z" fill="white"/>
<path d="M14.8691 11.9347C14.8691 10.9622 15.6575 10.1738 16.63 10.1738H25.4344V20.739H14.8691V11.9347Z" fill="white"/>
<path d="M14.8691 31.3047H25.4344V41.8699H14.8691V31.3047Z" fill="white"/>
<path d="M36 10.1738H46.5652V20.739H36V10.1738Z" fill="white"/>
<path d="M36 31.3047H46.5652V41.8699H36V31.3047Z" fill="white"/>
</g>
<path d="M18.3906 18.5371H53.608" stroke="url(#paint2_linear_20_1574)" stroke-width="0.880435"/>
<path d="M45.2441 13.6953V48.9127" stroke="url(#paint3_linear_20_1574)" stroke-width="0.880435"/>
<path d="M18.3906 43.1895H53.608" stroke="url(#paint4_linear_20_1574)" stroke-width="0.880435"/>
<path d="M26.7559 13.6953V48.9127" stroke="url(#paint5_linear_20_1574)" stroke-width="0.880435"/>
<path opacity="0.5" d="M30.8326 36.3915C29.2761 35.2939 28.1095 33.7293 27.5019 31.9243C26.8942 30.1193 26.877 28.1677 27.4528 26.3523C28.0285 24.5369 29.1673 22.9518 30.7041 21.827C32.241 20.7021 34.096 20.0957 36.0006 20.0957C37.9051 20.0957 39.7602 20.7021 41.297 21.827C42.8339 22.9518 43.9727 24.5369 44.5484 26.3523C45.1242 28.1677 45.1069 30.1193 44.4993 31.9243C43.8916 33.7293 42.7251 35.2939 41.1686 36.3915L43.5035 41.7271C43.541 41.8125 43.5566 41.9059 43.5488 41.9989C43.5411 42.0919 43.5103 42.1814 43.4592 42.2594C43.4081 42.3374 43.3383 42.4015 43.2562 42.4458C43.1741 42.4901 43.0823 42.5131 42.989 42.5129H29.0111C28.918 42.5131 28.8263 42.49 28.7442 42.4458C28.6623 42.4015 28.5926 42.3376 28.5415 42.2597C28.4905 42.1819 28.4596 42.0925 28.4518 41.9997C28.4439 41.9069 28.4593 41.8136 28.4965 41.7283L30.8315 36.3915H30.8326ZM38.382 35.6148L39.875 34.56C41.0428 33.737 41.918 32.5635 42.3741 31.2098C42.8303 29.8559 42.8434 28.3921 42.4117 27.0303C41.9801 25.6685 41.126 24.4796 39.9733 23.6357C38.8206 22.7919 37.4292 22.337 36.0006 22.337C34.572 22.337 33.1806 22.7919 32.0279 23.6357C30.8752 24.4796 30.0211 25.6685 29.5895 27.0303C29.1578 28.3921 29.1709 29.8559 29.627 31.2098C30.0831 32.5635 30.9584 33.737 32.1261 34.56L33.6181 35.6148L31.5813 40.271H40.4187L38.382 35.6148ZM31.6497 30.1491L33.8243 29.6054C33.945 30.0912 34.2248 30.5226 34.619 30.831C35.0134 31.1393 35.4995 31.3068 36 31.3068C36.5006 31.3068 36.9867 31.1393 37.381 30.831C37.7753 30.5226 38.0551 30.0912 38.1758 29.6054L40.3503 30.1491C40.1065 31.1181 39.546 31.978 38.758 32.5923C37.9699 33.2067 36.9993 33.5403 36 33.5403C35.0008 33.5403 34.0301 33.2067 33.242 32.5923C32.454 31.978 31.8936 31.1181 31.6497 30.1491Z" stroke="#6C47FF" stroke-width="0.880435"/>
</g>
<path d="M57.1299 2.34766H14.8691C10.5468 2.34766 7.04297 5.85151 7.04297 10.1737V52.4346C7.04297 56.7568 10.5468 60.2607 14.8691 60.2607H57.1299C61.4522 60.2607 64.956 56.7568 64.956 52.4346V10.1737C64.956 5.85151 61.4522 2.34766 57.1299 2.34766Z" stroke="white" stroke-width="1.56522"/>
</g>
</g>
<defs>
<filter id="filter0_dii_20_1574" x="-0.00110388" y="0.000212193" width="72.0003" height="71.9993" filterUnits="userSpaceOnUse" color-interpolation-filters="sRGB">
<feFlood flood-opacity="0" result="BackgroundImageFix"/>
<feColorMatrix in="SourceAlpha" type="matrix" values="0 0 0 0 0 0 0 0 0 0 0 0 0 0 0 0 0 0 127 0" result="hardAlpha"/>
<feOffset dy="4.69565"/>
<feGaussianBlur stdDeviation="3.13043"/>
<feComposite in2="hardAlpha" operator="out"/>
<feColorMatrix type="matrix" values="0 0 0 0 0.223529 0 0 0 0 0.261438 0 0 0 0 0.337255 0 0 0 0.02 0"/>
<feBlend mode="normal" in2="BackgroundImageFix" result="effect1_dropShadow_20_1574"/>
<feBlend mode="normal" in="SourceGraphic" in2="effect1_dropShadow_20_1574" result="shape"/>
<feColorMatrix in="SourceAlpha" type="matrix" values="0 0 0 0 0 0 0 0 0 0 0 0 0 0 0 0 0 0 127 0" result="hardAlpha"/>
<feOffset dy="0.782609"/>
<feGaussianBlur stdDeviation="0.782609"/>
<feComposite in2="hardAlpha" operator="arithmetic" k2="-1" k3="1"/>
<feColorMatrix type="matrix" values="0 0 0 0 0.223529 0 0 0 0 0.261438 0 0 0 0 0.337255 0 0 0 0.04 0"/>
<feBlend mode="normal" in2="shape" result="effect2_innerShadow_20_1574"/>
<feColorMatrix in="SourceAlpha" type="matrix" values="0 0 0 0 0 0 0 0 0 0 0 0 0 0 0 0 0 0 127 0" result="hardAlpha"/>
<feOffset dy="1.56522"/>
<feGaussianBlur stdDeviation="1.56522"/>
<feComposite in2="hardAlpha" operator="arithmetic" k2="-1" k3="1"/>
<feColorMatrix type="matrix" values="0 0 0 0 0.223529 0 0 0 0 0.261438 0 0 0 0 0.337255 0 0 0 0.02 0"/>
<feBlend mode="normal" in2="effect2_innerShadow_20_1574" result="effect3_innerShadow_20_1574"/>
</filter>
<filter id="filter1_di_20_1574" x="9.58653" y="7.53252" width="52.825" height="52.826" filterUnits="userSpaceOnUse" color-interpolation-filters="sRGB">
<feFlood flood-opacity="0" result="BackgroundImageFix"/>
<feColorMatrix in="SourceAlpha" type="matrix" values="0 0 0 0 0 0 0 0 0 0 0 0 0 0 0 0 0 0 127 0" result="hardAlpha"/>
<feOffset dy="2.6413"/>
<feGaussianBlur stdDeviation="2.6413"/>
<feComposite in2="hardAlpha" operator="out"/>
<feColorMatrix type="matrix" values="0 0 0 0 0.712558 0 0 0 0 0.64 0 0 0 0 1 0 0 0 0.12 0"/>
<feBlend mode="normal" in2="BackgroundImageFix" result="effect1_dropShadow_20_1574"/>
<feBlend mode="normal" in="SourceGraphic" in2="effect1_dropShadow_20_1574" result="shape"/>
<feColorMatrix in="SourceAlpha" type="matrix" values="0 0 0 0 0 0 0 0 0 0 0 0 0 0 0 0 0 0 127 0" result="hardAlpha"/>
<feOffset dy="0.880435"/>
<feGaussianBlur stdDeviation="0.880435"/>
<feComposite in2="hardAlpha" operator="arithmetic" k2="-1" k3="1"/>
<feColorMatrix type="matrix" values="0 0 0 0 0.712558 0 0 0 0 0.64 0 0 0 0 1 0 0 0 0.24 0"/>
<feBlend mode="normal" in2="shape" result="effect2_innerShadow_20_1574"/>
</filter>
<linearGradient id="paint0_linear_20_1574" x1="36.0001" y1="-28.5658" x2="36.0001" y2="90.6701" gradientUnits="userSpaceOnUse">
<stop stop-color="#B6A3FF"/>
<stop offset="1" stop-color="#B6A3FF" stop-opacity="0"/>
</linearGradient>
<radialGradient id="paint1_radial_20_1574" cx="0" cy="0" r="1" gradientUnits="userSpaceOnUse" gradientTransform="translate(36.0001 57.4653) rotate(90) scale(39.2423)">
<stop stop-color="#B6A3FF"/>
<stop offset="1" stop-color="#B6A3FF" stop-opacity="0"/>
</radialGradient>
<linearGradient id="paint2_linear_20_1574" x1="-nan" y1="-nan" x2="-nan" y2="-nan" gradientUnits="userSpaceOnUse">
<stop stop-color="#6C47FF" stop-opacity="0"/>
<stop offset="0.333333" stop-color="#6C47FF"/>
<stop offset="0.666667" stop-color="#6C47FF"/>
<stop offset="1" stop-color="#6C47FF" stop-opacity="0"/>
</linearGradient>
<linearGradient id="paint3_linear_20_1574" x1="-nan" y1="-nan" x2="-nan" y2="-nan" gradientUnits="userSpaceOnUse">
<stop stop-color="#6C47FF" stop-opacity="0"/>
<stop offset="0.333333" stop-color="#6C47FF"/>
<stop offset="0.666667" stop-color="#6C47FF"/>
<stop offset="1" stop-color="#6C47FF" stop-opacity="0"/>
</linearGradient>
<linearGradient id="paint4_linear_20_1574" x1="-nan" y1="-nan" x2="-nan" y2="-nan" gradientUnits="userSpaceOnUse">
<stop stop-color="#6C47FF" stop-opacity="0"/>
<stop offset="0.333333" stop-color="#6C47FF"/>
<stop offset="0.666667" stop-color="#6C47FF"/>
<stop offset="1" stop-color="#6C47FF" stop-opacity="0"/>
</linearGradient>
<linearGradient id="paint5_linear_20_1574" x1="-nan" y1="-nan" x2="-nan" y2="-nan" gradientUnits="userSpaceOnUse">
<stop stop-color="#6C47FF" stop-opacity="0"/>
<stop offset="0.333333" stop-color="#6C47FF"/>
<stop offset="0.666667" stop-color="#6C47FF"/>
<stop offset="1" stop-color="#6C47FF" stop-opacity="0"/>
</linearGradient>
<clipPath id="clip0_20_1574">
<rect width="72" height="72" fill="white"/>
</clipPath>
</defs>
</svg>
