<svg width="1216" height="428" viewBox="0 0 1216 428" fill="none" xmlns="http://www.w3.org/2000/svg">
<g clip-path="url(#clip0_20_1713)">
<g clip-path="url(#clip1_20_1713)">
<path d="M60.8001 55.8189L6.20329e-05 20.7731L60.8001 -14.2726M60.8001 55.8189L3.31088e-05 90.8649L60.8 125.91M60.8001 55.8189L121.6 90.8649M60.8001 55.8189L121.6 20.7731M60.8001 -14.2726L121.6 20.7731M60.8001 -14.2726L121.6 -49.3183L182.4 -14.2726M60.8 125.91L121.6 90.8649M60.8 125.91L121.6 160.956M60.8 125.91L5.36638e-05 160.956L60.8 196.002M121.6 90.8649L182.4 125.91M121.6 90.8649L182.4 55.8189M121.6 20.7731L182.4 55.8189M121.6 20.7731L182.4 -14.2726M182.4 125.91L121.6 160.956M182.4 125.91L243.2 160.956M182.4 125.91L243.2 90.8649M182.4 55.8189L243.2 90.8649M182.4 55.8189L243.2 20.7732M121.6 160.956L182.4 196.002M121.6 160.956L60.8 196.002M60.8 196.002L0 231.047L60.8 266.093M60.8 196.002L121.6 231.047M243.2 160.956L182.4 196.002M243.2 160.956L304 196.002M243.2 160.956L304 125.91M243.2 90.8649L304 125.91M243.2 90.8649L304 55.8189M182.4 196.002L243.2 231.047M182.4 196.002L121.6 231.047M304 196.002L243.2 231.047M304 196.002L364.8 231.047M304 196.002L364.8 160.956M304 125.91L364.8 160.956M304 125.91L364.8 90.8649M243.2 231.047L304 266.093M243.2 231.047L182.4 266.093M121.6 231.047L60.8 266.093M121.6 231.047L182.4 266.093M364.8 231.047L304 266.093M364.8 231.047L425.6 266.093M364.8 231.047L425.6 196.002M364.8 160.956L425.6 196.002M364.8 160.956L425.6 125.91M304 266.093L364.8 301.139M304 266.093L243.2 301.139M182.4 266.093L121.6 301.139M182.4 266.093L243.2 301.139M425.6 266.093L364.8 301.139M425.6 266.093L486.4 301.139M425.6 266.093L486.4 231.047M425.6 196.002L486.4 231.047M425.6 196.002L486.4 160.956M364.8 301.139L425.6 336.185M364.8 301.139L304 336.185M243.2 301.139L182.4 336.185M243.2 301.139L304 336.185M486.4 301.139L425.6 336.185M486.4 301.139L547.2 336.185M486.4 301.139L547.2 266.093M486.4 231.047L547.2 266.093M486.4 231.047L547.2 196.002M425.6 336.185L486.4 371.231M425.6 336.185L364.8 371.231M304 336.185L243.2 371.231M304 336.185L364.8 371.231M547.2 336.185L486.4 371.231M547.2 336.185L608 301.139M547.2 266.093L608 301.139M547.2 266.093L608 231.047M486.4 371.231L425.6 406.277M364.8 371.231L304 406.277M364.8 371.231L425.6 406.277M608 301.139L668.8 336.185M608 301.139L668.8 266.093M425.6 406.277L364.8 441.322L304 406.277M182.4 -14.2726L243.2 20.7732M182.4 -14.2726L243.2 -49.3183L304 -14.2726M729.6 371.231L790.4 406.277M729.6 371.231L668.8 336.185M729.6 371.231L790.4 336.185M790.4 406.277L851.2 441.322L912 406.277M790.4 406.277L851.2 371.231M668.8 336.185L729.6 301.139M790.4 336.185L851.2 371.231M790.4 336.185L729.6 301.139M790.4 336.185L851.2 301.139M912 406.277L851.2 371.231M912 406.277L972.8 441.322L1033.6 406.277M912 406.277L972.8 371.231M851.2 371.231L912 336.185M243.2 20.7732L304 55.8189M243.2 20.7732L304 -14.2726M304 55.8189L364.8 90.8649M304 55.8189L364.8 20.7731M364.8 90.8649L425.6 125.91M364.8 90.8649L425.6 55.8189M425.6 125.91L486.4 160.956M425.6 125.91L486.4 90.8649M486.4 160.956L547.2 196.002M486.4 160.956L547.2 125.91M547.2 196.002L608 231.047M547.2 196.002L608 160.956M608 231.047L668.8 266.093M608 231.047L668.8 196.002M668.8 266.093L729.6 301.139M668.8 266.093L729.6 231.047M729.6 301.139L790.4 266.093M851.2 301.139L912 336.185M851.2 301.139L790.4 266.093M851.2 301.139L912 266.093M912 336.185L972.8 371.231M912 336.185L972.8 301.139M304 -14.2726L364.8 20.7731M304 -14.2726L364.8 -49.3183L425.6 -14.2726M1033.6 406.277L972.8 371.231M1033.6 406.277L1094.4 441.322M1033.6 406.277L1094.4 371.231M972.8 371.231L1033.6 336.185M364.8 20.7731L425.6 55.8189M364.8 20.7731L425.6 -14.2726M425.6 55.8189L486.4 90.8649M425.6 55.8189L486.4 20.7732M486.4 90.8649L547.2 125.91M486.4 90.8649L547.2 55.8189M547.2 125.91L608 160.956M547.2 125.91L608 90.8649M608 160.956L668.8 196.002M608 160.956L668.8 125.91M668.8 196.002L729.6 231.047M668.8 196.002L729.6 160.956M729.6 231.047L790.4 266.093M729.6 231.047L790.4 196.002M790.4 266.093L851.2 231.047M912 266.093L972.8 301.139M912 266.093L851.2 231.047M912 266.093L972.8 231.047M972.8 301.139L1033.6 336.185M972.8 301.139L1033.6 266.093M1033.6 336.185L1094.4 371.231M1033.6 336.185L1094.4 301.139M425.6 -14.2726L486.4 20.7732M425.6 -14.2726L486.4 -49.3183L547.2 -14.2726M1094.4 441.322L1155.2 476.368M1094.4 441.322L1155.2 406.277M1094.4 371.231L1155.2 406.277M1094.4 371.231L1155.2 336.185M1155.2 406.277L1216 441.322M1155.2 406.277L1216 371.231L1155.2 336.185M486.4 20.7732L547.2 55.8189M486.4 20.7732L547.2 -14.2726M547.2 55.8189L608 90.8649M547.2 55.8189L608 20.7731M608 90.8649L668.8 125.91M608 90.8649L668.8 55.8189M668.8 125.91L729.6 160.956M668.8 125.91L729.6 90.8649M729.6 160.956L790.4 196.002M729.6 160.956L790.4 125.91M790.4 196.002L851.2 231.047M790.4 196.002L851.2 160.956M851.2 231.047L912 196.002M972.8 231.047L1033.6 266.093M972.8 231.047L912 196.002M972.8 231.047L1033.6 196.002M1033.6 266.093L1094.4 301.139M1033.6 266.093L1094.4 231.047M1094.4 301.139L1155.2 336.185M1094.4 301.139L1155.2 266.093M1155.2 336.185L1216 301.139L1155.2 266.093M547.2 -14.2726L608 20.7731M547.2 -14.2726L608 -49.3184L668.8 -14.2726M608 20.7731L668.8 55.8189M608 20.7731L668.8 -14.2726M668.8 55.8189L729.6 90.8649M668.8 55.8189L729.6 20.7731M729.6 90.8649L790.4 125.91M729.6 90.8649L790.4 55.8189M790.4 125.91L851.2 160.956M790.4 125.91L851.2 90.8649M851.2 160.956L912 196.002M851.2 160.956L912 125.91M912 196.002L972.8 160.956M1033.6 196.002L1094.4 231.047M1033.6 196.002L972.8 160.956M1033.6 196.002L1094.4 160.956M1094.4 231.047L1155.2 266.093M1094.4 231.047L1155.2 196.002M1155.2 266.093L1216 231.047L1155.2 196.002M668.8 -14.2726L729.6 20.7731M668.8 -14.2726L729.6 -49.3183L790.4 -14.2726M729.6 20.7731L790.4 55.8189M729.6 20.7731L790.4 -14.2726M790.4 55.8189L851.2 90.8649M790.4 55.8189L851.2 20.7732M851.2 90.8649L912 125.91M851.2 90.8649L912 55.8189M912 125.91L972.8 160.956M912 125.91L972.8 90.8649M972.8 160.956L1033.6 125.91M3.69254e-05 441.322L60.8 406.277M60.8 406.277L4.111e-05 371.231L60.8 336.185M60.8 406.277L121.6 441.322M60.8 406.277L121.6 371.231M60.8 476.368L121.6 441.322M121.6 441.322L182.4 406.277M1094.4 160.956L1155.2 196.002M1094.4 160.956L1033.6 125.91M1094.4 160.956L1155.2 125.91M1155.2 196.002L1216 160.956L1155.2 125.91M790.4 -14.2726L851.2 20.7732M790.4 -14.2726L851.2 -49.3183L912 -14.2726M851.2 20.7732L912 55.8189M851.2 20.7732L912 -14.2726M912 55.8189L972.8 90.8649M912 55.8189L972.8 20.7731M972.8 90.8649L1033.6 125.91M972.8 90.8649L1033.6 55.8189M1033.6 125.91L1094.4 90.8649M60.8 336.185L2.0555e-05 301.139L60.8 266.093M60.8 336.185L121.6 371.231M60.8 336.185L121.6 301.139M121.6 371.231L182.4 406.277M121.6 371.231L182.4 336.185M182.4 406.277L243.2 441.322L304 406.277M182.4 406.277L243.2 371.231M1155.2 125.91L1094.4 90.8649M1155.2 125.91L1216 90.8649L1155.2 55.8189M912 -14.2726L972.8 20.7731M912 -14.2726L972.8 -49.3183L1033.6 -14.2726M972.8 20.7731L1033.6 55.8189M972.8 20.7731L1033.6 -14.2726M1033.6 55.8189L1094.4 90.8649M1033.6 55.8189L1094.4 20.7731M1094.4 90.8649L1155.2 55.8189M60.8 266.093L121.6 301.139M121.6 301.139L182.4 336.185M182.4 336.185L243.2 371.231M304 406.277L243.2 371.231M1155.2 55.8189L1094.4 20.7731M1155.2 55.8189L1216 20.7732L1155.2 -14.2726M1033.6 -14.2726L1094.4 20.7731M1033.6 -14.2726L1094.4 -49.3183L1155.2 -14.2726M1094.4 20.7731L1155.2 -14.2726" stroke="url(#paint0_radial_20_1713)" stroke-opacity="0.2" stroke-width="1.40308"/>
<path d="M60.8001 55.8189L6.20329e-05 20.7731L60.8001 -14.2726M60.8001 55.8189L3.31088e-05 90.8649L60.8 125.91M60.8001 55.8189L121.6 90.8649M60.8001 55.8189L121.6 20.7731M60.8001 -14.2726L121.6 20.7731M60.8001 -14.2726L121.6 -49.3183L182.4 -14.2726M60.8 125.91L121.6 90.8649M60.8 125.91L121.6 160.956M60.8 125.91L5.36638e-05 160.956L60.8 196.002M121.6 90.8649L182.4 125.91M121.6 90.8649L182.4 55.8189M121.6 20.7731L182.4 55.8189M121.6 20.7731L182.4 -14.2726M182.4 125.91L121.6 160.956M182.4 125.91L243.2 160.956M182.4 125.91L243.2 90.8649M182.4 55.8189L243.2 90.8649M182.4 55.8189L243.2 20.7732M121.6 160.956L182.4 196.002M121.6 160.956L60.8 196.002M60.8 196.002L0 231.047L60.8 266.093M60.8 196.002L121.6 231.047M243.2 160.956L182.4 196.002M243.2 160.956L304 196.002M243.2 160.956L304 125.91M243.2 90.8649L304 125.91M243.2 90.8649L304 55.8189M182.4 196.002L243.2 231.047M182.4 196.002L121.6 231.047M304 196.002L243.2 231.047M304 196.002L364.8 231.047M304 196.002L364.8 160.956M304 125.91L364.8 160.956M304 125.91L364.8 90.8649M243.2 231.047L304 266.093M243.2 231.047L182.4 266.093M121.6 231.047L60.8 266.093M121.6 231.047L182.4 266.093M364.8 231.047L304 266.093M364.8 231.047L425.6 266.093M364.8 231.047L425.6 196.002M364.8 160.956L425.6 196.002M364.8 160.956L425.6 125.91M304 266.093L364.8 301.139M304 266.093L243.2 301.139M182.4 266.093L121.6 301.139M182.4 266.093L243.2 301.139M425.6 266.093L364.8 301.139M425.6 266.093L486.4 301.139M425.6 266.093L486.4 231.047M425.6 196.002L486.4 231.047M425.6 196.002L486.4 160.956M364.8 301.139L425.6 336.185M364.8 301.139L304 336.185M243.2 301.139L182.4 336.185M243.2 301.139L304 336.185M486.4 301.139L425.6 336.185M486.4 301.139L547.2 336.185M486.4 301.139L547.2 266.093M486.4 231.047L547.2 266.093M486.4 231.047L547.2 196.002M425.6 336.185L486.4 371.231M425.6 336.185L364.8 371.231M304 336.185L243.2 371.231M304 336.185L364.8 371.231M547.2 336.185L486.4 371.231M547.2 336.185L608 301.139M547.2 266.093L608 301.139M547.2 266.093L608 231.047M486.4 371.231L425.6 406.277M364.8 371.231L304 406.277M364.8 371.231L425.6 406.277M608 301.139L668.8 336.185M608 301.139L668.8 266.093M425.6 406.277L364.8 441.322L304 406.277M182.4 -14.2726L243.2 20.7732M182.4 -14.2726L243.2 -49.3183L304 -14.2726M729.6 371.231L790.4 406.277M729.6 371.231L668.8 336.185M729.6 371.231L790.4 336.185M790.4 406.277L851.2 441.322L912 406.277M790.4 406.277L851.2 371.231M668.8 336.185L729.6 301.139M790.4 336.185L851.2 371.231M790.4 336.185L729.6 301.139M790.4 336.185L851.2 301.139M912 406.277L851.2 371.231M912 406.277L972.8 441.322L1033.6 406.277M912 406.277L972.8 371.231M851.2 371.231L912 336.185M243.2 20.7732L304 55.8189M243.2 20.7732L304 -14.2726M304 55.8189L364.8 90.8649M304 55.8189L364.8 20.7731M364.8 90.8649L425.6 125.91M364.8 90.8649L425.6 55.8189M425.6 125.91L486.4 160.956M425.6 125.91L486.4 90.8649M486.4 160.956L547.2 196.002M486.4 160.956L547.2 125.91M547.2 196.002L608 231.047M547.2 196.002L608 160.956M608 231.047L668.8 266.093M608 231.047L668.8 196.002M668.8 266.093L729.6 301.139M668.8 266.093L729.6 231.047M729.6 301.139L790.4 266.093M851.2 301.139L912 336.185M851.2 301.139L790.4 266.093M851.2 301.139L912 266.093M912 336.185L972.8 371.231M912 336.185L972.8 301.139M304 -14.2726L364.8 20.7731M304 -14.2726L364.8 -49.3183L425.6 -14.2726M1033.6 406.277L972.8 371.231M1033.6 406.277L1094.4 441.322M1033.6 406.277L1094.4 371.231M972.8 371.231L1033.6 336.185M364.8 20.7731L425.6 55.8189M364.8 20.7731L425.6 -14.2726M425.6 55.8189L486.4 90.8649M425.6 55.8189L486.4 20.7732M486.4 90.8649L547.2 125.91M486.4 90.8649L547.2 55.8189M547.2 125.91L608 160.956M547.2 125.91L608 90.8649M608 160.956L668.8 196.002M608 160.956L668.8 125.91M668.8 196.002L729.6 231.047M668.8 196.002L729.6 160.956M729.6 231.047L790.4 266.093M729.6 231.047L790.4 196.002M790.4 266.093L851.2 231.047M912 266.093L972.8 301.139M912 266.093L851.2 231.047M912 266.093L972.8 231.047M972.8 301.139L1033.6 336.185M972.8 301.139L1033.6 266.093M1033.6 336.185L1094.4 371.231M1033.6 336.185L1094.4 301.139M425.6 -14.2726L486.4 20.7732M425.6 -14.2726L486.4 -49.3183L547.2 -14.2726M1094.4 441.322L1155.2 476.368M1094.4 441.322L1155.2 406.277M1094.4 371.231L1155.2 406.277M1094.4 371.231L1155.2 336.185M1155.2 406.277L1216 441.322M1155.2 406.277L1216 371.231L1155.2 336.185M486.4 20.7732L547.2 55.8189M486.4 20.7732L547.2 -14.2726M547.2 55.8189L608 90.8649M547.2 55.8189L608 20.7731M608 90.8649L668.8 125.91M608 90.8649L668.8 55.8189M668.8 125.91L729.6 160.956M668.8 125.91L729.6 90.8649M729.6 160.956L790.4 196.002M729.6 160.956L790.4 125.91M790.4 196.002L851.2 231.047M790.4 196.002L851.2 160.956M851.2 231.047L912 196.002M972.8 231.047L1033.6 266.093M972.8 231.047L912 196.002M972.8 231.047L1033.6 196.002M1033.6 266.093L1094.4 301.139M1033.6 266.093L1094.4 231.047M1094.4 301.139L1155.2 336.185M1094.4 301.139L1155.2 266.093M1155.2 336.185L1216 301.139L1155.2 266.093M547.2 -14.2726L608 20.7731M547.2 -14.2726L608 -49.3184L668.8 -14.2726M608 20.7731L668.8 55.8189M608 20.7731L668.8 -14.2726M668.8 55.8189L729.6 90.8649M668.8 55.8189L729.6 20.7731M729.6 90.8649L790.4 125.91M729.6 90.8649L790.4 55.8189M790.4 125.91L851.2 160.956M790.4 125.91L851.2 90.8649M851.2 160.956L912 196.002M851.2 160.956L912 125.91M912 196.002L972.8 160.956M1033.6 196.002L1094.4 231.047M1033.6 196.002L972.8 160.956M1033.6 196.002L1094.4 160.956M1094.4 231.047L1155.2 266.093M1094.4 231.047L1155.2 196.002M1155.2 266.093L1216 231.047L1155.2 196.002M668.8 -14.2726L729.6 20.7731M668.8 -14.2726L729.6 -49.3183L790.4 -14.2726M729.6 20.7731L790.4 55.8189M729.6 20.7731L790.4 -14.2726M790.4 55.8189L851.2 90.8649M790.4 55.8189L851.2 20.7732M851.2 90.8649L912 125.91M851.2 90.8649L912 55.8189M912 125.91L972.8 160.956M912 125.91L972.8 90.8649M972.8 160.956L1033.6 125.91M3.69254e-05 441.322L60.8 406.277M60.8 406.277L4.111e-05 371.231L60.8 336.185M60.8 406.277L121.6 441.322M60.8 406.277L121.6 371.231M60.8 476.368L121.6 441.322M121.6 441.322L182.4 406.277M1094.4 160.956L1155.2 196.002M1094.4 160.956L1033.6 125.91M1094.4 160.956L1155.2 125.91M1155.2 196.002L1216 160.956L1155.2 125.91M790.4 -14.2726L851.2 20.7732M790.4 -14.2726L851.2 -49.3183L912 -14.2726M851.2 20.7732L912 55.8189M851.2 20.7732L912 -14.2726M912 55.8189L972.8 90.8649M912 55.8189L972.8 20.7731M972.8 90.8649L1033.6 125.91M972.8 90.8649L1033.6 55.8189M1033.6 125.91L1094.4 90.8649M60.8 336.185L2.0555e-05 301.139L60.8 266.093M60.8 336.185L121.6 371.231M60.8 336.185L121.6 301.139M121.6 371.231L182.4 406.277M121.6 371.231L182.4 336.185M182.4 406.277L243.2 441.322L304 406.277M182.4 406.277L243.2 371.231M1155.2 125.91L1094.4 90.8649M1155.2 125.91L1216 90.8649L1155.2 55.8189M912 -14.2726L972.8 20.7731M912 -14.2726L972.8 -49.3183L1033.6 -14.2726M972.8 20.7731L1033.6 55.8189M972.8 20.7731L1033.6 -14.2726M1033.6 55.8189L1094.4 90.8649M1033.6 55.8189L1094.4 20.7731M1094.4 90.8649L1155.2 55.8189M60.8 266.093L121.6 301.139M121.6 301.139L182.4 336.185M182.4 336.185L243.2 371.231M304 406.277L243.2 371.231M1155.2 55.8189L1094.4 20.7731M1155.2 55.8189L1216 20.7732L1155.2 -14.2726M1033.6 -14.2726L1094.4 20.7731M1033.6 -14.2726L1094.4 -49.3183L1155.2 -14.2726M1094.4 20.7731L1155.2 -14.2726" stroke="url(#paint1_linear_20_1713)" stroke-width="1.40308"/>
</g>
</g>
<defs>
<radialGradient id="paint0_radial_20_1713" cx="0" cy="0" r="1" gradientUnits="userSpaceOnUse" gradientTransform="translate(607.764 317.961) rotate(90) scale(338.308 677.217)">
<stop stop-color="white"/>
<stop offset="1" stop-color="white" stop-opacity="0"/>
</radialGradient>
<linearGradient id="paint1_linear_20_1713" x1="608" y1="-74.9804" x2="608" y2="-54.9879" gradientUnits="userSpaceOnUse">
<stop stop-color="#BEF972" stop-opacity="0"/>
<stop offset="0.453125" stop-color="#BEF972"/>
<stop offset="1" stop-color="#BEF972" stop-opacity="0"/>
</linearGradient>
<clipPath id="clip0_20_1713">
<rect width="1216" height="427.05" fill="white"/>
</clipPath>
<clipPath id="clip1_20_1713">
<rect width="1216" height="525.686" fill="white" transform="translate(0 -49.3184)"/>
</clipPath>
</defs>
</svg>
