<svg width="14" height="15" viewBox="0 0 14 15" fill="none" xmlns="http://www.w3.org/2000/svg">
<path fill-rule="evenodd" clip-rule="evenodd" d="M8.59961 0.958984L5.39961 4.15898V14.4214L8.59961 11.2214V0.958984ZM1.96521 2.32458C1.85333 2.21274 1.7108 2.13657 1.55563 2.10572C1.40047 2.07486 1.23965 2.09071 1.09349 2.15124C0.947326 2.21178 0.822396 2.31429 0.734488 2.44582C0.646581 2.57735 0.599643 2.73198 0.599609 2.89018V10.8902C0.599655 11.1023 0.68397 11.3058 0.834009 11.4558L3.79961 14.4214V4.15898L1.96521 2.32458ZM13.1652 3.92458L10.1996 0.958984V11.2214L12.034 13.0558C12.1459 13.1676 12.2884 13.2438 12.4436 13.2747C12.5987 13.3055 12.7596 13.2897 12.9057 13.2291C13.0519 13.1686 13.1768 13.0661 13.2647 12.9346C13.3526 12.803 13.3996 12.6484 13.3996 12.4902V4.49018C13.3996 4.27803 13.3152 4.07458 13.1652 3.92458Z" fill="white"/>
</svg>
