<svg width="14" height="14" viewBox="0 0 14 14" fill="none" xmlns="http://www.w3.org/2000/svg">
<path fill-rule="evenodd" clip-rule="evenodd" d="M2.99961 0.290039C3.21178 0.290039 3.41527 0.374325 3.56529 0.524354C3.71532 0.674383 3.79961 0.877866 3.79961 1.09004V1.89004H4.59961C4.81178 1.89004 5.01527 1.97432 5.16529 2.12435C5.31532 2.27438 5.39961 2.47787 5.39961 2.69004C5.39961 2.90221 5.31532 3.1057 5.16529 3.25572C5.01527 3.40575 4.81178 3.49004 4.59961 3.49004H3.79961V4.29004C3.79961 4.50221 3.71532 4.7057 3.56529 4.85572C3.41527 5.00575 3.21178 5.09004 2.99961 5.09004C2.78744 5.09004 2.58395 5.00575 2.43392 4.85572C2.2839 4.7057 2.19961 4.50221 2.19961 4.29004V3.49004H1.39961C1.18744 3.49004 0.983953 3.40575 0.833924 3.25572C0.683895 3.1057 0.599609 2.90221 0.599609 2.69004C0.599609 2.47787 0.683895 2.27438 0.833924 2.12435C0.983953 1.97432 1.18744 1.89004 1.39961 1.89004H2.19961V1.09004C2.19961 0.877866 2.2839 0.674383 2.43392 0.524354C2.58395 0.374325 2.78744 0.290039 2.99961 0.290039ZM2.99961 8.29004C3.21178 8.29004 3.41527 8.37432 3.56529 8.52435C3.71532 8.67438 3.79961 8.87787 3.79961 9.09004V9.89004H4.59961C4.81178 9.89004 5.01527 9.97433 5.16529 10.1244C5.31532 10.2744 5.39961 10.4779 5.39961 10.69C5.39961 10.9022 5.31532 11.1057 5.16529 11.2557C5.01527 11.4058 4.81178 11.49 4.59961 11.49H3.79961V12.29C3.79961 12.5022 3.71532 12.7057 3.56529 12.8557C3.41527 13.0058 3.21178 13.09 2.99961 13.09C2.78744 13.09 2.58395 13.0058 2.43392 12.8557C2.2839 12.7057 2.19961 12.5022 2.19961 12.29V11.49H1.39961C1.18744 11.49 0.983953 11.4058 0.833924 11.2557C0.683895 11.1057 0.599609 10.9022 0.599609 10.69C0.599609 10.4779 0.683895 10.2744 0.833924 10.1244C0.983953 9.97433 1.18744 9.89004 1.39961 9.89004H2.19961V9.09004C2.19961 8.87787 2.2839 8.67438 2.43392 8.52435C2.58395 8.37432 2.78744 8.29004 2.99961 8.29004ZM8.59961 0.290039C8.77616 0.289982 8.94777 0.348329 9.0877 0.455989C9.22763 0.563648 9.32801 0.714571 9.37321 0.885239L10.3164 4.45004L12.9996 5.99724C13.1212 6.06746 13.2222 6.16845 13.2924 6.29006C13.3626 6.41167 13.3996 6.54962 13.3996 6.69004C13.3996 6.83046 13.3626 6.96841 13.2924 7.09002C13.2222 7.21163 13.1212 7.31262 12.9996 7.38284L10.3164 8.93084L9.37241 12.4948C9.32713 12.6653 9.22676 12.8161 9.08693 12.9236C8.94709 13.0312 8.77562 13.0895 8.59921 13.0895C8.4228 13.0895 8.25133 13.0312 8.11149 12.9236C7.97166 12.8161 7.87129 12.6653 7.82601 12.4948L6.88281 8.93004L4.19961 7.38284C4.078 7.31262 3.97702 7.21163 3.90681 7.09002C3.83661 6.96841 3.79964 6.83046 3.79964 6.69004C3.79964 6.54962 3.83661 6.41167 3.90681 6.29006C3.97702 6.16845 4.078 6.06746 4.19961 5.99724L6.88281 4.44924L7.82681 0.885239C7.87197 0.714703 7.97224 0.563878 8.112 0.456233C8.25177 0.348587 8.4232 0.290159 8.59961 0.290039Z" fill="white"/>
</svg>
