<svg width="41" height="40" viewBox="0 0 41 40" fill="none" xmlns="http://www.w3.org/2000/svg">
<path d="M20.6914 40C9.64541 40 0.691406 31.046 0.691406 20C0.691406 8.954 9.64541 0 20.6914 0C31.7374 0 40.6914 8.954 40.6914 20C40.6914 31.046 31.7374 40 20.6914 40ZM17.9354 12.83C17.815 12.7497 17.6751 12.7035 17.5306 12.6964C17.3861 12.6893 17.2424 12.7216 17.1147 12.7897C16.987 12.8579 16.8803 12.9593 16.8057 13.0834C16.7312 13.2074 16.6917 13.3493 16.6914 13.494V26.506C16.6917 26.6507 16.7312 26.7926 16.8057 26.9166C16.8803 27.0407 16.987 27.1421 17.1147 27.2103C17.2424 27.2784 17.3861 27.3107 17.5306 27.3036C17.6751 27.2965 17.815 27.2503 17.9354 27.17L27.6934 20.666C27.8031 20.593 27.8931 20.494 27.9554 20.3778C28.0176 20.2616 28.0502 20.1318 28.0502 20C28.0502 19.8682 28.0176 19.7384 27.9554 19.6222C27.8931 19.506 27.8031 19.407 27.6934 19.334L17.9354 12.83Z" fill="#6C47FF"/>
</svg>
