<svg width="1400" height="1190" viewBox="0 0 1400 1190" fill="none" xmlns="http://www.w3.org/2000/svg">
<path opacity="0.1" d="M560.234 629.941H630.117M560.234 629.941V699.823M560.234 629.941V560.058M560.234 629.941H490.352M630.117 629.941V699.823M630.117 629.941V560.058M630.117 629.941H699.999M560.234 699.823H630.117M560.234 699.823V769.706M560.234 699.823H490.352M560.234 560.058V490.176M560.234 560.058H630.117M560.234 560.058H490.352M490.352 629.941H420.469M490.352 629.941V699.823M490.352 629.941V560.058M630.117 699.823V769.706M630.117 699.823H699.999M630.117 560.058V490.176M630.117 560.058H699.999M699.999 629.941V699.823M699.999 629.941V560.058M699.999 629.941H769.882M630.117 769.706H560.234M630.117 769.706V839.589M630.117 769.706H699.999M699.999 699.823V769.706M699.999 699.823H769.882M560.234 769.706V839.589M560.234 769.706H490.352M490.352 699.823H420.469M490.352 699.823V769.706M630.117 839.589H560.234M630.117 839.589V909.471M630.117 839.589H699.999M699.999 769.706V839.589M699.999 769.706H769.882M560.234 839.589V909.471M560.234 839.589H490.352M490.352 769.706H420.469M490.352 769.706V839.589M630.117 0.998047H560.234M630.117 0.998047V70.8806M630.117 0.998047H699.999M560.234 0.998047V70.8806M560.234 0.998047H490.352M630.117 70.8806H560.234M630.117 70.8806V140.763M630.117 70.8806H699.999M699.999 0.998047V70.8806M699.999 0.998047H769.882M560.234 70.8806V140.763M560.234 70.8806H490.352M490.352 0.998047H420.469M490.352 0.998047V70.8806M630.117 909.471H560.234M630.117 909.471V979.354M630.117 909.471H699.999M699.999 839.589V909.471M699.999 839.589H769.882M560.234 909.471V979.354M560.234 909.471H490.352M490.352 839.589H420.469M490.352 839.589V909.471M630.117 140.763H560.234M630.117 140.763V210.646M630.117 140.763H699.999M699.999 70.8806V140.763M699.999 70.8806H769.882M560.234 140.763V210.646M560.234 140.763H490.352M490.352 70.8806H420.469M490.352 70.8806V140.763M630.117 979.354H560.234M630.117 979.354V1049.24M630.117 979.354H699.999M699.999 909.471V979.354M699.999 909.471H769.882M560.234 979.354V1049.24M560.234 979.354H490.352M490.352 909.471H420.469M490.352 909.471V979.354M630.117 210.646H560.234M630.117 210.646V280.528M630.117 210.646H699.999M699.999 140.763V210.646M699.999 140.763H769.882M560.234 210.646V280.528M560.234 210.646H490.352M490.352 140.763H420.469M490.352 140.763V210.646M630.117 1049.24H560.234M630.117 1049.24V1119.12M630.117 1049.24H699.999M699.999 979.354V1049.24M699.999 979.354H769.882M560.234 1049.24V1119.12M560.234 1049.24H490.352M490.352 979.354H420.469M490.352 979.354V1049.24M630.117 280.528H560.234M630.117 280.528V350.411M630.117 280.528H699.999M699.999 210.646V280.528M699.999 210.646H769.882M560.234 280.528V350.411M560.234 280.528H490.352M490.352 210.646H420.469M490.352 210.646V280.528M630.117 1119.12H560.234M630.117 1119.12V1189M630.117 1119.12H699.999M699.999 1049.24V1119.12M699.999 1049.24H769.882M560.234 1119.12V1189M560.234 1119.12H490.352M490.352 1049.24H420.469M490.352 1049.24V1119.12M630.117 350.411H560.234M630.117 350.411V420.293M630.117 350.411H699.999M699.999 280.528V350.411M699.999 280.528H769.882M560.234 350.411V420.293M560.234 350.411H490.352M490.352 280.528H420.469M490.352 280.528V350.411M630.117 1189H560.234M630.117 1189H699.999M699.999 1119.12V1189M699.999 1119.12H769.882M560.234 1189H490.352M490.352 1119.12H420.469M490.352 1119.12V1189M630.117 420.293H560.234M630.117 420.293V490.176M630.117 420.293H699.999M699.999 350.411V420.293M699.999 350.411H769.882M560.234 420.293V490.176M560.234 420.293H490.352M490.352 350.411H420.469M490.352 350.411V420.293M699.999 1189H769.882M490.352 1189H420.469M630.117 490.176H560.234M630.117 490.176H699.999M699.999 420.293V490.176M699.999 420.293H769.882M560.234 490.176H490.352M490.352 420.293H420.469M490.352 420.293V490.176M699.999 490.176V560.058M699.999 490.176H769.882M490.352 490.176H420.469M490.352 490.176V560.058M699.999 560.058H769.882M490.352 560.058H420.469M769.882 629.941V699.823M769.882 629.941V560.058M769.882 629.941H839.764M769.882 699.823V769.706M769.882 699.823H839.764M769.882 769.706V839.589M769.882 769.706H839.764M769.882 0.998047V70.8806M769.882 0.998047H839.764M769.882 839.589V909.471M769.882 839.589H839.764M769.882 70.8806V140.763M769.882 70.8806H839.764M769.882 909.471V979.354M769.882 909.471H839.764M769.882 140.763V210.646M769.882 140.763H839.764M769.882 979.354V1049.24M769.882 979.354H839.764M769.882 210.646V280.528M769.882 210.646H839.764M769.882 1049.24V1119.12M769.882 1049.24H839.764M769.882 280.528V350.411M769.882 280.528H839.764M769.882 1119.12V1189M769.882 1119.12H839.764M769.882 350.411V420.293M769.882 350.411H839.764M769.882 1189H839.764M769.882 420.293V490.176M769.882 420.293H839.764M769.882 490.176V560.058M769.882 490.176H839.764M769.882 560.058H839.764M839.764 629.941V699.823M839.764 629.941V560.058M839.764 629.941H909.647M839.764 699.823V769.706M839.764 699.823H909.647M839.764 769.706V839.589M839.764 769.706H909.647M839.764 0.998047V70.8806M839.764 0.998047H909.647M839.764 839.589V909.471M839.764 839.589H909.647M839.764 70.8806V140.763M839.764 70.8806H909.647M839.764 909.471V979.354M839.764 909.471H909.647M839.764 140.763V210.646M839.764 140.763H909.647M839.764 979.354V1049.24M839.764 979.354H909.647M839.764 210.646V280.528M839.764 210.646H909.647M839.764 1049.24V1119.12M839.764 1049.24H909.647M839.764 280.528V350.411M839.764 280.528H909.647M839.764 1119.12V1189M839.764 1119.12H909.647M839.764 350.411V420.293M839.764 350.411H909.647M839.764 1189H909.647M839.764 420.293V490.176M839.764 420.293H909.647M839.764 490.176V560.058M839.764 490.176H909.647M839.764 560.058H909.647M1.17383 629.941V699.823M1.17383 629.941V560.058M1.17383 629.941H71.0564M1.17383 699.823V769.706M1.17383 699.823H71.0564M1.17383 560.058V490.176M1.17383 560.058H71.0564M71.0564 629.941V699.823M71.0564 629.941V560.058M71.0564 629.941H140.939M1.17383 769.706V839.589M1.17383 769.706H71.0564M71.0564 699.823V769.706M71.0564 699.823H140.939M1.17383 839.589V909.471M1.17383 839.589H71.0564M71.0564 769.706V839.589M71.0564 769.706H140.939M1.17383 909.471V979.354M1.17383 909.471H71.0564M71.0564 839.589V909.471M71.0564 839.589H140.939M1.17383 70.8806V0.998047H71.0564M1.17383 70.8806V140.763M1.17383 70.8806H71.0564M71.0564 0.998047V70.8806M71.0564 0.998047H140.939M1.17383 140.763V210.646M1.17383 140.763H71.0564M71.0564 70.8806V140.763M71.0564 70.8806H140.939M1.17383 979.354V1049.24M1.17383 979.354H71.0564M71.0564 909.471V979.354M71.0564 909.471H140.939M1.17383 210.646V280.528M1.17383 210.646H71.0564M71.0564 140.763V210.646M71.0564 140.763H140.939M1.17383 1049.24V1119.12M1.17383 1049.24H71.0564M71.0564 979.354V1049.24M71.0564 979.354H140.939M1.17383 280.528V350.411M1.17383 280.528H71.0564M71.0564 210.646V280.528M71.0564 210.646H140.939M1.17383 1119.12V1189H71.0564M1.17383 1119.12H71.0564M71.0564 1049.24V1119.12M71.0564 1049.24H140.939M1.17383 350.411V420.293M1.17383 350.411H71.0564M71.0564 280.528V350.411M71.0564 280.528H140.939M71.0564 1189V1119.12M71.0564 1189H140.939M71.0564 1119.12H140.939M1.17383 420.293V490.176M1.17383 420.293H71.0564M71.0564 350.411V420.293M71.0564 350.411H140.939M1.17383 490.176H71.0564M71.0564 420.293V490.176M71.0564 420.293H140.939M71.0564 490.176V560.058M71.0564 490.176H140.939M71.0564 560.058H140.939M909.647 629.941V699.823M909.647 629.941V560.058M909.647 629.941H979.53M909.647 699.823V769.706M909.647 699.823H979.53M909.647 769.706V839.589M909.647 769.706H979.53M909.647 0.998047V70.8806M909.647 0.998047H979.53M909.647 839.589V909.471M909.647 839.589H979.53M909.647 70.8806V140.763M909.647 70.8806H979.53M909.647 909.471V979.354M909.647 909.471H979.53M909.647 140.763V210.646M909.647 140.763H979.53M909.647 979.354V1049.24M909.647 979.354H979.53M909.647 210.646V280.528M909.647 210.646H979.53M909.647 1049.24V1119.12M909.647 1049.24H979.53M909.647 280.528V350.411M909.647 280.528H979.53M909.647 1119.12V1189M909.647 1119.12H979.53M909.647 350.411V420.293M909.647 350.411H979.53M909.647 1189H979.53M909.647 420.293V490.176M909.647 420.293H979.53M909.647 490.176V560.058M909.647 490.176H979.53M909.647 560.058H979.53M140.939 629.941V699.823M140.939 629.941V560.058M140.939 629.941H210.821M140.939 699.823V769.706M140.939 699.823H210.821M140.939 769.706V839.589M140.939 769.706H210.821M140.939 0.998047V70.8806M140.939 0.998047H210.821M140.939 839.589V909.471M140.939 839.589H210.821M140.939 70.8806V140.763M140.939 70.8806H210.821M140.939 909.471V979.354M140.939 909.471H210.821M140.939 140.763V210.646M140.939 140.763H210.821M140.939 979.354V1049.24M140.939 979.354H210.821M140.939 210.646V280.528M140.939 210.646H210.821M140.939 1049.24V1119.12M140.939 1049.24H210.821M140.939 280.528V350.411M140.939 280.528H210.821M140.939 1119.12V1189M140.939 1119.12H210.821M140.939 350.411V420.293M140.939 350.411H210.821M140.939 1189H210.821M140.939 420.293V490.176M140.939 420.293H210.821M140.939 490.176V560.058M140.939 490.176H210.821M140.939 560.058H210.821M979.53 629.941V699.823M979.53 629.941V560.058M979.53 629.941H1049.41M979.53 699.823V769.706M979.53 699.823H1049.41M979.53 769.706V839.589M979.53 769.706H1049.41M979.53 0.998047V70.8806M979.53 0.998047H1049.41M979.53 839.589V909.471M979.53 839.589H1049.41M979.53 70.8806V140.763M979.53 70.8806H1049.41M979.53 909.471V979.354M979.53 909.471H1049.41M979.53 140.763V210.646M979.53 140.763H1049.41M979.53 979.354V1049.24M979.53 979.354H1049.41M979.53 210.646V280.528M979.53 210.646H1049.41M979.53 1049.24V1119.12M979.53 1049.24H1049.41M979.53 280.528V350.411M979.53 280.528H1049.41M979.53 1119.12V1189M979.53 1119.12H1049.41M979.53 350.411V420.293M979.53 350.411H1049.41M979.53 1189H1049.41M979.53 420.293V490.176M979.53 420.293H1049.41M979.53 490.176V560.058M979.53 490.176H1049.41M979.53 560.058H1049.41M210.821 629.941V699.823M210.821 629.941V560.058M210.821 629.941H280.704M210.821 699.823V769.706M210.821 699.823H280.704M210.821 769.706V839.589M210.821 769.706H280.704M210.821 0.998047V70.8806M210.821 0.998047H280.704M210.821 839.589V909.471M210.821 839.589H280.704M210.821 70.8806V140.763M210.821 70.8806H280.704M210.821 909.471V979.354M210.821 909.471H280.704M210.821 140.763V210.646M210.821 140.763H280.704M210.821 979.354V1049.24M210.821 979.354H280.704M210.821 210.646V280.528M210.821 210.646H280.704M210.821 1049.24V1119.12M210.821 1049.24H280.704M210.821 280.528V350.411M210.821 280.528H280.704M210.821 1119.12V1189M210.821 1119.12H280.704M210.821 350.411V420.293M210.821 350.411H280.704M210.821 1189H280.704M210.821 420.293V490.176M210.821 420.293H280.704M210.821 490.176V560.058M210.821 490.176H280.704M210.821 560.058H280.704M1049.41 629.941V699.823M1049.41 629.941V560.058M1049.41 629.941H1119.29M1049.41 699.823V769.706M1049.41 699.823H1119.29M1049.41 769.706V839.589M1049.41 769.706H1119.29M1049.41 0.998047V70.8806M1049.41 0.998047H1119.29M1049.41 839.589V909.471M1049.41 839.589H1119.29M1049.41 70.8806V140.763M1049.41 70.8806H1119.29M1049.41 909.471V979.354M1049.41 909.471H1119.29M1049.41 140.763V210.646M1049.41 140.763H1119.29M1049.41 979.354V1049.24M1049.41 979.354H1119.29M1049.41 210.646V280.528M1049.41 210.646H1119.29M1049.41 1049.24V1119.12M1049.41 1049.24H1119.29M1049.41 280.528V350.411M1049.41 280.528H1119.29M1049.41 1119.12V1189M1049.41 1119.12H1119.29M1049.41 350.411V420.293M1049.41 350.411H1119.29M1049.41 1189H1119.29M1049.41 420.293V490.176M1049.41 420.293H1119.29M1049.41 490.176V560.058M1049.41 490.176H1119.29M1049.41 560.058H1119.29M280.704 629.941V699.823M280.704 629.941V560.058M280.704 629.941H350.587M280.704 699.823V769.706M280.704 699.823H350.587M280.704 769.706V839.589M280.704 769.706H350.587M280.704 0.998047V70.8806M280.704 0.998047H350.587M280.704 839.589V909.471M280.704 839.589H350.587M280.704 70.8806V140.763M280.704 70.8806H350.587M280.704 909.471V979.354M280.704 909.471H350.587M280.704 140.763V210.646M280.704 140.763H350.587M280.704 979.354V1049.24M280.704 979.354H350.587M280.704 210.646V280.528M280.704 210.646H350.587M280.704 1049.24V1119.12M280.704 1049.24H350.587M280.704 280.528V350.411M280.704 280.528H350.587M280.704 1119.12V1189M280.704 1119.12H350.587M280.704 350.411V420.293M280.704 350.411H350.587M280.704 1189H350.587M280.704 420.293V490.176M280.704 420.293H350.587M280.704 490.176V560.058M280.704 490.176H350.587M280.704 560.058H350.587M1119.29 629.941V699.823M1119.29 629.941V560.058M1119.29 629.941H1189.18M1119.29 699.823V769.706M1119.29 699.823H1189.18M1119.29 769.706V839.589M1119.29 769.706H1189.18M1119.29 0.998047V70.8806M1119.29 0.998047H1189.18M1119.29 839.589V909.471M1119.29 839.589H1189.18M1119.29 70.8806V140.763M1119.29 70.8806H1189.18M1119.29 909.471V979.354M1119.29 909.471H1189.18M1119.29 140.763V210.646M1119.29 140.763H1189.18M1119.29 979.354V1049.24M1119.29 979.354H1189.18M1119.29 210.646V280.528M1119.29 210.646H1189.18M1119.29 1049.24V1119.12M1119.29 1049.24H1189.18M1119.29 280.528V350.411M1119.29 280.528H1189.18M1119.29 1119.12V1189M1119.29 1119.12H1189.18M1119.29 350.411V420.293M1119.29 350.411H1189.18M1119.29 1189H1189.18M1119.29 420.293V490.176M1119.29 420.293H1189.18M1119.29 490.176V560.058M1119.29 490.176H1189.18M1119.29 560.058H1189.18M350.587 629.941V699.823M350.587 629.941V560.058M350.587 629.941H420.469M350.587 699.823V769.706M350.587 699.823H420.469M350.587 769.706V839.589M350.587 769.706H420.469M350.587 0.998047V70.8806M350.587 0.998047H420.469M350.587 839.589V909.471M350.587 839.589H420.469M350.587 70.8806V140.763M350.587 70.8806H420.469M350.587 909.471V979.354M350.587 909.471H420.469M350.587 140.763V210.646M350.587 140.763H420.469M350.587 979.354V1049.24M350.587 979.354H420.469M350.587 210.646V280.528M350.587 210.646H420.469M350.587 1049.24V1119.12M350.587 1049.24H420.469M350.587 280.528V350.411M350.587 280.528H420.469M350.587 1119.12V1189M350.587 1119.12H420.469M350.587 350.411V420.293M350.587 350.411H420.469M350.587 1189H420.469M350.587 420.293V490.176M350.587 420.293H420.469M350.587 490.176V560.058M350.587 490.176H420.469M350.587 560.058H420.469M1189.18 629.941V699.823M1189.18 629.941V560.058M1189.18 629.941H1259.06M1189.18 699.823V769.706M1189.18 699.823H1259.06M1189.18 769.706V839.589M1189.18 769.706H1259.06M1189.18 0.998047V70.8806M1189.18 0.998047H1259.06M1189.18 839.589V909.471M1189.18 839.589H1259.06M1189.18 70.8806V140.763M1189.18 70.8806H1259.06M1189.18 909.471V979.354M1189.18 909.471H1259.06M1189.18 140.763V210.646M1189.18 140.763H1259.06M1189.18 979.354V1049.24M1189.18 979.354H1259.06M1189.18 210.646V280.528M1189.18 210.646H1259.06M1189.18 1049.24V1119.12M1189.18 1049.24H1259.06M1189.18 280.528V350.411M1189.18 280.528H1259.06M1189.18 1119.12V1189M1189.18 1119.12H1259.06M1189.18 350.411V420.293M1189.18 350.411H1259.06M1189.18 1189H1259.06M1189.18 420.293V490.176M1189.18 420.293H1259.06M1189.18 490.176V560.058M1189.18 490.176H1259.06M1189.18 560.058H1259.06M420.469 629.941V699.823M420.469 629.941V560.058M420.469 699.823V769.706M420.469 769.706V839.589M420.469 0.998047V70.8806M420.469 839.589V909.471M420.469 70.8806V140.763M420.469 909.471V979.354M420.469 140.763V210.646M420.469 979.354V1049.24M420.469 210.646V280.528M420.469 1049.24V1119.12M420.469 280.528V350.411M420.469 1119.12V1189M420.469 350.411V420.293M420.469 420.293V490.176M420.469 490.176V560.058M1259.06 629.941V699.823M1259.06 629.941V560.058M1259.06 629.941H1328.94M1259.06 699.823V769.706M1259.06 699.823H1328.94M1259.06 769.706V839.589M1259.06 769.706H1328.94M1259.06 0.998047V70.8806M1259.06 0.998047H1328.94M1259.06 839.589V909.471M1259.06 839.589H1328.94M1259.06 70.8806V140.763M1259.06 70.8806H1328.94M1259.06 909.471V979.354M1259.06 909.471H1328.94M1259.06 140.763V210.646M1259.06 140.763H1328.94M1259.06 979.354V1049.24M1259.06 979.354H1328.94M1259.06 210.646V280.528M1259.06 210.646H1328.94M1259.06 1049.24V1119.12M1259.06 1049.24H1328.94M1259.06 280.528V350.411M1259.06 280.528H1328.94M1259.06 1119.12V1189M1259.06 1119.12H1328.94M1259.06 350.411V420.293M1259.06 350.411H1328.94M1259.06 1189H1328.94M1259.06 420.293V490.176M1259.06 420.293H1328.94M1259.06 490.176V560.058M1259.06 490.176H1328.94M1259.06 560.058H1328.94M1328.94 629.941V699.823M1328.94 629.941V560.058M1328.94 629.941H1398.82M1328.94 699.823V769.706M1328.94 699.823H1398.82M1328.94 769.706V839.589M1328.94 769.706H1398.82M1328.94 0.998047V70.8806M1328.94 0.998047H1398.82V70.8806M1328.94 839.589V909.471M1328.94 839.589H1398.82M1328.94 70.8806V140.763M1328.94 70.8806H1398.82M1328.94 909.471V979.354M1328.94 909.471H1398.82M1328.94 140.763V210.646M1328.94 140.763H1398.82M1328.94 979.354V1049.24M1328.94 979.354H1398.82M1328.94 210.646V280.528M1328.94 210.646H1398.82M1328.94 1049.24V1119.12M1328.94 1049.24H1398.82M1328.94 280.528V350.411M1328.94 280.528H1398.82M1328.94 1119.12V1189M1328.94 1119.12H1398.82M1328.94 350.411V420.293M1328.94 350.411H1398.82M1328.94 1189H1398.82V1119.12M1328.94 420.293V490.176M1328.94 420.293H1398.82M1328.94 490.176V560.058M1328.94 490.176H1398.82M1328.94 560.058H1398.82M1398.82 629.941V699.823M1398.82 629.941V560.058M1398.82 699.823V769.706M1398.82 769.706V839.589M1398.82 70.8806V140.763M1398.82 839.589V909.471M1398.82 909.471V979.354M1398.82 140.763V210.646M1398.82 979.354V1049.24M1398.82 210.646V280.528M1398.82 1049.24V1119.12M1398.82 280.528V350.411M1398.82 350.411V420.293M1398.82 420.293V490.176M1398.82 490.176V560.058" stroke="url(#paint0_radial_20_1479)" stroke-width="0.998322"/>
<defs>
<radialGradient id="paint0_radial_20_1479" cx="0" cy="0" r="1" gradientUnits="userSpaceOnUse" gradientTransform="translate(686.023 587.013) rotate(157.112) scale(772.633 570.336)">
<stop/>
<stop offset="1" stop-opacity="0"/>
</radialGradient>
</defs>
</svg>
