<svg width="14" height="12" viewBox="0 0 14 12" fill="none" xmlns="http://www.w3.org/2000/svg">
<path fill-rule="evenodd" clip-rule="evenodd" d="M12.9805 11.6004C12.5386 11.6004 12.1805 11.2422 12.1805 10.8004V1.20039C12.1805 0.758567 12.5386 0.400391 12.9805 0.400391C13.4223 0.400391 13.7805 0.758567 13.7805 1.20039V10.8004C13.7805 11.2422 13.4223 11.6004 12.9805 11.6004ZM6.81478 8.96607C6.50236 8.65367 6.50236 8.14711 6.81478 7.83471L7.84911 6.80039H1.78047C1.33864 6.80039 0.980469 6.44223 0.980469 6.00039C0.980469 5.55857 1.33864 5.20039 1.78047 5.20039H7.84911L6.81478 4.16608C6.50236 3.85365 6.50236 3.34713 6.81478 3.0347C7.1272 2.72229 7.63375 2.72229 7.94615 3.0347L10.3461 5.4347C10.4961 5.58473 10.5805 5.78821 10.5805 6.00039C10.5805 6.21255 10.4961 6.41607 10.3461 6.56607L7.94615 8.96607C7.63375 9.27847 7.1272 9.27847 6.81478 8.96607Z" fill="white"/>
</svg>
