<svg width="20" height="20" viewBox="0 0 20 20" fill="none" xmlns="http://www.w3.org/2000/svg">
<path d="M18.125 0.848705H1.875C1.5063 0.844953 1.15117 0.987618 0.887529 1.2454C0.623892 1.50318 0.473283 1.85501 0.46875 2.2237V18.5393C0.474103 18.9075 0.625072 19.2585 0.88862 19.5156C1.15217 19.7727 1.50683 19.915 1.875 19.9112H18.125C18.4937 19.9141 18.8486 19.771 19.1121 19.513C19.3756 19.2551 19.5263 18.9033 19.5312 18.5346V2.21902C19.5247 1.85141 19.3733 1.50125 19.1099 1.24465C18.8466 0.988056 18.4927 0.845764 18.125 0.848705ZM6.12031 17.0987H3.29062V7.99402H6.12031V17.0987ZM4.71406 6.75339C4.38951 6.7537 4.07216 6.65774 3.80215 6.47766C3.53215 6.29757 3.32162 6.04145 3.19721 5.74169C3.07279 5.44193 3.04008 5.11201 3.10321 4.79366C3.16634 4.4753 3.32247 4.18283 3.55185 3.95322C3.78123 3.72362 4.07356 3.56721 4.39185 3.50378C4.71015 3.44035 5.0401 3.47275 5.33998 3.59688C5.63985 3.72101 5.89618 3.93129 6.07652 4.20112C6.25686 4.47096 6.35312 4.78822 6.35313 5.11277C6.35272 5.32848 6.30977 5.542 6.22675 5.74109C6.14372 5.94019 6.02225 6.12096 5.86928 6.27306C5.71632 6.42515 5.53486 6.54559 5.33529 6.62748C5.13572 6.70936 4.92196 6.75109 4.70625 6.75027L4.71406 6.75339ZM16.7188 17.0987H13.8891V12.669C13.8891 11.6143 13.8703 10.2565 12.4188 10.2565C10.9672 10.2565 10.7203 11.4065 10.7203 12.6003V17.0987H7.89531V7.99402H10.6078V9.24402H10.6453C11.0234 8.52839 11.9453 7.77371 13.3219 7.77371C16.1875 7.76746 16.7188 9.65339 16.7188 12.0987V17.0987Z" fill="#949EB2"/>
</svg>
