<svg width="86" height="86" viewBox="0 0 86 86" fill="none" xmlns="http://www.w3.org/2000/svg">
<path d="M43 85.5C19.5273 85.5 0.5 66.4727 0.5 43C0.5 19.5273 19.5273 0.5 43 0.5C66.4727 0.5 85.5 19.5273 85.5 43C85.5 66.4727 66.4727 85.5 43 85.5ZM37.1435 27.7638C36.8877 27.5931 36.5904 27.495 36.2833 27.4799C35.9762 27.4649 35.6708 27.5334 35.3995 27.6782C35.1282 27.823 34.9013 28.0386 34.7429 28.3021C34.5845 28.5657 34.5006 28.8673 34.5 29.1747V56.8253C34.5006 57.1327 34.5845 57.4343 34.7429 57.6979C34.9013 57.9614 35.1282 58.1771 35.3995 58.3218C35.6708 58.4666 35.9762 58.5351 36.2833 58.5201C36.5904 58.505 36.8877 58.4069 37.1435 58.2363L57.8793 44.4153C58.1124 44.2601 58.3037 44.0497 58.4359 43.8028C58.5682 43.5559 58.6374 43.2801 58.6374 43C58.6374 42.7199 58.5682 42.4441 58.4359 42.1972C58.3037 41.9503 58.1124 41.7399 57.8793 41.5847L37.1435 27.7638Z" fill="#4C32B3"/>
</svg>
