<svg width="20" height="15" viewBox="0 0 20 15" fill="none" xmlns="http://www.w3.org/2000/svg">
<path d="M16.6644 1.26608C15.4453 0.69775 14.1253 0.28525 12.7503 0.0469172C12.7382 0.0465316 12.7262 0.048794 12.7151 0.0535454C12.704 0.0582967 12.6941 0.0654216 12.6861 0.0744174C12.5211 0.376917 12.3286 0.771084 12.2003 1.07358C10.7419 0.853584 9.25869 0.853584 7.80027 1.07358C7.67194 0.761917 7.47944 0.376917 7.30527 0.0744174C7.2961 0.056084 7.2686 0.0469172 7.2411 0.0469172C5.8661 0.28525 4.55527 0.69775 3.32694 1.26608C3.31777 1.26608 3.3086 1.27525 3.29944 1.28442C0.806104 5.01525 0.118604 8.64525 0.45777 12.2386C0.45777 12.2569 0.466937 12.2753 0.48527 12.2844C2.13527 13.4944 3.7211 14.2278 5.2886 14.7136C5.3161 14.7228 5.3436 14.7136 5.35277 14.6953C5.71944 14.1911 6.04944 13.6594 6.3336 13.1003C6.35194 13.0636 6.3336 13.0269 6.29694 13.0177C5.77444 12.8161 5.27944 12.5778 4.7936 12.3028C4.75694 12.2844 4.75694 12.2294 4.78444 12.2019C4.88527 12.1286 4.9861 12.0461 5.08694 11.9728C5.10527 11.9544 5.13277 11.9544 5.1511 11.9636C8.30444 13.4028 11.7053 13.4028 14.8219 11.9636C14.8403 11.9544 14.8678 11.9544 14.8861 11.9728C14.9869 12.0553 15.0878 12.1286 15.1886 12.2111C15.2253 12.2386 15.2253 12.2936 15.1794 12.3119C14.7028 12.5961 14.1986 12.8253 13.6761 13.0269C13.6394 13.0361 13.6303 13.0819 13.6394 13.1094C13.9328 13.6686 14.2628 14.2003 14.6203 14.7044C14.6478 14.7136 14.6753 14.7228 14.7028 14.7136C16.2794 14.2278 17.8653 13.4944 19.5153 12.2844C19.5336 12.2753 19.5428 12.2569 19.5428 12.2386C19.9461 8.08608 18.8736 4.48358 16.7011 1.28442C16.6919 1.27525 16.6828 1.26608 16.6644 1.26608ZM6.81027 10.0478C5.8661 10.0478 5.07777 9.17692 5.07777 8.10442C5.07777 7.03192 5.84777 6.16108 6.81027 6.16108C7.78194 6.16108 8.55194 7.04108 8.54277 8.10442C8.54277 9.17692 7.77277 10.0478 6.81027 10.0478ZM13.1994 10.0478C12.2553 10.0478 11.4669 9.17692 11.4669 8.10442C11.4669 7.03192 12.2369 6.16108 13.1994 6.16108C14.1711 6.16108 14.9411 7.04108 14.9319 8.10442C14.9319 9.17692 14.1711 10.0478 13.1994 10.0478Z" fill="#949EB2"/>
</svg>
