<svg width="14" height="12" viewBox="0 0 14 12" fill="none" xmlns="http://www.w3.org/2000/svg">
<path fill-rule="evenodd" clip-rule="evenodd" d="M7.11292 1.0145C7.26294 0.864526 7.46638 0.780273 7.67852 0.780273C7.89065 0.780273 8.09409 0.864526 8.24412 1.0145L13.0441 5.8145C13.1941 5.96452 13.2783 6.16797 13.2783 6.3801C13.2783 6.59223 13.1941 6.79568 13.0441 6.9457L8.24412 11.7457C8.09323 11.8914 7.89115 11.9721 7.6814 11.9702C7.47164 11.9684 7.27099 11.8843 7.12266 11.736C6.97433 11.5876 6.8902 11.387 6.88838 11.1772C6.88655 10.9675 6.96719 10.7654 7.11292 10.6145L10.5473 7.1801H1.27852C1.06634 7.1801 0.862859 7.09582 0.71283 6.94579C0.562801 6.79576 0.478516 6.59228 0.478516 6.3801C0.478516 6.16793 0.562801 5.96445 0.71283 5.81442C0.862859 5.66439 1.06634 5.5801 1.27852 5.5801H10.5473L7.11292 2.1457C6.96294 1.99568 6.87869 1.79223 6.87869 1.5801C6.87869 1.36797 6.96294 1.16452 7.11292 1.0145Z" fill="#6C47FF"/>
</svg>
