<svg width="20" height="15" viewBox="0 0 20 15" fill="none" xmlns="http://www.w3.org/2000/svg">
<path d="M6.59982 14.9429C13.5179 14.9429 17.3019 9.21098 17.3019 4.24081C17.3019 4.07764 17.3019 3.91539 17.2909 3.75498C18.0271 3.22196 18.6625 2.56204 19.1673 1.80614C18.4808 2.11048 17.7525 2.31009 17.0067 2.39831C17.792 1.92812 18.3797 1.18863 18.6604 0.317477C17.9222 0.75554 17.1146 1.06431 16.2725 1.23048C15.7054 0.627095 14.9553 0.227492 14.1381 0.0935398C13.321 -0.0404123 12.4825 0.0987596 11.7525 0.489507C11.0225 0.880254 10.4416 1.50078 10.0999 2.255C9.75819 3.00922 9.67465 3.85506 9.86223 4.66156C8.36677 4.58662 6.90379 4.19803 5.56824 3.52101C4.2327 2.844 3.05445 1.89371 2.10998 0.73181C1.62903 1.55975 1.48169 2.53986 1.69798 3.47261C1.91426 4.40536 2.4779 5.22061 3.27415 5.75239C2.6758 5.73507 2.0904 5.5741 1.56732 5.28306V5.33073C1.56767 6.19908 1.86835 7.04059 2.41835 7.71255C2.96835 8.38452 3.73383 8.84558 4.58498 9.01756C4.03114 9.16855 3.45005 9.1905 2.8864 9.08173C3.12672 9.82924 3.59469 10.4829 4.22485 10.9514C4.85501 11.4198 5.61584 11.6795 6.4009 11.6942C5.62093 12.3071 4.72779 12.7602 3.77257 13.0276C2.81735 13.2949 1.81878 13.3714 0.833984 13.2526C2.55421 14.3565 4.55582 14.9421 6.59982 14.9392" fill="#949EB2"/>
</svg>
