<svg width="20" height="19" viewBox="0 0 20 19" fill="none" xmlns="http://www.w3.org/2000/svg">
<path fill-rule="evenodd" clip-rule="evenodd" d="M10.0007 0.212891C4.9379 0.212891 0.833984 4.32322 0.833984 9.39514C0.833984 13.4514 3.46023 16.8935 7.10307 18.1071C7.5614 18.1915 7.72823 17.9082 7.72823 17.6644C7.72823 17.4471 7.7209 16.8687 7.71632 16.1033C5.16615 16.6579 4.62807 14.8722 4.62807 14.8722C4.2119 13.8107 3.61057 13.5284 3.61057 13.5284C2.77823 12.9601 3.67382 12.9711 3.67382 12.9711C4.59323 13.0352 5.07723 13.9171 5.07723 13.9171C5.8949 15.3196 7.22315 14.9144 7.74473 14.6797C7.82907 14.0866 8.06557 13.6824 8.32773 13.4532C6.29273 13.2213 4.15232 12.433 4.15232 8.91481C4.15232 7.91289 4.50982 7.09247 5.09557 6.45081C5.00115 6.21889 4.68673 5.28481 5.1854 4.02164C5.1854 4.02164 5.9554 3.77414 7.70623 4.96214C8.45402 4.7582 9.22555 4.65432 10.0007 4.65322C10.7798 4.65689 11.5636 4.75864 12.296 4.96214C14.0459 3.77414 14.8141 4.02072 14.8141 4.02072C15.3146 5.28481 14.9992 6.21889 14.9057 6.45081C15.4924 7.09247 15.8481 7.91289 15.8481 8.91481C15.8481 12.4421 13.704 13.2186 11.6626 13.4459C11.9917 13.7291 12.2841 14.2892 12.2841 15.1463C12.2841 16.3728 12.2731 17.3637 12.2731 17.6644C12.2731 17.9101 12.4381 18.1961 12.9037 18.1062C14.7291 17.494 16.3159 16.3236 17.4398 14.7604C18.5638 13.1973 19.1681 11.3204 19.1673 9.39514C19.1673 4.32322 15.0625 0.212891 10.0007 0.212891Z" fill="#949EB2"/>
</svg>
