<svg width="16" height="14" viewBox="0 0 16 14" fill="none" xmlns="http://www.w3.org/2000/svg">
<path d="M6.01042 9.33333H5.01042C4.08004 9.33333 3.61485 9.33333 3.23632 9.44818C2.38405 9.70667 1.71711 10.3736 1.45858 11.2259C1.34375 11.6044 1.34375 12.0696 1.34375 13M9.67708 4C9.67708 5.65685 8.33394 7 6.67708 7C5.02023 7 3.67708 5.65685 3.67708 4C3.67708 2.34315 5.02023 1 6.67708 1C8.33394 1 9.67708 2.34315 9.67708 4ZM7.34375 13L9.41131 12.4092C9.51033 12.381 9.55984 12.3668 9.60597 12.3456C9.64704 12.3268 9.68597 12.3039 9.72233 12.2772C9.76331 12.2471 9.79975 12.2107 9.87255 12.1379L14.1771 7.83336C14.6374 7.37311 14.6374 6.62689 14.1771 6.16665C13.7168 5.70642 12.9707 5.70643 12.5104 6.16667L8.20587 10.4712C8.13305 10.544 8.09664 10.5804 8.06658 10.6214C8.03987 10.6578 8.01694 10.6967 7.99811 10.7378C7.97691 10.7839 7.96277 10.8334 7.93448 10.9324L7.34375 13Z" stroke="#6C47FF" stroke-width="1.11111" stroke-linecap="round" stroke-linejoin="round"/>
</svg>
