<svg width="14" height="12" viewBox="0 0 14 12" fill="none" xmlns="http://www.w3.org/2000/svg">
<path fill-rule="evenodd" clip-rule="evenodd" d="M12.5996 11.7303C12.1578 11.7303 11.7996 11.3721 11.7996 10.9303V1.33027C11.7996 0.888449 12.1578 0.530273 12.5996 0.530273C13.0414 0.530273 13.3996 0.888449 13.3996 1.33027V10.9303C13.3996 11.3721 13.0414 11.7303 12.5996 11.7303ZM6.43392 9.09595C6.12151 8.78355 6.12151 8.27699 6.43392 7.96459L7.46825 6.93027H1.39961C0.957785 6.93027 0.599609 6.57211 0.599609 6.13027C0.599609 5.68845 0.957785 5.33027 1.39961 5.33027H7.46825L6.43392 4.29596C6.12151 3.98354 6.12151 3.47701 6.43392 3.16459C6.74635 2.85217 7.25289 2.85217 7.56529 3.16459L9.96529 5.56459C10.1153 5.71462 10.1996 5.9181 10.1996 6.13027C10.1996 6.34243 10.1153 6.54595 9.96529 6.69595L7.56529 9.09595C7.25289 9.40835 6.74635 9.40835 6.43392 9.09595Z" fill="white"/>
</svg>
