<svg width="1132" height="962" viewBox="0 0 1132 962" fill="none" xmlns="http://www.w3.org/2000/svg">
<path opacity="0.1" d="M453.122 509.626H509.615M453.122 509.626V566.119M453.122 509.626V453.133M453.122 509.626H396.629M509.615 509.626V566.119M509.615 509.626V453.133M509.615 509.626H566.109M453.122 566.119H509.615M453.122 566.119V622.613M453.122 566.119H396.629M453.122 453.133V396.64M453.122 453.133H509.615M453.122 453.133H396.629M396.629 509.626H340.136M396.629 509.626V566.119M396.629 509.626V453.133M509.615 566.119V622.613M509.615 566.119H566.109M509.615 453.133V396.64M509.615 453.133H566.109M566.109 509.626V566.119M566.109 509.626V453.133M566.109 509.626H622.602M509.615 622.613H453.122M509.615 622.613V679.106M509.615 622.613H566.109M566.109 566.119V622.613M566.109 566.119H622.602M453.122 622.613V679.106M453.122 622.613H396.629M396.629 566.119H340.136M396.629 566.119V622.613M509.615 679.106H453.122M509.615 679.106V735.599M509.615 679.106H566.109M566.109 622.613V679.106M566.109 622.613H622.602M453.122 679.106V735.599M453.122 679.106H396.629M396.629 622.613H340.136M396.629 622.613V679.106M509.615 1.18652H453.122M509.615 1.18652V57.6798M509.615 1.18652H566.109M453.122 1.18652V57.6798M453.122 1.18652H396.629M509.615 57.6798H453.122M509.615 57.6798V114.173M509.615 57.6798H566.109M566.109 1.18652V57.6798M566.109 1.18652H622.602M453.122 57.6798V114.173M453.122 57.6798H396.629M396.629 1.18652H340.136M396.629 1.18652V57.6798M509.615 735.599H453.122M509.615 735.599V792.093M509.615 735.599H566.109M566.109 679.106V735.599M566.109 679.106H622.602M453.122 735.599V792.093M453.122 735.599H396.629M396.629 679.106H340.136M396.629 679.106V735.599M509.615 114.173H453.122M509.615 114.173V170.666M509.615 114.173H566.109M566.109 57.6798V114.173M566.109 57.6798H622.602M453.122 114.173V170.666M453.122 114.173H396.629M396.629 57.6798H340.136M396.629 57.6798V114.173M509.615 792.093H453.122M509.615 792.093V848.586M509.615 792.093H566.109M566.109 735.599V792.093M566.109 735.599H622.602M453.122 792.093V848.586M453.122 792.093H396.629M396.629 735.599H340.136M396.629 735.599V792.093M509.615 170.666H453.122M509.615 170.666V227.16M509.615 170.666H566.109M566.109 114.173V170.666M566.109 114.173H622.602M453.122 170.666V227.16M453.122 170.666H396.629M396.629 114.173H340.136M396.629 114.173V170.666M509.615 848.586H453.122M509.615 848.586V905.079M509.615 848.586H566.109M566.109 792.093V848.586M566.109 792.093H622.602M453.122 848.586V905.079M453.122 848.586H396.629M396.629 792.093H340.136M396.629 792.093V848.586M509.615 227.16H453.122M509.615 227.16V283.653M509.615 227.16H566.109M566.109 170.666V227.16M566.109 170.666H622.602M453.122 227.16V283.653M453.122 227.16H396.629M396.629 170.666H340.136M396.629 170.666V227.16M509.615 905.079H453.122M509.615 905.079V961.572M509.615 905.079H566.109M566.109 848.586V905.079M566.109 848.586H622.602M453.122 905.079V961.572M453.122 905.079H396.629M396.629 848.586H340.136M396.629 848.586V905.079M509.615 283.653H453.122M509.615 283.653V340.146M509.615 283.653H566.109M566.109 227.16V283.653M566.109 227.16H622.602M453.122 283.653V340.146M453.122 283.653H396.629M396.629 227.16H340.136M396.629 227.16V283.653M509.615 961.572H453.122M509.615 961.572H566.109M566.109 905.079V961.572M566.109 905.079H622.602M453.122 961.572H396.629M396.629 905.079H340.136M396.629 905.079V961.572M509.615 340.146H453.122M509.615 340.146V396.64M509.615 340.146H566.109M566.109 283.653V340.146M566.109 283.653H622.602M453.122 340.146V396.64M453.122 340.146H396.629M396.629 283.653H340.136M396.629 283.653V340.146M566.109 961.572H622.602M396.629 961.572H340.136M509.615 396.64H453.122M509.615 396.64H566.109M566.109 340.146V396.64M566.109 340.146H622.602M453.122 396.64H396.629M396.629 340.146H340.136M396.629 340.146V396.64M566.109 396.64V453.133M566.109 396.64H622.602M396.629 396.64H340.136M396.629 396.64V453.133M566.109 453.133H622.602M396.629 453.133H340.136M622.602 509.626V566.119M622.602 509.626V453.133M622.602 509.626H679.095M622.602 566.119V622.613M622.602 566.119H679.095M622.602 622.613V679.106M622.602 622.613H679.095M622.602 1.18652V57.6798M622.602 1.18652H679.095M622.602 679.106V735.599M622.602 679.106H679.095M622.602 57.6798V114.173M622.602 57.6798H679.095M622.602 735.599V792.093M622.602 735.599H679.095M622.602 114.173V170.666M622.602 114.173H679.095M622.602 792.093V848.586M622.602 792.093H679.095M622.602 170.666V227.16M622.602 170.666H679.095M622.602 848.586V905.079M622.602 848.586H679.095M622.602 227.16V283.653M622.602 227.16H679.095M622.602 905.079V961.572M622.602 905.079H679.095M622.602 283.653V340.146M622.602 283.653H679.095M622.602 961.572H679.095M622.602 340.146V396.64M622.602 340.146H679.095M622.602 396.64V453.133M622.602 396.64H679.095M622.602 453.133H679.095M679.095 509.626V566.119M679.095 509.626V453.133M679.095 509.626H735.589M679.095 566.119V622.613M679.095 566.119H735.589M679.095 622.613V679.106M679.095 622.613H735.589M679.095 1.18652V57.6798M679.095 1.18652H735.589M679.095 679.106V735.599M679.095 679.106H735.589M679.095 57.6798V114.173M679.095 57.6798H735.589M679.095 735.599V792.093M679.095 735.599H735.589M679.095 114.173V170.666M679.095 114.173H735.589M679.095 792.093V848.586M679.095 792.093H735.589M679.095 170.666V227.16M679.095 170.666H735.589M679.095 848.586V905.079M679.095 848.586H735.589M679.095 227.16V283.653M679.095 227.16H735.589M679.095 905.079V961.572M679.095 905.079H735.589M679.095 283.653V340.146M679.095 283.653H735.589M679.095 961.572H735.589M679.095 340.146V396.64M679.095 340.146H735.589M679.095 396.64V453.133M679.095 396.64H735.589M679.095 453.133H735.589M1.17578 509.626V566.119M1.17578 509.626V453.133M1.17578 509.626H57.6691M1.17578 566.119V622.613M1.17578 566.119H57.6691M1.17578 453.133V396.64M1.17578 453.133H57.6691M57.6691 509.626V566.119M57.6691 509.626V453.133M57.6691 509.626H114.162M1.17578 622.613V679.106M1.17578 622.613H57.6691M57.6691 566.119V622.613M57.6691 566.119H114.162M1.17578 679.106V735.599M1.17578 679.106H57.6691M57.6691 622.613V679.106M57.6691 622.613H114.162M1.17578 735.599V792.093M1.17578 735.599H57.6691M57.6691 679.106V735.599M57.6691 679.106H114.162M1.17578 57.6798V1.18652H57.6691M1.17578 57.6798V114.173M1.17578 57.6798H57.6691M57.6691 1.18652V57.6798M57.6691 1.18652H114.162M1.17578 114.173V170.666M1.17578 114.173H57.6691M57.6691 57.6798V114.173M57.6691 57.6798H114.162M1.17578 792.093V848.586M1.17578 792.093H57.6691M57.6691 735.599V792.093M57.6691 735.599H114.162M1.17578 170.666V227.16M1.17578 170.666H57.6691M57.6691 114.173V170.666M57.6691 114.173H114.162M1.17578 848.586V905.079M1.17578 848.586H57.6691M57.6691 792.093V848.586M57.6691 792.093H114.162M1.17578 227.16V283.653M1.17578 227.16H57.6691M57.6691 170.666V227.16M57.6691 170.666H114.162M1.17578 905.079V961.572H57.6691M1.17578 905.079H57.6691M57.6691 848.586V905.079M57.6691 848.586H114.162M1.17578 283.653V340.146M1.17578 283.653H57.6691M57.6691 227.16V283.653M57.6691 227.16H114.162M57.6691 961.572V905.079M57.6691 961.572H114.162M57.6691 905.079H114.162M1.17578 340.146V396.64M1.17578 340.146H57.6691M57.6691 283.653V340.146M57.6691 283.653H114.162M1.17578 396.64H57.6691M57.6691 340.146V396.64M57.6691 340.146H114.162M57.6691 396.64V453.133M57.6691 396.64H114.162M57.6691 453.133H114.162M735.589 509.626V566.119M735.589 509.626V453.133M735.589 509.626H792.082M735.589 566.119V622.613M735.589 566.119H792.082M735.589 622.613V679.106M735.589 622.613H792.082M735.589 1.18652V57.6798M735.589 1.18652H792.082M735.589 679.106V735.599M735.589 679.106H792.082M735.589 57.6798V114.173M735.589 57.6798H792.082M735.589 735.599V792.093M735.589 735.599H792.082M735.589 114.173V170.666M735.589 114.173H792.082M735.589 792.093V848.586M735.589 792.093H792.082M735.589 170.666V227.16M735.589 170.666H792.082M735.589 848.586V905.079M735.589 848.586H792.082M735.589 227.16V283.653M735.589 227.16H792.082M735.589 905.079V961.572M735.589 905.079H792.082M735.589 283.653V340.146M735.589 283.653H792.082M735.589 961.572H792.082M735.589 340.146V396.64M735.589 340.146H792.082M735.589 396.64V453.133M735.589 396.64H792.082M735.589 453.133H792.082M114.162 509.626V566.119M114.162 509.626V453.133M114.162 509.626H170.656M114.162 566.119V622.613M114.162 566.119H170.656M114.162 622.613V679.106M114.162 622.613H170.656M114.162 1.18652V57.6798M114.162 1.18652H170.656M114.162 679.106V735.599M114.162 679.106H170.656M114.162 57.6798V114.173M114.162 57.6798H170.656M114.162 735.599V792.093M114.162 735.599H170.656M114.162 114.173V170.666M114.162 114.173H170.656M114.162 792.093V848.586M114.162 792.093H170.656M114.162 170.666V227.16M114.162 170.666H170.656M114.162 848.586V905.079M114.162 848.586H170.656M114.162 227.16V283.653M114.162 227.16H170.656M114.162 905.079V961.572M114.162 905.079H170.656M114.162 283.653V340.146M114.162 283.653H170.656M114.162 961.572H170.656M114.162 340.146V396.64M114.162 340.146H170.656M114.162 396.64V453.133M114.162 396.64H170.656M114.162 453.133H170.656M792.082 509.626V566.119M792.082 509.626V453.133M792.082 509.626H848.575M792.082 566.119V622.613M792.082 566.119H848.575M792.082 622.613V679.106M792.082 622.613H848.575M792.082 1.18652V57.6798M792.082 1.18652H848.575M792.082 679.106V735.599M792.082 679.106H848.575M792.082 57.6798V114.173M792.082 57.6798H848.575M792.082 735.599V792.093M792.082 735.599H848.575M792.082 114.173V170.666M792.082 114.173H848.575M792.082 792.093V848.586M792.082 792.093H848.575M792.082 170.666V227.16M792.082 170.666H848.575M792.082 848.586V905.079M792.082 848.586H848.575M792.082 227.16V283.653M792.082 227.16H848.575M792.082 905.079V961.572M792.082 905.079H848.575M792.082 283.653V340.146M792.082 283.653H848.575M792.082 961.572H848.575M792.082 340.146V396.64M792.082 340.146H848.575M792.082 396.64V453.133M792.082 396.64H848.575M792.082 453.133H848.575M170.656 509.626V566.119M170.656 509.626V453.133M170.656 509.626H227.149M170.656 566.119V622.613M170.656 566.119H227.149M170.656 622.613V679.106M170.656 622.613H227.149M170.656 1.18652V57.6798M170.656 1.18652H227.149M170.656 679.106V735.599M170.656 679.106H227.149M170.656 57.6798V114.173M170.656 57.6798H227.149M170.656 735.599V792.093M170.656 735.599H227.149M170.656 114.173V170.666M170.656 114.173H227.149M170.656 792.093V848.586M170.656 792.093H227.149M170.656 170.666V227.16M170.656 170.666H227.149M170.656 848.586V905.079M170.656 848.586H227.149M170.656 227.16V283.653M170.656 227.16H227.149M170.656 905.079V961.572M170.656 905.079H227.149M170.656 283.653V340.146M170.656 283.653H227.149M170.656 961.572H227.149M170.656 340.146V396.64M170.656 340.146H227.149M170.656 396.64V453.133M170.656 396.64H227.149M170.656 453.133H227.149M848.575 509.626V566.119M848.575 509.626V453.133M848.575 509.626H905.068M848.575 566.119V622.613M848.575 566.119H905.068M848.575 622.613V679.106M848.575 622.613H905.068M848.575 1.18652V57.6798M848.575 1.18652H905.068M848.575 679.106V735.599M848.575 679.106H905.068M848.575 57.6798V114.173M848.575 57.6798H905.068M848.575 735.599V792.093M848.575 735.599H905.068M848.575 114.173V170.666M848.575 114.173H905.068M848.575 792.093V848.586M848.575 792.093H905.068M848.575 170.666V227.16M848.575 170.666H905.068M848.575 848.586V905.079M848.575 848.586H905.068M848.575 227.16V283.653M848.575 227.16H905.068M848.575 905.079V961.572M848.575 905.079H905.068M848.575 283.653V340.146M848.575 283.653H905.068M848.575 961.572H905.068M848.575 340.146V396.64M848.575 340.146H905.068M848.575 396.64V453.133M848.575 396.64H905.068M848.575 453.133H905.068M227.149 509.626V566.119M227.149 509.626V453.133M227.149 509.626H283.642M227.149 566.119V622.613M227.149 566.119H283.642M227.149 622.613V679.106M227.149 622.613H283.642M227.149 1.18652V57.6798M227.149 1.18652H283.642M227.149 679.106V735.599M227.149 679.106H283.642M227.149 57.6798V114.173M227.149 57.6798H283.642M227.149 735.599V792.093M227.149 735.599H283.642M227.149 114.173V170.666M227.149 114.173H283.642M227.149 792.093V848.586M227.149 792.093H283.642M227.149 170.666V227.16M227.149 170.666H283.642M227.149 848.586V905.079M227.149 848.586H283.642M227.149 227.16V283.653M227.149 227.16H283.642M227.149 905.079V961.572M227.149 905.079H283.642M227.149 283.653V340.146M227.149 283.653H283.642M227.149 961.572H283.642M227.149 340.146V396.64M227.149 340.146H283.642M227.149 396.64V453.133M227.149 396.64H283.642M227.149 453.133H283.642M905.068 509.626V566.119M905.068 509.626V453.133M905.068 509.626H961.562M905.068 566.119V622.613M905.068 566.119H961.562M905.068 622.613V679.106M905.068 622.613H961.562M905.068 1.18652V57.6798M905.068 1.18652H961.562M905.068 679.106V735.599M905.068 679.106H961.562M905.068 57.6798V114.173M905.068 57.6798H961.562M905.068 735.599V792.093M905.068 735.599H961.562M905.068 114.173V170.666M905.068 114.173H961.562M905.068 792.093V848.586M905.068 792.093H961.562M905.068 170.666V227.16M905.068 170.666H961.562M905.068 848.586V905.079M905.068 848.586H961.562M905.068 227.16V283.653M905.068 227.16H961.562M905.068 905.079V961.572M905.068 905.079H961.562M905.068 283.653V340.146M905.068 283.653H961.562M905.068 961.572H961.562M905.068 340.146V396.64M905.068 340.146H961.562M905.068 396.64V453.133M905.068 396.64H961.562M905.068 453.133H961.562M283.642 509.626V566.119M283.642 509.626V453.133M283.642 509.626H340.136M283.642 566.119V622.613M283.642 566.119H340.136M283.642 622.613V679.106M283.642 622.613H340.136M283.642 1.18652V57.6798M283.642 1.18652H340.136M283.642 679.106V735.599M283.642 679.106H340.136M283.642 57.6798V114.173M283.642 57.6798H340.136M283.642 735.599V792.093M283.642 735.599H340.136M283.642 114.173V170.666M283.642 114.173H340.136M283.642 792.093V848.586M283.642 792.093H340.136M283.642 170.666V227.16M283.642 170.666H340.136M283.642 848.586V905.079M283.642 848.586H340.136M283.642 227.16V283.653M283.642 227.16H340.136M283.642 905.079V961.572M283.642 905.079H340.136M283.642 283.653V340.146M283.642 283.653H340.136M283.642 961.572H340.136M283.642 340.146V396.64M283.642 340.146H340.136M283.642 396.64V453.133M283.642 396.64H340.136M283.642 453.133H340.136M961.562 509.626V566.119M961.562 509.626V453.133M961.562 509.626H1018.06M961.562 566.119V622.613M961.562 566.119H1018.06M961.562 622.613V679.106M961.562 622.613H1018.06M961.562 1.18652V57.6798M961.562 1.18652H1018.06M961.562 679.106V735.599M961.562 679.106H1018.06M961.562 57.6798V114.173M961.562 57.6798H1018.06M961.562 735.599V792.093M961.562 735.599H1018.06M961.562 114.173V170.666M961.562 114.173H1018.06M961.562 792.093V848.586M961.562 792.093H1018.06M961.562 170.666V227.16M961.562 170.666H1018.06M961.562 848.586V905.079M961.562 848.586H1018.06M961.562 227.16V283.653M961.562 227.16H1018.06M961.562 905.079V961.572M961.562 905.079H1018.06M961.562 283.653V340.146M961.562 283.653H1018.06M961.562 961.572H1018.06M961.562 340.146V396.64M961.562 340.146H1018.06M961.562 396.64V453.133M961.562 396.64H1018.06M961.562 453.133H1018.06M340.136 509.626V566.119M340.136 509.626V453.133M340.136 566.119V622.613M340.136 622.613V679.106M340.136 1.18652V57.6798M340.136 679.106V735.599M340.136 57.6798V114.173M340.136 735.599V792.093M340.136 114.173V170.666M340.136 792.093V848.586M340.136 170.666V227.16M340.136 848.586V905.079M340.136 227.16V283.653M340.136 905.079V961.572M340.136 283.653V340.146M340.136 340.146V396.64M340.136 396.64V453.133M1018.06 509.626V566.119M1018.06 509.626V453.133M1018.06 509.626H1074.55M1018.06 566.119V622.613M1018.06 566.119H1074.55M1018.06 622.613V679.106M1018.06 622.613H1074.55M1018.06 1.18652V57.6798M1018.06 1.18652H1074.55M1018.06 679.106V735.599M1018.06 679.106H1074.55M1018.06 57.6798V114.173M1018.06 57.6798H1074.55M1018.06 735.599V792.093M1018.06 735.599H1074.55M1018.06 114.173V170.666M1018.06 114.173H1074.55M1018.06 792.093V848.586M1018.06 792.093H1074.55M1018.06 170.666V227.16M1018.06 170.666H1074.55M1018.06 848.586V905.079M1018.06 848.586H1074.55M1018.06 227.16V283.653M1018.06 227.16H1074.55M1018.06 905.079V961.572M1018.06 905.079H1074.55M1018.06 283.653V340.146M1018.06 283.653H1074.55M1018.06 961.572H1074.55M1018.06 340.146V396.64M1018.06 340.146H1074.55M1018.06 396.64V453.133M1018.06 396.64H1074.55M1018.06 453.133H1074.55M1074.55 509.626V566.119M1074.55 509.626V453.133M1074.55 509.626H1131.04M1074.55 566.119V622.613M1074.55 566.119H1131.04M1074.55 622.613V679.106M1074.55 622.613H1131.04M1074.55 1.18652V57.6798M1074.55 1.18652H1131.04V57.6798M1074.55 679.106V735.599M1074.55 679.106H1131.04M1074.55 57.6798V114.173M1074.55 57.6798H1131.04M1074.55 735.599V792.093M1074.55 735.599H1131.04M1074.55 114.173V170.666M1074.55 114.173H1131.04M1074.55 792.093V848.586M1074.55 792.093H1131.04M1074.55 170.666V227.16M1074.55 170.666H1131.04M1074.55 848.586V905.079M1074.55 848.586H1131.04M1074.55 227.16V283.653M1074.55 227.16H1131.04M1074.55 905.079V961.572M1074.55 905.079H1131.04M1074.55 283.653V340.146M1074.55 283.653H1131.04M1074.55 961.572H1131.04V905.079M1074.55 340.146V396.64M1074.55 340.146H1131.04M1074.55 396.64V453.133M1074.55 396.64H1131.04M1074.55 453.133H1131.04M1131.04 509.626V566.119M1131.04 509.626V453.133M1131.04 566.119V622.613M1131.04 622.613V679.106M1131.04 57.6798V114.173M1131.04 679.106V735.599M1131.04 735.599V792.093M1131.04 114.173V170.666M1131.04 792.093V848.586M1131.04 170.666V227.16M1131.04 848.586V905.079M1131.04 227.16V283.653M1131.04 283.653V340.146M1131.04 340.146V396.64M1131.04 396.64V453.133" stroke="url(#paint0_radial_20_2186)" stroke-width="0.807047"/>
<defs>
<radialGradient id="paint0_radial_20_2186" cx="0" cy="0" r="1" gradientUnits="userSpaceOnUse" gradientTransform="translate(554.81 474.923) rotate(157.112) scale(624.6 461.062)">
<stop/>
<stop offset="1" stop-opacity="0"/>
</radialGradient>
</defs>
</svg>
